<svg width="390" height="260" viewBox="0 0 390 260" fill="none" xmlns="http://www.w3.org/2000/svg">
<g filter="url(#filter0_d_126_37957)">
<path d="M132.671 146.438C135.517 144.012 138.538 141.368 142.266 141.042C149.078 140.447 154.221 146.79 149.744 151.948C143.21 159.477 132.575 164.693 120.417 165.755C98.6006 167.66 86.4726 158.412 88.1546 139.518C89.7629 120.711 103.822 109.258 125.557 107.36C138.106 106.264 148.507 110.226 153.602 117.533C156.949 122.332 152.306 127.748 146.47 128.258C141.116 128.725 135.997 124.249 130.786 122.936C128.961 122.476 126.765 122.35 124.204 122.573C114.669 123.406 108.432 128.414 107.628 137.818C106.757 147.389 111.979 151.234 121.756 150.381C126.435 149.972 130.066 148.658 132.671 146.438Z" fill="#3939FF"/>
<path d="M188.622 159.231C187.341 159.343 186.272 158.269 186.393 156.991L186.603 154.771C186.615 154.649 186.513 154.546 186.39 154.557C186.334 154.562 186.284 154.59 186.25 154.634C182.783 159.184 173.418 161.127 168.433 161.562C157.768 162.494 150.058 158.135 150.732 150.042C151.512 141.29 159.788 137.24 174.356 135.318L187.566 133.6C187.607 133.594 187.636 133.558 187.633 133.517C187.632 133.512 187.632 133.507 187.633 133.503C187.925 130.398 185.051 129.19 180.288 129.606C178.745 129.741 177.304 129.992 176.061 130.346C173.092 131.193 170.051 133.097 166.974 133.366C161.07 133.881 156.91 128.263 161.503 124.523C166.402 120.534 173.624 117.852 182.528 117.075C198.365 115.692 207.702 120.963 206.869 130.044L205.081 150.354C204.7 154.691 201.254 158.128 196.91 158.507L188.622 159.231ZM186.828 142.913C186.844 142.616 186.587 142.377 186.291 142.414L176.714 143.634C172.122 144.197 169.716 145.543 169.615 147.175C169.447 148.975 172.897 149.323 176.372 149.02C181.543 148.569 186.583 145.694 186.828 142.913Z" fill="#3939FF"/>
<path d="M231.439 142.832C235.782 142.453 238.448 147.469 235.697 150.845L231.946 155.448C231.946 155.448 227.766 155.913 222.918 156.337C212.091 157.282 204.177 154.14 205.279 141.626L208.166 108.525C208.563 103.974 212.178 100.364 216.737 99.9662C222.574 99.4565 227.458 104.327 226.952 110.153L224.478 138.651C224.156 142.413 226.268 143.283 231.439 142.832Z" fill="#3939FF"/>
<path d="M245.768 123.645C236.718 124.435 230.536 119.862 231.197 111.608C232.005 103.178 239.155 97.4405 248.205 96.6503C257.417 95.846 263.679 100.412 262.871 108.842C262.21 117.096 254.979 122.841 245.768 123.645ZM231.946 155.448L279.921 96.5755C281.114 95.112 282.85 94.1932 284.733 94.0288C290.883 93.4917 294.658 100.596 290.762 105.376L255.971 148.069C253.01 151.703 248.699 153.985 244.023 154.393L231.946 155.448ZM246.631 113.993C248.894 113.795 250.464 112.198 250.67 109.907C250.876 107.617 249.618 106.266 247.356 106.463C245.093 106.661 243.443 108.266 243.236 110.556C243.03 112.847 244.369 114.191 246.631 113.993ZM284.839 151.397C275.79 152.188 269.527 147.622 270.268 139.36C270.996 130.937 278.146 125.2 287.196 124.41C296.407 123.606 302.67 128.172 301.943 136.594C301.201 144.856 294.051 150.593 284.839 151.397ZM285.703 141.746C287.966 141.548 289.535 139.95 289.742 137.66C289.948 135.369 288.609 134.025 286.346 134.223C284.084 134.42 282.514 136.018 282.308 138.309C282.102 140.599 283.441 141.943 285.703 141.746Z" fill="#3939FF"/>
<path d="M284.646 93.0322C291.671 92.4187 295.994 100.539 291.537 106.008L256.747 148.701C253.614 152.545 249.055 154.958 244.11 155.39L232.063 156.441L232.057 156.442H232.046L232.044 156.443C232.036 156.444 232.023 156.445 232.007 156.447C231.975 156.451 231.927 156.456 231.865 156.463C231.741 156.477 231.558 156.496 231.323 156.521C230.854 156.572 230.179 156.644 229.352 156.729C227.697 156.898 225.435 157.121 223.005 157.333C217.525 157.811 212.542 157.286 209.053 154.849C207.772 153.954 206.726 152.825 205.935 151.449C205.104 155.786 201.481 159.112 196.996 159.504L188.709 160.228C186.821 160.392 185.239 158.82 185.395 156.936C183.443 158.557 180.829 159.741 178.221 160.592C174.737 161.729 171.073 162.336 168.521 162.559C163.055 163.036 158.22 162.172 154.8 160.034C152.24 158.434 150.504 156.134 149.914 153.258C143.149 160.654 132.529 165.701 120.504 166.751C109.471 167.714 100.682 165.88 94.8496 161.218C88.9695 156.517 86.2964 149.111 87.1582 139.43C87.9841 129.78 92.0168 121.967 98.6621 116.335C105.292 110.717 114.455 107.326 125.471 106.364C138.236 105.25 149.053 109.261 154.422 116.961C156.372 119.758 155.975 122.78 154.287 125.094C152.632 127.363 149.739 128.976 146.557 129.254C143.591 129.513 140.759 128.399 138.148 127.169C135.452 125.899 133.023 124.53 130.542 123.905C128.854 123.48 126.776 123.352 124.291 123.569C119.671 123.973 115.953 125.379 113.306 127.729C110.673 130.067 109.008 133.417 108.624 137.902V137.908C108.205 142.517 109.27 145.486 111.346 147.246C113.464 149.042 116.885 149.802 121.669 149.385C126.215 148.988 129.625 147.721 132.022 145.677C134.796 143.312 138.07 140.405 142.179 140.046C145.904 139.721 149.244 141.286 151.045 143.747C151.198 143.957 151.34 144.174 151.471 144.396C152.688 142.342 154.506 140.646 156.866 139.257C161.03 136.806 166.903 135.293 174.226 134.327L174.228 134.326L186.628 132.713C186.59 132.435 186.512 132.205 186.404 132.013C186.218 131.677 185.904 131.376 185.409 131.129C184.38 130.615 182.695 130.4 180.375 130.603C178.883 130.733 177.506 130.974 176.336 131.308C174.92 131.711 173.509 132.36 171.935 132.999C170.408 133.619 168.76 134.214 167.062 134.362C163.79 134.648 160.9 133.242 159.47 131.095C158.749 130.012 158.394 128.726 158.602 127.4C158.81 126.071 159.567 124.81 160.871 123.748C165.967 119.598 173.398 116.868 182.44 116.078C190.458 115.378 196.975 116.345 201.426 118.756C203.324 119.784 204.842 121.078 205.934 122.602L207.17 108.438C207.609 103.402 211.609 99.41 216.65 98.9697C223.104 98.4063 228.508 103.793 227.948 110.24L225.474 138.738C225.401 139.594 225.477 140.185 225.635 140.594C225.782 140.974 226.017 141.242 226.385 141.447C226.78 141.667 227.363 141.831 228.208 141.901C229.048 141.972 230.086 141.946 231.352 141.836C234.712 141.543 237.238 143.939 237.729 146.769L279.146 95.9434C280.51 94.2704 282.494 93.2202 284.646 93.0322ZM287.109 123.414C291.88 122.998 296.032 123.957 298.92 126.26C301.844 128.591 303.328 132.184 302.939 136.681L302.938 136.684C302.142 145.562 294.473 151.56 284.927 152.394C280.232 152.803 276.122 151.837 273.259 149.556C270.36 147.246 268.876 143.694 269.272 139.271C270.054 130.24 277.715 124.234 287.109 123.414ZM176.84 144.626H176.835C174.597 144.901 172.978 145.358 171.938 145.894C170.869 146.443 170.631 146.947 170.613 147.237L170.612 147.253L170.61 147.269C170.605 147.33 170.6 147.377 170.732 147.482C170.912 147.625 171.263 147.786 171.837 147.909C172.97 148.152 174.586 148.172 176.284 148.023C178.728 147.81 181.139 147.022 182.945 145.975C183.848 145.451 184.57 144.882 185.067 144.316C185.32 144.029 185.502 143.758 185.626 143.507L176.84 144.626ZM286.434 135.219C284.668 135.373 283.468 136.576 283.304 138.398C283.219 139.339 283.461 139.925 283.79 140.257C284.118 140.588 284.694 140.83 285.616 140.749C287.382 140.595 288.582 139.392 288.746 137.57C288.831 136.63 288.588 136.044 288.259 135.712C287.931 135.381 287.356 135.138 286.434 135.219ZM186.633 133.512L186.637 133.604V133.603C186.634 133.57 186.633 133.537 186.633 133.505V133.512ZM248.118 95.6543C252.889 95.2377 257.041 96.1981 259.92 98.5029C262.832 100.835 264.294 104.427 263.867 108.921C263.156 117.807 255.392 123.809 245.854 124.642C241.159 125.052 237.069 124.083 234.216 121.799C231.329 119.489 229.847 115.941 230.2 111.527V111.52L230.201 111.512C231.067 102.482 238.719 96.475 248.118 95.6543ZM247.442 107.46C245.654 107.616 244.395 108.846 244.232 110.646C244.148 111.586 244.39 112.172 244.719 112.504C245.047 112.835 245.622 113.077 246.544 112.997C248.31 112.843 249.51 111.639 249.674 109.817C249.76 108.86 249.528 108.27 249.215 107.942C248.91 107.623 248.364 107.379 247.442 107.46Z" stroke="#F8F3EC" stroke-width="2"/>
</g>
<defs>
<filter id="filter0_d_126_37957" x="86.001" y="91.9994" width="225.999" height="84.0004" filterUnits="userSpaceOnUse" color-interpolation-filters="sRGB">
<feFlood flood-opacity="0" result="BackgroundImageFix"/>
<feColorMatrix in="SourceAlpha" type="matrix" values="0 0 0 0 0 0 0 0 0 0 0 0 0 0 0 0 0 0 127 0" result="hardAlpha"/>
<feOffset dx="8" dy="8"/>
<feComposite in2="hardAlpha" operator="out"/>
<feColorMatrix type="matrix" values="0 0 0 0 0.972549 0 0 0 0 0.952941 0 0 0 0 0.92549 0 0 0 1 0"/>
<feBlend mode="normal" in2="BackgroundImageFix" result="effect1_dropShadow_126_37957"/>
<feBlend mode="normal" in="SourceGraphic" in2="effect1_dropShadow_126_37957" result="shape"/>
</filter>
</defs>
</svg>
