<svg width="390" height="260" viewBox="0 0 390 260" fill="none" xmlns="http://www.w3.org/2000/svg">
<path d="M148.142 117.344C147.825 114.484 148.148 111.734 148.658 109.031C150.631 98.575 155.515 89.698 163.416 82.5062C166.146 80.0197 169.091 77.8645 172.668 76.7378C174.46 76.1735 176.297 75.9347 178.185 76.2332C180.588 76.6126 182.37 79.0105 182.019 81.42C181.884 82.3464 181.333 82.9897 180.634 83.5405C180.134 83.9353 179.744 83.683 179.371 83.3171C178.687 82.6507 178.332 81.7782 177.882 80.9693C176.745 78.9238 175.627 78.5656 173.516 79.5344C171.196 80.5995 169.518 82.433 167.84 84.2416C164.484 87.8567 161.542 91.7742 159.314 96.2002C156.78 101.237 155.422 106.545 155.162 112.18C155.007 115.511 155.119 118.789 155.996 122.005C156.91 125.356 158.292 128.476 160.847 130.953C162.153 132.221 162.527 132.298 164.034 131.348C167.187 129.357 169.87 126.832 172.241 123.968C172.608 123.525 172.915 123.024 173.761 122.924C173.663 124.226 173.195 125.335 172.624 126.418C171.397 128.735 169.393 130.291 167.334 131.791C166.735 132.226 166.133 132.658 165.644 133.22C165.272 133.65 165.158 134.114 165.517 134.622C165.891 135.152 166.338 134.977 166.803 134.777C167.672 134.403 168.356 133.752 169.142 133.251C171.266 131.899 173.485 130.984 176.067 131.693C176.621 131.845 177.191 132.024 177.679 132.315C181.113 134.353 183.554 137.022 183.206 141.358C183.021 143.679 181.868 145.614 180.626 147.504C180.043 148.392 179.417 149.247 178.61 149.952C177.815 150.647 176.93 151.125 175.82 151.048C174.188 150.934 173.328 149.493 174.049 148.037C174.526 147.072 175.248 146.286 176.005 145.547C177.894 143.702 178.778 141.408 179.022 138.844C179.126 137.75 178.757 136.755 177.994 135.932C177.231 135.11 176.268 135.385 175.364 135.52C174.528 135.645 173.802 136.107 173.074 136.516C170.515 137.947 167.908 138.449 165.183 136.99C164.561 136.656 164.155 136.941 163.763 137.384C162.323 139.006 161.212 140.851 160.175 142.733C156.788 148.888 155.403 155.431 156.583 162.415C157.253 166.379 158.957 169.845 161.803 172.731C167.738 178.748 178.718 176.652 181.857 169.287C182.805 167.059 183.587 164.797 184.006 162.421C184.608 159 185.619 155.691 186.667 152.39C186.889 151.693 186.735 151.198 186.248 150.655C184.193 148.353 184.085 146.042 185.85 143.513C186.424 142.691 186.955 142.56 187.818 143.082C189.041 143.823 189.942 144.842 190.36 146.229C190.645 147.18 190.96 148.133 191.12 149.11C191.292 150.152 191.839 150.93 192.488 151.7C193.003 152.313 193.43 152.363 193.95 151.725C195.128 150.283 196.296 148.831 197.526 147.432C199.401 145.3 201.597 143.619 204.366 142.769C206.657 142.066 208.715 142.808 209.874 144.894C210.322 145.701 210.987 146.186 211.747 146.627C213.07 147.394 213.335 148.158 212.443 149.382C209.633 153.23 208.632 157.679 208.014 162.253C207.717 164.456 208.157 166.669 208.223 168.881C208.267 170.418 208.441 171.953 208.895 173.438C208.941 173.59 208.959 173.755 209.021 173.9C209.303 174.568 209.424 175.498 210.249 175.606C211.112 175.72 211.218 174.74 211.603 174.191C211.859 173.823 212.062 173.414 212.35 173.074C212.593 172.785 212.91 172.736 213.113 173.158C214.019 175.05 211.74 178.834 209.612 178.95C207.987 179.038 206.744 178.316 205.844 177.018C203.98 174.333 203.053 171.3 202.893 168.081C202.663 163.482 202.93 158.908 204.413 154.491C205.193 152.165 206.527 150.102 207.663 147.945C207.916 147.463 208.161 146.968 208.323 146.452C208.652 145.406 208.194 144.823 207.089 144.878C206.133 144.929 205.278 145.321 204.513 145.872C201.396 148.118 199.255 151.171 197.77 154.622C195.56 159.763 193.955 165.104 193.218 170.674C193.04 172.012 192.548 172.723 191.756 172.787C190.945 172.852 190.176 172.166 189.867 170.913C189.243 168.384 189.485 165.812 189.603 163.251C189.73 160.45 190.275 157.727 191.128 155.056C191.333 154.418 191.482 153.677 190.738 153.002C190.151 154.141 189.577 155.204 189.05 156.288C187.472 159.532 186.632 163.052 185.255 166.373C184.394 168.451 183.539 170.55 182.162 172.34C179.767 175.452 176.428 177.18 172.697 178.083C166.336 179.622 160.418 178.676 155.282 174.401C152.13 171.777 150.303 168.322 149.339 164.383C147.897 158.492 148.491 152.739 150.515 147.08C150.807 146.267 151.079 145.449 151.353 144.657C151.068 144.229 150.629 144.152 150.272 143.962C147.294 142.369 146.587 138.894 148.729 136.292C149.697 135.117 150.938 134.345 152.394 133.914C152.925 133.756 153.472 133.702 153.999 133.943C155.177 134.478 155.262 135.123 154.217 135.869C153.244 136.564 152.344 137.336 151.533 138.209C150.345 139.488 150.332 141.285 151.437 142.59C151.865 143.097 152.24 143.197 152.671 142.623C153.267 141.828 153.879 141.042 154.468 140.241C155.944 138.224 157.471 136.248 159.188 134.326C158.288 133.401 157.29 132.758 156.33 132.074C151.282 128.48 148.758 123.494 148.155 117.346M186.91 146.444C186.696 147.411 186.984 148.232 187.685 149.112C187.78 148.343 187.832 147.727 187.994 147.118C188.172 146.444 187.586 146.042 186.912 146.444H186.91Z" fill="#F8F3EC"/>
<path d="M188.367 79.2339C190.392 78.8641 191.25 79.8098 190.67 81.7416C189.471 85.7342 188.048 89.6633 187.221 93.76C185.812 100.738 184.213 107.672 182.561 114.598C181.65 118.417 180.791 122.294 181.063 126.29C181.142 127.456 181.385 128.575 181.88 129.632C182.395 130.736 182.994 130.976 184.027 130.308C186.047 129.004 187.246 127.045 187.71 124.757C188.249 122.092 188.06 119.328 188.515 116.639C189.371 111.589 190.35 106.599 193.859 102.529C196.07 99.9656 198.847 99.1336 202.086 99.6093C203.733 99.8501 205.158 101.718 205.21 103.54C205.239 104.509 205.135 105.482 204.758 106.373C203.069 110.362 200.641 113.833 197.32 116.651C196.354 117.471 195.249 118.059 194.013 118.378C193.596 118.486 193.196 118.588 193.233 119.164C193.405 121.903 193.801 124.592 195.139 127.045C195.806 128.267 196.42 128.476 197.781 128.105C200.245 127.431 201.792 125.624 203.173 123.667C205.044 121.015 206.276 118.055 207.035 114.908C208.206 110.056 210.537 105.832 213.907 102.171C214.714 101.295 215.633 100.549 216.722 100.014C218.016 99.3782 219.291 99.3705 220.494 100.129C221.523 100.778 222.496 101.524 223.449 102.283C224.165 102.853 224.37 103.671 224.184 104.544C223.505 107.743 222.803 110.936 222.104 114.131C221.513 116.83 220.994 119.536 221.067 122.319C221.092 123.319 221.278 124.293 221.471 125.268C221.625 126.042 222.124 126.26 222.831 126.046C223.966 125.703 224.655 124.923 225.032 123.812C225.662 121.949 226.046 120.031 226.293 118.091C226.886 113.436 228.363 109.039 230.113 104.719C230.306 104.243 230.48 103.758 230.712 103.301C231.231 102.283 232.359 102.107 233.184 102.918C233.771 103.494 234.008 104.201 233.858 105.027C233.243 108.402 232.608 111.77 232.027 115.15C231.285 119.467 230.934 123.804 231.511 128.172C231.621 128.998 231.793 130.065 232.647 130.223C233.435 130.37 233.668 129.309 233.975 128.671C235.034 126.473 236.109 124.282 237.061 122.038C238.373 118.945 238.705 115.588 239.516 112.358C240.155 109.81 240.91 107.29 241.629 104.761C241.733 104.394 241.895 104.039 242.061 103.692C242.386 103.013 242.882 102.516 243.685 102.521C244.502 102.527 245.091 102.978 245.449 103.679C246.094 104.946 246.233 106.291 246.084 107.702C245.703 111.294 244.643 114.729 243.72 118.195C243.152 120.333 242.523 122.456 241.914 124.582C241.826 124.89 241.719 125.195 241.586 125.485C241.183 126.366 240.835 126.452 240.026 125.88C239.319 125.381 238.743 124.744 238.149 123.973C237.538 125.42 237.162 126.837 236.749 128.24C236.279 129.83 235.632 131.304 234.383 132.469C232.776 133.968 230.451 133.904 228.989 132.236C227.738 130.807 227.193 129.075 226.988 127.219C226.911 126.522 226.847 125.821 226.743 124.784C225.38 126.862 224.086 128.711 221.484 128.502C219.113 128.311 217.385 127.13 216.342 124.994C215.791 125.069 215.567 125.493 215.243 125.78C213.901 126.966 212.506 128.035 210.566 127.945C208.847 127.864 207.472 127.219 206.556 125.691C205.869 124.544 205.488 124.555 204.654 125.611C203.7 126.816 202.854 128.103 201.653 129.112C198.505 131.758 193.961 131.575 191.08 128.631C190.587 128.126 190.12 127.598 189.558 126.992C188.855 128.064 188.229 129.129 187.496 130.112C186.094 131.986 184.29 133.584 181.868 133.247C179.014 132.849 176.266 131.358 176.094 128.103C175.885 124.141 176.49 120.304 177.235 116.466C178.436 110.297 180.368 104.301 181.71 98.1648C182.793 93.2149 183.946 88.2862 185.418 83.4365C185.678 82.5756 185.984 81.73 186.403 80.9327C186.82 80.1372 187.395 79.5132 188.37 79.2358M212.978 111.458C212.925 111.643 212.887 111.832 212.821 112.013C211.496 115.68 210.981 119.463 211.214 123.348C211.238 123.727 211.297 124.116 211.421 124.474C211.728 125.366 212.275 125.526 213.041 124.994C213.657 124.567 214.208 124.06 214.534 123.388C215.498 121.4 216.552 119.44 217.159 117.313C217.993 114.392 218.677 111.425 219.432 108.481C219.87 106.776 220.442 105.098 220.424 103.309C220.413 102.208 219.81 101.761 218.729 102.007C217.933 102.19 217.358 102.666 216.877 103.298C215.04 105.705 213.878 108.434 212.976 111.458M200.141 102.215C198.681 102.706 197.625 103.681 196.744 104.915C195.035 107.313 194.554 110.145 193.841 112.895C193.645 113.652 193.477 114.428 193.567 115.231C194.178 115.173 194.193 115.191 194.477 114.954C198.227 111.818 199.927 107.627 200.659 102.947C200.705 102.647 200.734 102.277 200.141 102.215Z" fill="#F8F3EC"/>
<path d="M153.937 191.122C151.336 188.717 149.131 186.02 146.649 183.595C143.268 180.294 140.021 176.866 136.924 173.305C134.027 169.973 131.675 166.255 129.693 162.305C126.549 156.04 124.815 149.372 123.819 142.467C122.998 136.755 122.836 131.015 123.149 125.281C123.57 117.552 124.535 109.888 127.117 102.52C127.957 100.12 129.095 97.8528 130.238 95.5916C130.431 95.2122 130.586 94.7557 131.346 94.4996C124.933 107.431 123.979 121.086 124.591 134.99C124.719 133.34 124.933 131.691 124.962 130.038C125.072 123.378 125.897 116.813 127.295 110.303C128.884 102.901 131.151 95.7399 134.599 88.9777C137.412 83.4577 141.354 78.7775 145.581 74.2995C153.503 65.9097 163.068 59.9217 173.489 55.1837C178.616 52.8532 184.023 51.5108 189.608 50.7519C193.701 50.1953 197.795 49.9854 201.916 50.0008C207.489 50.022 212.896 51.0158 218.271 52.4314C223.781 53.8836 228.999 56.008 234.014 58.6621C238.699 61.1428 242.915 64.2919 246.876 67.7972C251.744 72.1038 256.035 76.9323 259.49 82.4176C262.431 87.0882 265.027 91.9707 266.667 97.2865C266.838 97.8412 267.167 98.4055 266.898 99.0373C266.404 99.0585 266.41 98.6655 266.307 98.3921C263.915 92.0246 260.892 85.9654 256.941 80.4261C252.165 73.7294 246.348 68.0187 239.605 63.2923C234.653 59.8216 229.194 57.3197 223.532 55.2261C218.167 53.2442 212.57 52.4911 206.927 52.0154C197.779 51.245 188.749 52.052 179.864 54.3574C175.6 55.463 171.677 57.4063 167.821 59.473C165.073 60.9464 162.34 62.4621 159.777 64.2437C154.075 68.2055 148.93 72.749 144.635 78.2574C141.784 81.9111 139.058 85.6283 136.704 89.6171C136.422 90.0948 135.975 90.532 136.362 91.1887C136.491 91.4102 136.248 91.6702 136.132 91.8956C135.018 94.0643 133.975 96.2677 132.814 98.4152C131.679 100.515 131.113 102.849 130.545 105.147C128.459 113.596 127.507 122.194 127.617 130.886C127.72 138.944 129.39 146.726 132.219 154.27C133.843 158.601 135.695 162.829 137.818 166.943C142.453 175.924 148.25 184.017 155.774 190.845C165.648 199.805 177.088 205.554 190.277 207.74C195.081 208.535 199.921 208.664 204.795 208.408C210.469 208.112 216.04 207.251 221.546 205.91C227.622 204.431 233.29 201.941 238.771 198.988C243.307 196.544 247.702 193.88 251.708 190.623C252.905 189.651 254.069 188.64 255.251 187.65C255.408 187.519 255.502 187.251 255.991 187.444C254.96 188.482 254.044 189.531 252.999 190.433C245.914 196.552 237.828 201.005 229.14 204.379C222.738 206.866 216.085 208.51 209.289 209.491C204.855 210.13 200.382 210.07 195.906 209.835C190.087 209.529 184.599 207.834 179.097 206.137C173.933 204.545 169.032 202.38 164.486 199.47C160.714 197.054 157.3 194.167 153.932 191.122M136.308 166.596C135.321 164.456 134.334 162.317 133.254 159.975C133.125 161.548 133.283 162.854 133.762 164.116C135.632 169.04 138.2 173.549 141.74 177.484C142.256 178.056 142.752 178.644 143.277 179.208C143.791 179.761 144.328 180.292 144.853 180.833C141.672 176.311 138.832 171.637 136.31 166.596H136.308Z" fill="#F8F3EC"/>
<path d="M258.895 110.135C257.785 113.827 257.096 117.504 257.225 121.294C257.285 123.024 257.434 124.75 257.752 126.458C257.818 126.809 257.856 127.221 258.231 127.34C258.669 127.481 258.955 127.107 259.175 126.809C260.305 125.274 261.072 123.536 261.871 121.822C262.225 121.067 262.485 120.266 262.856 119.52C263.163 118.904 263.337 117.806 264.256 118.149C265.141 118.479 264.643 119.467 264.448 120.119C263.706 122.594 262.507 124.863 261.122 127.04C260.655 127.773 260.156 128.484 259.527 129.087C257.211 131.306 254.305 130.584 253.233 127.535C252.546 125.578 252.584 123.554 252.721 121.535C253.061 116.506 253.882 111.543 254.882 106.607C255.002 106.017 255 105.389 254.962 104.786C254.911 103.997 254.508 103.839 253.892 104.361C252.764 105.318 252.04 106.58 251.433 107.893C250.105 110.769 249.423 113.835 248.855 116.934C247.89 122.205 247.333 127.527 246.93 132.866C246.862 133.754 246.652 134.578 245.918 135.175C244.906 135.996 243.6 135.647 243.222 134.405C242.851 133.186 242.913 131.928 243.096 130.684C243.794 125.926 244.767 121.221 245.678 116.502C246.677 111.337 248.77 106.747 252.349 102.86C252.957 102.2 253.571 101.537 254.376 101.098C256.931 99.7056 259.328 101.048 259.482 103.945C259.593 106.013 259.284 108.039 258.892 110.141L258.895 110.135Z" fill="#F8F3EC"/>
<path d="M160.579 66.0619C156.28 68.5946 152.238 71.3604 148.499 74.6018C148.918 74.1512 149.318 73.6812 149.76 73.2536C153.383 69.7329 157.622 67.0653 161.929 64.4806C166.621 61.6628 171.428 59.0762 176.555 57.1309C181.971 55.0778 187.604 53.9665 193.364 53.4792C195.06 53.3347 196.76 53.198 198.461 53.1267C204.156 52.8879 209.735 53.5427 215.233 55.1086C220.928 56.7322 226.589 58.4136 231.909 61.0716C236.953 63.5927 241.455 66.8554 245.478 70.798C247.839 73.113 250.385 75.2451 252.41 77.8857C252.528 78.0379 252.681 78.1708 252.768 78.3383C252.938 78.6696 252.992 79.0433 252.723 79.3302C252.401 79.6769 252.042 79.4439 251.779 79.2262C251.039 78.6099 250.306 77.982 249.618 77.3079C244.408 72.2136 238.508 68.0938 232.023 64.7734C227.236 62.3215 222.361 60.1008 217.141 58.7103C212.593 57.4988 207.953 56.8285 203.271 56.4433C197.715 55.9849 192.161 56.0408 186.63 56.7958C177.326 58.065 168.703 61.2661 160.581 66.0657L160.579 66.0619Z" fill="#F8F3EC"/>
<path d="M235.553 153.264C234.725 152.845 234.253 152.23 234.049 151.404C233.923 150.897 233.968 150.398 234.433 150.117C234.966 149.796 235.354 150.206 235.663 150.572C236.032 151.011 236.322 151.465 236.92 151.702C237.658 151.995 238.048 151.833 238.353 151.132C239.232 149.127 240.327 147.242 241.66 145.501C243.558 143.02 245.991 141.65 249.212 141.884C251.621 142.057 253.071 143.675 252.967 146.084C252.899 147.612 252.356 148.987 251.541 150.219C250.342 152.036 249.091 153.817 247.432 155.287C246.003 156.55 244.545 157.051 242.799 155.999C242.718 155.951 242.621 155.924 242.527 155.907C242.469 155.895 242.403 155.922 242.229 155.951C241.947 156.876 242.067 157.866 242.092 158.836C242.158 161.244 242.762 163.528 243.873 165.664C245.068 167.962 247.013 168.919 249.556 168.399C252.671 167.763 254.917 165.903 256.539 163.23C257.555 161.558 258.295 159.728 259.471 158.149C259.652 157.904 259.77 157.575 260.133 157.511C260.411 157.891 260.218 158.243 260.072 158.53C259.042 160.564 258.333 162.74 257.312 164.769C255.527 168.312 252.438 170.19 248.656 171.076C246.555 171.569 244.495 171.411 242.515 170.593C238.821 169.065 237.413 165.941 236.81 162.286C236.455 160.134 236.751 157.995 237.04 155.874C237.218 154.572 236.901 153.709 235.551 153.264M245.613 153.474C247.872 151.448 249.313 148.971 249.55 145.922C249.653 144.624 248.708 144.068 247.501 144.584C247.154 144.732 246.802 144.944 246.538 145.21C244.3 147.467 243.297 150.318 242.697 153.343C242.563 154.014 242.988 154.27 243.618 154.231C244.309 154.189 244.927 153.935 245.613 153.474Z" fill="#F8F3EC"/>
<path d="M215.762 168.896C215.793 165.72 216.106 162.656 216.535 159.613C217.137 155.337 217.143 151.046 217.128 146.749C217.126 146.073 217.153 145.402 217.34 144.746C217.57 143.944 218.12 143.609 218.931 143.646C220.496 143.715 221.618 144.653 221.907 146.294C222.097 147.363 222.182 148.459 222.201 149.545C222.307 155.063 221.782 160.57 221.83 166.088C221.836 166.764 221.664 167.478 222.039 168.139C222.558 168.018 222.69 167.567 222.917 167.249C224.499 165.029 226.189 162.883 227.475 160.46C228.977 157.631 229.518 154.536 230.034 151.437C230.482 148.752 230.824 146.051 231.216 143.357C231.314 142.677 231.48 142.032 232.164 141.672C233.674 140.876 234.991 141.758 234.879 143.6C234.798 144.905 234.572 146.211 234.29 147.492C233.079 152.999 230.636 158.004 227.873 162.869C226.034 166.107 224.082 169.277 221.921 172.313C221.218 173.303 220.306 173.954 219.028 173.965C217.512 173.979 216.579 173.293 216.068 171.845C215.735 170.911 215.764 169.953 215.76 168.896H215.762Z" fill="#F8F3EC"/>
</svg>
