<svg width="390" height="260" viewBox="0 0 390 260" fill="none" xmlns="http://www.w3.org/2000/svg">
<path d="M194.824 142.883C199.782 142.883 203.8 138.864 203.8 133.907C203.8 128.95 199.782 124.931 194.824 124.931C189.867 124.931 185.849 128.95 185.849 133.907C185.849 138.864 189.867 142.883 194.824 142.883Z" fill="#F8F3EC"/>
<path d="M140.976 142.883C145.933 142.883 149.952 138.864 149.952 133.907C149.952 128.95 145.933 124.931 140.976 124.931C136.019 124.931 132 128.95 132 133.907C132 138.864 136.019 142.883 140.976 142.883Z" fill="#F8F3EC"/>
<path d="M165.102 139.37C168.117 137.197 168.8 132.991 166.627 129.975C164.454 126.96 160.248 126.277 157.232 128.45C154.217 130.623 153.534 134.83 155.707 137.845C157.88 140.86 162.087 141.543 165.102 139.37Z" fill="#F8F3EC"/>
<path d="M176.873 138.394C179.351 138.394 181.36 136.385 181.36 133.907C181.36 131.429 179.351 129.42 176.873 129.42C174.395 129.42 172.387 131.429 172.387 133.907C172.387 136.385 174.395 138.394 176.873 138.394Z" fill="#F8F3EC"/>
<path d="M212.774 138.394C215.252 138.394 217.26 136.385 217.26 133.907C217.26 131.429 215.252 129.42 212.774 129.42C210.296 129.42 208.287 131.429 208.287 133.907C208.287 136.385 210.296 138.394 212.774 138.394Z" fill="#F8F3EC"/>
<path d="M228.483 140.639C232.202 140.639 235.216 137.625 235.216 133.907C235.216 130.189 232.202 127.175 228.483 127.175C224.765 127.175 221.751 130.189 221.751 133.907C221.751 137.625 224.765 140.639 228.483 140.639Z" fill="#F8F3EC"/>
<path d="M248.675 142.883C253.632 142.883 257.651 138.864 257.651 133.907C257.651 128.95 253.632 124.931 248.675 124.931C243.718 124.931 239.699 128.95 239.699 133.907C239.699 138.864 243.718 142.883 248.675 142.883Z" fill="#F8F3EC"/>
<path d="M194.824 190C196.063 190 197.068 188.996 197.068 187.757C197.068 186.518 196.063 185.513 194.824 185.513C193.585 185.513 192.581 186.518 192.581 187.757C192.581 188.996 193.585 190 194.824 190Z" fill="#F8F3EC"/>
<path d="M194.826 178.781C197.303 178.781 199.312 176.772 199.312 174.294C199.312 171.816 197.303 169.807 194.826 169.807C192.348 169.807 190.339 171.816 190.339 174.294C190.339 176.772 192.348 178.781 194.826 178.781Z" fill="#F8F3EC"/>
<path d="M193.311 149.785C189.689 150.621 187.431 154.235 188.267 157.857C189.102 161.479 192.717 163.737 196.339 162.901C199.961 162.065 202.218 158.45 201.383 154.829C200.547 151.207 196.932 148.949 193.311 149.785Z" fill="#F8F3EC"/>
<path d="M160.167 166.665C160.776 161.745 157.281 157.264 152.361 156.656C147.441 156.047 142.96 159.542 142.352 164.462C141.743 169.382 145.238 173.863 150.158 174.471C155.078 175.08 159.559 171.585 160.167 166.665Z" fill="#F8F3EC"/>
<path d="M169.929 160.005C173.417 158.716 175.2 154.844 173.911 151.356C172.622 147.868 168.75 146.086 165.262 147.374C161.775 148.663 159.992 152.535 161.281 156.023C162.57 159.511 166.442 161.293 169.929 160.005Z" fill="#F8F3EC"/>
<path d="M177.665 140.826C175.659 142.282 175.216 145.09 176.672 147.093C178.128 149.099 180.935 149.542 182.939 148.086C184.945 146.63 185.388 143.823 183.932 141.819C182.476 139.813 179.668 139.37 177.665 140.826Z" fill="#F8F3EC"/>
<path d="M212.977 120.718C211.521 118.712 208.713 118.269 206.71 119.725C204.704 121.181 204.26 123.989 205.716 125.992C207.172 127.998 209.98 128.442 211.984 126.986C213.99 125.53 214.433 122.722 212.977 120.718Z" fill="#F8F3EC"/>
<path d="M224.008 120.567C227.565 119.487 229.572 115.728 228.491 112.172C227.411 108.615 223.652 106.608 220.096 107.689C216.539 108.769 214.532 112.528 215.613 116.084C216.693 119.641 220.452 121.648 224.008 120.567Z" fill="#F8F3EC"/>
<path d="M247.329 103.019C247.753 98.0801 244.092 93.7329 239.153 93.3095C234.214 92.8861 229.867 96.5467 229.443 101.486C229.02 106.425 232.681 110.772 237.62 111.195C242.559 111.619 246.906 107.958 247.329 103.019Z" fill="#F8F3EC"/>
<path d="M201.967 121.034C204.282 120.152 205.445 117.56 204.564 115.244C203.682 112.928 201.09 111.766 198.774 112.647C196.458 113.529 195.296 116.121 196.177 118.437C197.059 120.752 199.651 121.915 201.967 121.034Z" fill="#F8F3EC"/>
<path d="M203.145 108.298C206.68 109.446 210.478 107.513 211.627 103.976C212.775 100.441 210.839 96.6424 207.305 95.494C203.77 94.3457 199.971 96.279 198.823 99.816C197.675 103.351 199.611 107.149 203.145 108.298Z" fill="#F8F3EC"/>
<path d="M214.064 91.2888C218.809 89.8543 221.493 84.8448 220.058 80.0997C218.624 75.3546 213.614 72.6708 208.869 74.1052C204.124 75.5397 201.44 80.5492 202.875 85.2943C204.309 90.0394 209.319 92.7232 214.064 91.2888Z" fill="#F8F3EC"/>
<path d="M152.663 111.119C157.559 110.344 160.899 105.746 160.124 100.85C159.348 95.9537 154.751 92.6133 149.855 93.3887C144.958 94.1642 141.618 98.762 142.393 103.658C143.169 108.554 147.767 111.895 152.663 111.119Z" fill="#F8F3EC"/>
<path d="M163.639 119.57C166.646 121.755 170.856 121.089 173.041 118.08C175.227 115.074 174.56 110.863 171.552 108.678C168.545 106.493 164.335 107.159 162.149 110.168C159.964 113.174 160.63 117.385 163.639 119.57Z" fill="#F8F3EC"/>
<path d="M180.787 127.814C183.25 127.547 185.031 125.333 184.765 122.87C184.498 120.406 182.284 118.626 179.821 118.892C177.357 119.159 175.577 121.372 175.843 123.836C176.11 126.299 178.323 128.08 180.787 127.814Z" fill="#F8F3EC"/>
<path d="M213.829 144.661C213.941 142.185 212.025 140.088 209.55 139.976C207.074 139.864 204.977 141.78 204.865 144.255C204.753 146.73 206.669 148.828 209.144 148.94C211.62 149.052 213.717 147.136 213.829 144.661Z" fill="#F8F3EC"/>
<path d="M226.012 148.244C223.005 146.059 218.795 146.725 216.609 149.734C214.424 152.74 215.09 156.951 218.099 159.136C221.106 161.321 225.316 160.655 227.501 157.646C229.687 154.64 229.02 150.429 226.012 148.244Z" fill="#F8F3EC"/>
<path d="M246.379 169.637C248.637 165.223 246.889 159.815 242.476 157.558C238.062 155.301 232.654 157.048 230.397 161.462C228.14 165.875 229.887 171.283 234.301 173.54C238.714 175.798 244.122 174.05 246.379 169.637Z" fill="#F8F3EC"/>
<path d="M184.531 89.0405C188.036 85.5353 188.036 79.8522 184.531 76.3469C181.025 72.8417 175.342 72.8417 171.837 76.3469C168.332 79.8522 168.332 85.5353 171.837 89.0405C175.342 92.5458 181.025 92.5458 184.531 89.0405Z" fill="#F8F3EC"/>
<path d="M187.476 107.901C190.79 106.215 192.109 102.161 190.423 98.8475C188.737 95.5336 184.683 94.2142 181.369 95.9005C178.056 97.5868 176.736 101.64 178.422 104.954C180.109 108.268 184.162 109.587 187.476 107.901Z" fill="#F8F3EC"/>
<path d="M190.663 121.104C193.02 120.338 194.309 117.806 193.544 115.449C192.778 113.092 190.247 111.803 187.889 112.569C185.532 113.334 184.243 115.866 185.009 118.223C185.774 120.58 188.306 121.869 190.663 121.104Z" fill="#F8F3EC"/>
</svg>
