<svg width="390" height="260" viewBox="0 0 390 260" fill="none" xmlns="http://www.w3.org/2000/svg">
<path d="M67.3983 135.136H84.2095C87.3318 135.136 90.0104 134.594 92.2453 133.509C94.4802 132.424 96.1975 130.929 97.3971 129.023C98.5967 127.1 99.1966 124.89 99.1966 122.392V122.343C99.1966 119.796 98.5967 117.569 97.3971 115.663C96.1975 113.757 94.4802 112.278 92.2453 111.226C90.0104 110.158 87.3318 109.624 84.2095 109.624H67.3983V117.389H82.3854C84.2916 117.389 85.7542 117.824 86.7731 118.695C87.7919 119.549 88.3013 120.798 88.3013 122.442V122.491C88.3013 124.134 87.7919 125.391 86.7731 126.262C85.7542 127.133 84.2916 127.569 82.3854 127.569H67.3983V135.136ZM62 145.193H72.772V109.624H62V145.193Z" fill="#F8F3EC"/>
<path d="M102.721 145.193H113.124V133.484C113.124 131.743 113.436 130.313 114.06 129.195C114.701 128.078 115.597 127.256 116.747 126.731C117.895 126.443 119.097 126.443 120.78 126.443C121.372 126.443 121.982 126.443 122.703 126.443C123.665 126.443 123.184 126.443 124.142 126.443V117.789C123.184 117.789 124.146 117.789 122.703 117.789C121.261 117.789 121.77 117.789 121.261 117.789C119.157 117.789 117.353 118.179 115.972 119.231C114.592 120.283 113.837 120.641 113.328 122.596H113.124V117.789H102.721V145.193Z" fill="#F8F3EC"/>
<path d="M142.703 145.858C144.906 145.858 146.919 145.645 148.743 145.217C150.583 144.79 152.21 144.182 153.623 143.393C155.037 142.605 156.203 141.66 157.124 140.559C158.06 139.441 158.709 138.201 159.071 136.837L159.12 136.566H149.581L149.507 136.713C149.178 137.256 148.702 137.732 148.077 138.143C147.453 138.554 146.713 138.874 145.859 139.104C145.004 139.318 144.067 139.425 143.049 139.425C141.455 139.425 140.066 139.195 138.883 138.735C137.7 138.275 136.779 137.535 136.122 136.516C135.465 135.497 135.136 134.166 135.136 132.523V130.995C135.136 129.532 135.432 128.3 136.023 127.297C136.615 126.295 137.469 125.539 138.587 125.03C139.704 124.52 141.052 124.266 142.63 124.266C144.158 124.266 145.456 124.529 146.524 125.054C147.592 125.58 148.406 126.328 148.965 127.297C149.523 128.267 149.803 129.434 149.803 130.798V132.523L152.711 128.9H130.526V133.953L159.49 133.977V132.104C159.49 129.212 158.792 126.698 157.395 124.561C155.998 122.425 154.018 120.765 151.454 119.582C148.907 118.399 145.875 117.808 142.358 117.808C138.94 117.791 135.933 118.35 133.337 119.484C130.757 120.618 128.743 122.244 127.297 124.364C125.851 126.468 125.128 128.982 125.128 131.907V131.931C125.128 134.873 125.835 137.379 127.248 139.449C128.678 141.52 130.707 143.106 133.337 144.207C135.966 145.308 139.088 145.858 142.703 145.858Z" fill="#F8F3EC"/>
<path d="M179.678 145.858C181.88 145.858 183.893 145.645 185.717 145.217C187.558 144.79 189.185 144.182 190.598 143.393C192.011 142.605 193.178 141.66 194.098 140.559C195.035 139.441 195.684 138.201 196.046 136.837L196.095 136.566H186.555L186.481 136.713C186.153 137.256 185.676 137.732 185.052 138.143C184.427 138.554 183.688 138.874 182.833 139.104C181.979 139.318 181.042 139.425 180.023 139.425C178.429 139.425 177.041 139.195 175.857 138.735C174.674 138.275 173.754 137.535 173.097 136.516C172.439 135.497 172.111 134.166 172.111 132.523V130.995C172.111 129.532 172.406 128.3 172.998 127.297C173.59 126.295 174.444 125.539 175.562 125.03C176.679 124.52 178.027 124.266 179.604 124.266C181.132 124.266 182.431 124.529 183.499 125.054C184.567 125.58 185.38 126.328 185.939 127.297C186.498 128.267 186.777 129.434 186.777 130.798V132.523L189.686 128.9H167.501V133.953L196.465 133.977V132.104C196.465 129.212 195.766 126.698 194.369 124.561C192.973 122.425 190.992 120.765 188.429 119.582C185.882 118.399 182.85 117.808 179.333 117.808C175.915 117.791 172.908 118.35 170.311 119.484C167.731 120.618 165.718 122.244 164.272 124.364C162.826 126.468 162.103 128.982 162.103 131.907V131.931C162.103 134.873 162.809 137.379 164.223 139.449C165.652 141.52 167.682 143.106 170.311 144.207C172.941 145.308 176.063 145.858 179.678 145.858Z" fill="#F8F3EC"/>
<path d="M205.93 135.136H222.741C225.864 135.136 228.542 134.594 230.777 133.509C233.012 132.424 234.729 130.929 235.929 129.023C237.129 127.1 237.728 124.89 237.728 122.392V122.343C237.728 119.796 237.129 117.569 235.929 115.663C234.729 113.757 233.012 112.278 230.777 111.226C228.542 110.158 225.864 109.624 222.741 109.624H205.93V117.389H220.917C222.824 117.389 224.286 117.824 225.305 118.695C226.324 119.549 226.833 120.798 226.833 122.442V122.491C226.833 124.134 226.324 125.391 225.305 126.262C224.286 127.133 222.824 127.569 220.917 127.569H205.93V135.136ZM200.532 145.193H211.304V109.624H200.532V145.193Z" fill="#F8F3EC"/>
<path d="M250.201 145.587C251.828 145.587 253.315 145.406 254.663 145.045C256.027 144.683 257.218 144.157 258.237 143.467C259.256 142.761 260.078 141.931 260.702 140.978H260.85V145.193H271.277V128.382C271.277 126.164 270.636 124.266 269.354 122.688C268.089 121.094 266.273 119.878 263.907 119.04C261.54 118.202 258.714 117.783 255.427 117.783C252.305 117.783 249.651 118.177 247.465 118.966C245.296 119.755 243.579 120.848 242.313 122.244C241.064 123.625 240.276 125.219 239.947 127.026L239.898 127.322H249.61L249.684 127.125C249.93 126.32 250.505 125.671 251.409 125.178C252.313 124.685 253.562 124.438 255.156 124.438C257.013 124.438 258.426 124.783 259.396 125.473C260.365 126.164 260.85 127.125 260.85 128.357V134.594C260.85 135.58 260.554 136.434 259.963 137.157C259.371 137.88 258.533 138.439 257.448 138.833C256.364 139.228 255.074 139.425 253.578 139.425C252.099 139.425 250.908 139.195 250.004 138.735C249.117 138.275 248.673 137.568 248.673 136.615V136.566C248.673 135.81 248.993 135.218 249.634 134.791C250.292 134.364 251.327 134.133 252.74 134.101L266.125 133.805V128.875L250.941 129.171C247.999 129.237 245.616 129.606 243.792 130.28C241.968 130.954 240.629 131.882 239.774 133.065C238.936 134.249 238.517 135.629 238.517 137.206V137.256C238.517 139.014 238.994 140.518 239.947 141.766C240.916 142.999 242.272 143.944 244.014 144.601C245.756 145.258 247.818 145.587 250.201 145.587Z" fill="#F8F3EC"/>
<path d="M282.325 153.847C285.037 153.847 287.406 153.887 289.394 153.181C291.383 152.491 293.133 151.34 294.645 149.73C296.157 148.12 297.545 145.975 298.811 143.297L310.125 118.623H299.402L291.613 138.515L292.993 137.085H291.194L292.55 138.515L284.292 118.623H273.298L285.943 144.874L285.598 145.416C285.122 146.024 284.473 146.468 283.651 146.747C282.846 147.027 281.967 147.116 280.883 147.116C280.16 147.116 279.812 147.116 278.719 147.116C277.036 147.116 273.43 147.116 271.267 147.116V153.847C271.988 153.847 278.238 153.847 279.2 153.847C280.119 153.847 281.224 153.847 282.325 153.847Z" fill="#F8F3EC"/>
<path d="M315.98 100H302.518V104.808H313.576C318.887 104.808 323.192 109.113 323.192 114.423V125.481H328V112.019C328 105.381 322.619 100 315.98 100Z" fill="#F8F3EC"/>
<path d="M313.576 107.212H304.922V111.058H312.134C314.789 111.058 316.942 113.21 316.942 115.866V123.077H320.788V114.423C320.788 110.44 317.559 107.212 313.576 107.212Z" fill="#F8F3EC"/>
<path d="M306.365 113.462H312.134C313.462 113.462 314.538 114.538 314.538 115.866V122.116H311.653V117.789C311.653 117.258 311.223 116.827 310.692 116.827H306.365V113.462Z" fill="#F8F3EC"/>
<path d="M168.165 159.359C166.341 159.786 164.328 160 162.125 160C158.51 160 155.388 159.45 152.759 158.349C150.129 157.248 148.1 155.662 146.67 153.591C145.627 152.063 144.969 150.298 144.696 148.295H154.682C154.832 149.213 155.12 150.001 155.544 150.658C156.201 151.677 157.122 152.416 158.305 152.876C159.488 153.337 160.877 153.567 162.471 153.567C163.489 153.567 164.426 153.46 165.281 153.246C166.135 153.016 166.875 152.696 167.499 152.285C168.124 151.874 168.6 151.397 168.929 150.855L169.003 150.707H178.542L178.493 150.978C178.131 152.342 177.482 153.583 176.546 154.7C175.625 155.801 174.459 156.746 173.045 157.535C171.632 158.324 170.005 158.932 168.165 159.359Z" fill="#F8F3EC"/>
</svg>
