<svg width="390" height="260" viewBox="0 0 390 260" fill="none" xmlns="http://www.w3.org/2000/svg">
<path fill-rule="evenodd" clip-rule="evenodd" d="M114.939 130C114.939 146.569 101.521 160 84.9694 160C76.9884 160 69.7361 156.877 64.3653 151.786C67.7241 152.654 71.2474 152.734 74.6579 152.008C78.7126 151.146 82.45 149.177 85.4569 146.321C87.9186 143.982 89.8122 141.123 91.0066 137.964C91.446 136.802 90.7238 135.563 89.5247 135.241C88.3257 134.919 87.1061 135.639 86.6379 136.79C85.677 139.151 84.2224 141.29 82.3624 143.057C79.9569 145.342 76.967 146.916 73.7233 147.607C70.4795 148.297 67.1083 148.076 63.9823 146.968C61.8874 146.225 59.9574 145.103 58.284 143.668C56.1846 139.569 55 134.923 55 130C55 113.431 68.4178 100 84.9694 100C101.521 100 114.939 113.431 114.939 130ZM72.9816 124C76.292 124 78.9755 121.314 78.9755 118C78.9755 114.686 76.292 112 72.9816 112C69.6713 112 66.9878 114.686 66.9878 118C66.9878 121.314 69.6713 124 72.9816 124Z" fill="#F8F3EC"/>
<path d="M124.429 142.384V108.4H132.197V135.232H148.932V142.384H124.429Z" fill="#F8F3EC"/>
<path d="M164.774 142.768C162.248 142.768 159.995 142.256 158.013 141.232C156.063 140.208 154.528 138.736 153.409 136.816C152.291 134.864 151.731 132.528 151.731 129.808C151.731 127.024 152.291 124.656 153.409 122.704C154.56 120.72 156.111 119.216 158.061 118.192C160.011 117.136 162.216 116.608 164.678 116.608C167.171 116.608 169.377 117.152 171.295 118.24C173.213 119.296 174.732 120.816 175.851 122.8C176.969 124.752 177.529 127.12 177.529 129.904C177.529 132.624 176.985 134.944 175.899 136.864C174.844 138.784 173.357 140.256 171.439 141.28C169.521 142.272 167.299 142.768 164.774 142.768ZM164.63 135.712C165.973 135.712 167.044 135.424 167.843 134.848C168.642 134.272 169.201 133.536 169.521 132.64C169.873 131.744 170.048 130.816 170.048 129.856C170.048 128.896 169.873 127.936 169.521 126.976C169.201 126.016 168.642 125.232 167.843 124.624C167.076 123.984 166.005 123.664 164.63 123.664C163.287 123.664 162.216 123.984 161.417 124.624C160.618 125.232 160.043 126.016 159.691 126.976C159.339 127.904 159.164 128.864 159.164 129.856C159.164 130.816 159.339 131.76 159.691 132.688C160.075 133.584 160.65 134.32 161.417 134.896C162.216 135.44 163.287 135.712 164.63 135.712Z" fill="#F8F3EC"/>
<path d="M181.442 142.384V117.088H188.491L188.922 119.68C189.658 118.848 190.473 118.208 191.368 117.76C192.295 117.312 193.206 117.008 194.101 116.848C195.028 116.688 195.827 116.608 196.499 116.608C198.896 116.608 200.766 117.152 202.109 118.24C203.484 119.296 204.459 120.72 205.034 122.512C205.609 124.304 205.897 126.272 205.897 128.416V142.384H198.321V129.232C198.321 128.56 198.257 127.904 198.129 127.264C198.001 126.592 197.777 125.984 197.458 125.44C197.17 124.864 196.754 124.416 196.211 124.096C195.668 123.744 194.964 123.568 194.101 123.568C192.982 123.568 192.039 123.84 191.272 124.384C190.505 124.928 189.945 125.664 189.594 126.592C189.242 127.488 189.066 128.496 189.066 129.616V142.384H181.442Z" fill="#F8F3EC"/>
<path d="M223.225 154.192C221.18 154.192 219.277 153.856 217.519 153.184C215.793 152.544 214.339 151.52 213.156 150.112C211.973 148.704 211.174 146.88 210.758 144.64H218.478C218.67 145.184 218.974 145.648 219.389 146.032C219.837 146.416 220.38 146.704 221.02 146.896C221.659 147.12 222.362 147.232 223.13 147.232C224.568 147.232 225.655 146.928 226.39 146.32C227.157 145.712 227.669 144.896 227.925 143.872C228.212 142.88 228.356 141.824 228.356 140.704V139.456C227.749 140.384 227.014 141.072 226.15 141.52C225.319 141.968 224.44 142.272 223.513 142.432C222.618 142.624 221.787 142.72 221.02 142.72C218.334 142.72 216.145 142.128 214.45 140.944C212.788 139.76 211.573 138.208 210.806 136.288C210.071 134.336 209.703 132.256 209.703 130.048C209.703 127.584 210.151 125.344 211.046 123.328C211.941 121.28 213.252 119.664 214.978 118.48C216.736 117.264 218.91 116.656 221.499 116.656C223.066 116.656 224.408 116.912 225.527 117.424C226.678 117.904 227.669 118.576 228.5 119.44L229.171 117.088H236.076V138.16C236.076 141.488 235.677 144.336 234.878 146.704C234.11 149.104 232.784 150.944 230.898 152.224C229.043 153.536 226.486 154.192 223.225 154.192ZM222.794 135.904C224.105 135.904 225.175 135.616 226.007 135.04C226.838 134.464 227.461 133.696 227.877 132.736C228.292 131.776 228.5 130.752 228.5 129.664C228.5 128.512 228.292 127.472 227.877 126.544C227.493 125.616 226.886 124.88 226.055 124.336C225.255 123.76 224.216 123.472 222.938 123.472C221.499 123.472 220.364 123.808 219.533 124.48C218.702 125.152 218.111 125.984 217.759 126.976C217.439 127.936 217.279 128.896 217.279 129.856C217.279 130.88 217.455 131.856 217.807 132.784C218.159 133.712 218.734 134.464 219.533 135.04C220.364 135.616 221.451 135.904 222.794 135.904Z" fill="#F8F3EC"/>
<path d="M249.063 142.384V115.6H238.85V108.4H267.141V115.6H256.831V142.384H249.063Z" fill="#F8F3EC"/>
<path d="M269.852 142.384V108.4H277.476V119.728C278.211 118.864 279.042 118.208 279.969 117.76C280.896 117.312 281.808 117.008 282.703 116.848C283.63 116.688 284.429 116.608 285.1 116.608C287.434 116.608 289.272 117.152 290.615 118.24C291.957 119.296 292.9 120.72 293.444 122.512C294.019 124.304 294.307 126.272 294.307 128.416V142.384H286.731V129.232C286.731 128.624 286.667 127.984 286.539 127.312C286.411 126.64 286.171 126.032 285.819 125.488C285.5 124.912 285.052 124.448 284.477 124.096C283.901 123.744 283.15 123.568 282.223 123.568C281.36 123.568 280.609 123.744 279.969 124.096C279.362 124.416 278.867 124.864 278.483 125.44C278.131 126.016 277.876 126.672 277.716 127.408C277.556 128.112 277.476 128.832 277.476 129.568V142.384H269.852Z" fill="#F8F3EC"/>
<path d="M307.08 142.768C305.897 142.768 304.778 142.608 303.723 142.288C302.668 141.968 301.725 141.488 300.894 140.848C300.063 140.208 299.408 139.408 298.928 138.448C298.449 137.488 298.209 136.368 298.209 135.088C298.209 133.264 298.576 131.824 299.312 130.768C300.079 129.68 301.102 128.88 302.381 128.368C303.691 127.824 305.178 127.472 306.84 127.312C308.502 127.152 310.229 127.072 312.019 127.072H314.416C314.416 126.272 314.256 125.584 313.937 125.008C313.649 124.4 313.202 123.92 312.594 123.568C311.987 123.216 311.236 123.04 310.34 123.04C309.701 123.04 309.094 123.136 308.518 123.328C307.975 123.488 307.511 123.728 307.128 124.048C306.776 124.336 306.536 124.704 306.408 125.152H298.784C299.008 123.648 299.472 122.368 300.175 121.312C300.91 120.224 301.805 119.344 302.86 118.672C303.947 118 305.162 117.504 306.504 117.184C307.847 116.832 309.222 116.656 310.628 116.656C314.336 116.656 317.102 117.696 318.924 119.776C320.746 121.856 321.657 124.864 321.657 128.8V142.384H314.704L314.656 139.072C313.857 140.288 312.946 141.152 311.923 141.664C310.9 142.176 309.941 142.48 309.046 142.576C308.151 142.704 307.495 142.768 307.08 142.768ZM308.998 136.864C309.957 136.864 310.852 136.656 311.683 136.24C312.514 135.792 313.186 135.232 313.697 134.56C314.24 133.856 314.512 133.104 314.512 132.304V131.92H309.813C309.301 131.92 308.79 131.952 308.279 132.016C307.799 132.08 307.367 132.208 306.984 132.4C306.6 132.56 306.297 132.8 306.073 133.12C305.849 133.44 305.737 133.856 305.737 134.368C305.737 134.912 305.881 135.376 306.169 135.76C306.456 136.112 306.84 136.384 307.32 136.576C307.831 136.768 308.39 136.864 308.998 136.864Z" fill="#F8F3EC"/>
<path d="M326.513 142.384V117.088H334.137V142.384H326.513ZM330.349 114.976C328.942 114.976 327.807 114.56 326.944 113.728C326.113 112.896 325.697 111.808 325.697 110.464C325.697 109.088 326.145 107.968 327.04 107.104C327.935 106.24 329.054 105.808 330.397 105.808C331.675 105.808 332.762 106.224 333.657 107.056C334.552 107.888 335 109.008 335 110.416C335 111.792 334.568 112.896 333.705 113.728C332.842 114.56 331.723 114.976 330.349 114.976Z" fill="#F8F3EC"/>
</svg>
