<svg width="390" height="260" viewBox="0 0 390 260" fill="none" xmlns="http://www.w3.org/2000/svg">
<g clip-path="url(#clip0_126_37981)">
<path d="M163.902 99.6956V99.8269H162.244L160.176 97.094L159.585 97.7177V99.5315C159.755 99.5588 159.976 99.6135 160.25 99.6956V99.8269H157.812V99.6874C157.988 99.6382 158.206 99.5835 158.469 99.5233V94.3857C158.289 94.3583 158.07 94.3036 157.812 94.2216V94.082H160.25V94.2298C160.152 94.2735 160.027 94.3091 159.877 94.3364C159.726 94.3638 159.629 94.383 159.585 94.3939V97.0858L162.105 94.4185C162.05 94.3857 161.973 94.3597 161.875 94.3406C161.776 94.3214 161.714 94.3091 161.686 94.3036C161.621 94.2981 161.547 94.2845 161.465 94.2626V94.082H163.287V94.2626C163.254 94.2735 163.199 94.2845 163.122 94.2954C163.106 94.3009 163.049 94.3132 162.95 94.3323C162.852 94.3515 162.764 94.3884 162.687 94.4431L160.824 96.4128L163.196 99.5315C163.388 99.5643 163.623 99.619 163.902 99.6956Z" fill="#CCCCCC"/>
<path d="M172.15 94.3159C172.003 94.3624 171.877 94.3912 171.773 94.4021V99.5315C172.024 99.5807 172.243 99.6382 172.429 99.7038V99.8269H170.033V99.7202C170.23 99.6218 170.44 99.5561 170.665 99.5233V97.1022H168.047V99.5315C168.298 99.5862 168.509 99.6436 168.679 99.7038V99.8269H166.282V99.6874C166.583 99.5944 166.799 99.5397 166.931 99.5233V94.3857C166.679 94.3364 166.463 94.279 166.282 94.2133V94.082H168.679V94.2051C168.515 94.2927 168.304 94.3556 168.047 94.3939V96.7247H170.665V94.3775C170.484 94.3501 170.274 94.2954 170.033 94.2133V94.082H172.429V94.2298C172.391 94.2407 172.298 94.2694 172.15 94.3159Z" fill="#CCCCCC"/>
<path d="M175.655 98.0378V94.3857C175.376 94.331 175.157 94.2735 174.998 94.2133V94.082H177.427V94.2298C177.296 94.2735 177.077 94.3282 176.771 94.3939V98.1445C176.771 98.6424 176.913 98.9967 177.198 99.2073C177.482 99.4179 177.857 99.5233 178.322 99.5233C178.787 99.5233 179.148 99.4138 179.438 99.195C179.728 98.9761 179.873 98.626 179.873 98.1445V94.3775C179.638 94.3447 179.416 94.2899 179.208 94.2133V94.082H180.997V94.2133C180.696 94.3173 180.475 94.3775 180.333 94.3939V98.0378C180.333 98.6615 180.14 99.1293 179.754 99.4412C179.368 99.7531 178.798 99.909 178.043 99.909C176.451 99.909 175.655 99.2853 175.655 98.0378Z" fill="#CCCCCC"/>
<path d="M188.236 98.4728L188.097 99.8269H183.566V99.6956C183.835 99.6026 184.067 99.5452 184.264 99.5233V94.3857C184.056 94.3529 183.824 94.2954 183.566 94.2133V94.082H188.105V95.4526H187.859C187.804 95.3651 187.745 95.2078 187.682 94.9807C187.619 94.7536 187.582 94.5799 187.571 94.4596H185.38V96.8068H186.898C186.909 96.7137 186.93 96.5988 186.96 96.4621C186.99 96.3253 187.024 96.2076 187.063 96.1092H187.243V97.8819H187.063C187.024 97.7779 186.99 97.6589 186.96 97.5249C186.93 97.3908 186.909 97.2773 186.898 97.1843H185.38V99.4658H187.612C187.623 99.3345 187.673 99.1594 187.76 98.9406C187.848 98.7217 187.924 98.5658 187.99 98.4728H188.236Z" fill="#CCCCCC"/>
<path d="M190.912 99.7038C191.087 99.6436 191.303 99.5889 191.56 99.5397V94.3857C191.281 94.331 191.062 94.2735 190.903 94.2133V94.082H192.701L195.663 98.4728V94.3775C195.423 94.3282 195.207 94.2735 195.015 94.2133V94.082H196.788V94.2133C196.591 94.2735 196.372 94.3282 196.131 94.3775V99.8269H195.548L192.028 94.6565V99.5397C192.274 99.5889 192.49 99.6436 192.676 99.7038V99.8269H190.912V99.7038Z" fill="#CCCCCC"/>
<path d="M203.534 99.7038C203.813 99.5999 204.035 99.537 204.199 99.5151V94.3857C203.964 94.3474 203.742 94.2927 203.534 94.2216V94.082H206.103C206.798 94.082 207.296 94.1928 207.597 94.4144C207.898 94.636 208.048 94.9739 208.048 95.428C208.048 95.7344 207.959 96.012 207.781 96.261C207.603 96.5099 207.342 96.6782 206.998 96.7657V96.815C207.446 96.9025 207.773 97.0817 207.978 97.3525C208.183 97.6234 208.286 97.9202 208.286 98.243C208.286 98.7737 208.136 99.1704 207.835 99.433C207.534 99.6956 207.041 99.8269 206.357 99.8269H203.534V99.7038ZM205.931 96.6262C206.259 96.6262 206.508 96.525 206.677 96.3225C206.847 96.1201 206.932 95.8411 206.932 95.4854C206.932 95.1298 206.855 94.8699 206.702 94.7058C206.549 94.5416 206.303 94.4596 205.963 94.4596H205.307V96.6262H205.931ZM206.218 99.4658C206.863 99.4658 207.186 99.0445 207.186 98.2019C207.186 97.8135 207.093 97.5153 206.907 97.3074C206.721 97.0995 206.456 96.9955 206.111 96.9955H205.307V99.4658H206.218Z" fill="#CCCCCC"/>
<path d="M211.539 99.1253C211.061 98.6028 210.821 97.8792 210.821 96.9545C210.821 96.0299 211.061 95.3063 211.539 94.7838C212.018 94.2613 212.706 94 213.603 94C214.501 94 215.183 94.2613 215.668 94.7838C216.152 95.3063 216.394 96.0299 216.394 96.9545C216.394 97.8792 216.152 98.6028 215.668 99.1253C215.183 99.6478 214.495 99.909 213.603 99.909C212.712 99.909 212.018 99.6478 211.539 99.1253ZM214.851 98.8257C215.13 98.3607 215.269 97.7369 215.269 96.9545C215.269 96.1721 215.129 95.5552 214.847 95.0874C214.565 94.6196 214.151 94.3857 213.603 94.3857C213.056 94.3857 212.643 94.6196 212.364 95.0874C212.085 95.5552 211.946 96.1776 211.946 96.9545C211.946 97.7314 212.085 98.3607 212.364 98.8257C212.643 99.2908 213.056 99.5233 213.603 99.5233C214.151 99.5233 214.572 99.2908 214.851 98.8257Z" fill="#CCCCCC"/>
<path d="M219.739 99.1253C219.26 98.6028 219.021 97.8792 219.021 96.9545C219.021 96.0299 219.26 95.3063 219.739 94.7838C220.217 94.2613 220.905 94 221.803 94C222.7 94 223.383 94.2613 223.867 94.7838C224.351 95.3063 224.593 96.0299 224.593 96.9545C224.593 97.8792 224.351 98.6028 223.867 99.1253C223.383 99.6478 222.695 99.909 221.803 99.909C220.911 99.909 220.217 99.6478 219.739 99.1253ZM223.05 98.8257C223.329 98.3607 223.469 97.7369 223.469 96.9545C223.469 96.1721 223.328 95.5552 223.046 95.0874C222.764 94.6196 222.35 94.3857 221.803 94.3857C221.256 94.3857 220.842 94.6196 220.563 95.0874C220.284 95.5552 220.145 96.1776 220.145 96.9545C220.145 97.7314 220.284 98.3607 220.563 98.8257C220.842 99.2908 221.256 99.5233 221.803 99.5233C222.35 99.5233 222.771 99.2908 223.05 98.8257Z" fill="#CCCCCC"/>
<path d="M227.211 99.7038C227.386 99.6436 227.603 99.5889 227.86 99.5397V94.3857C227.581 94.331 227.362 94.2735 227.203 94.2133V94.082H229L231.963 98.4728V94.3775C231.722 94.3282 231.506 94.2735 231.315 94.2133V94.082H233.088V94.2133C232.891 94.2735 232.672 94.3282 232.431 94.3775V99.8269H231.848L228.327 94.6565V99.5397C228.574 99.5889 228.79 99.6436 228.976 99.7038V99.8269H227.211V99.7038Z" fill="#CCCCCC"/>
<path d="M125.478 155.075C125.274 155.075 125.019 155.068 124.712 155.053C124.406 155.038 124.165 155.003 123.99 154.947C123.261 154.804 122.78 154.549 122.546 154.179C122.312 153.81 122.167 153.256 122.108 152.516C122.079 152.175 122.057 151.813 122.042 151.428C122.029 151.044 122.02 150.533 122.02 149.894V137.083C122.02 135.519 121.926 134.155 121.739 132.99C121.551 131.825 121.285 130.795 120.938 129.899C120.592 129.003 120.189 128.236 119.727 127.597C119.266 126.957 118.775 126.382 118.256 125.871C117.467 125.159 116.626 124.598 115.734 124.187C114.842 123.775 113.972 123.47 113.124 123.27C112.276 123.072 111.509 122.95 110.821 122.908C110.134 122.865 109.6 122.844 109.22 122.844C108.577 122.844 107.889 122.879 107.159 122.95C106.428 123.021 105.683 123.17 104.922 123.397C104.162 123.625 103.38 123.945 102.575 124.356C101.771 124.768 100.974 125.315 100.186 125.998C99.3089 126.765 98.6072 127.639 98.0805 128.62C97.5539 129.601 97.1449 130.651 96.8522 131.775C96.5595 132.898 96.3694 134.049 96.2818 135.229C96.1943 136.408 96.1505 137.581 96.1505 138.746V149.895C96.1505 150.535 96.1437 151.047 96.1286 151.43C96.1218 151.615 96.1122 151.795 96.1026 151.97C96.0917 152.158 96.078 152.341 96.063 152.517C96.0343 152.877 95.9864 153.192 95.9207 153.464C95.851 153.751 95.7593 153.99 95.6472 154.179C95.4283 154.549 95.0275 154.804 94.4435 154.947C94.1808 155.003 93.9702 155.038 93.8088 155.053C93.6487 155.067 93.4955 155.075 93.3492 155.075C93.1153 155.075 92.999 155.16 92.999 155.331C92.999 155.558 93.2329 155.672 93.6994 155.672C94.0208 155.672 94.3778 155.665 94.7717 155.65C95.1657 155.635 95.5446 155.621 95.9098 155.607C96.275 155.592 96.5882 155.578 96.8509 155.565C97.1135 155.55 97.2886 155.543 97.3761 155.543C97.4349 155.543 97.6168 155.55 97.9232 155.565C98.2296 155.578 98.6017 155.592 99.0394 155.607C99.4771 155.621 99.9586 155.635 100.484 155.65C101.009 155.663 101.521 155.672 102.016 155.672C102.482 155.672 102.716 155.558 102.716 155.331C102.716 155.16 102.6 155.075 102.366 155.075C102.162 155.075 101.906 155.068 101.6 155.053C101.294 155.038 101.053 155.003 100.878 154.947C100.149 154.804 99.6672 154.549 99.4333 154.179C99.3636 154.07 99.3034 153.941 99.25 153.799C99.1228 153.462 99.038 153.036 98.9956 152.517C98.9874 152.415 98.9792 152.311 98.9724 152.204C98.9546 151.956 98.9409 151.698 98.93 151.43C98.9149 151.045 98.9081 150.534 98.9081 149.895V140.993C98.9505 140.993 98.9915 140.993 99.0339 140.993H106.706C107.097 140.993 107.409 140.997 107.644 141.006C107.878 141.014 108.1 141.026 108.309 141.044V138.76C108.101 138.776 107.88 138.788 107.644 138.798C107.411 138.806 107.097 138.81 106.706 138.81H98.9067V137.979C98.9067 135.761 99.075 133.771 99.4114 132.009C99.7479 130.246 100.428 128.754 101.451 127.532C102.241 126.623 103.25 125.884 104.478 125.315C105.706 124.746 106.993 124.463 108.338 124.463C109.596 124.463 110.744 124.605 111.782 124.89C112.82 125.173 113.88 125.813 114.962 126.809C115.43 127.236 115.869 127.739 116.28 128.323C116.69 128.906 117.04 129.609 117.333 130.434C117.626 131.257 117.851 132.231 118.013 133.354C118.174 134.477 118.255 135.805 118.255 137.34V149.895C118.255 150.535 118.248 151.047 118.233 151.43C118.218 151.814 118.196 152.175 118.167 152.517C118.11 153.256 117.97 153.825 117.751 154.223C117.533 154.621 117.132 154.863 116.548 154.948C116.285 155.004 116.073 155.04 115.913 155.055C115.753 155.068 115.6 155.076 115.453 155.076C115.22 155.076 115.103 155.161 115.103 155.332C115.103 155.559 115.337 155.673 115.804 155.673C116.125 155.673 116.511 155.666 116.964 155.651C117.416 155.636 117.859 155.622 118.294 155.609C118.729 155.594 119.119 155.58 119.467 155.566C119.813 155.551 120.029 155.544 120.116 155.544C120.204 155.544 120.427 155.551 120.788 155.566C121.149 155.58 121.569 155.594 122.048 155.609C122.527 155.622 123.035 155.636 123.576 155.651C124.116 155.665 124.633 155.673 125.129 155.673C125.597 155.673 125.83 155.559 125.83 155.332C125.83 155.161 125.714 155.076 125.48 155.076L125.478 155.075Z" fill="#E6E6E6"/>
<path d="M228.597 122.845C227.927 122.845 227.183 122.863 226.363 122.895C225.543 122.93 225.05 122.946 224.882 122.946C224.815 122.946 224.622 122.938 224.305 122.921C223.986 122.905 223.602 122.897 223.15 122.897C222.699 122.897 222.205 122.889 221.669 122.872C221.133 122.856 220.614 122.848 220.112 122.848C219.643 122.848 219.409 122.965 219.409 123.199C219.409 123.433 219.526 123.551 219.761 123.551C219.962 123.551 220.22 123.559 220.539 123.575C220.856 123.593 221.099 123.618 221.267 123.651C222.003 123.75 222.472 124.002 222.673 124.406C222.874 124.808 222.99 125.344 223.024 126.014C223.024 126.349 223.033 126.71 223.049 127.095C223.066 127.48 223.082 128 223.1 128.654C223.116 129.308 223.124 130.155 223.124 131.193V140.595C223.124 142.808 222.966 144.777 222.647 146.503C222.328 148.229 221.651 149.712 220.614 150.952C219.844 151.858 218.858 152.586 217.653 153.14C216.448 153.694 215.159 153.97 213.787 153.97C212.515 153.97 211.369 153.828 210.349 153.542C209.327 153.257 208.282 152.629 207.211 151.657C206.742 151.222 206.307 150.728 205.906 150.174C205.504 149.622 205.161 148.934 204.877 148.113C204.593 147.292 204.367 146.32 204.2 145.197C204.032 144.074 203.95 142.741 203.95 141.198V128.654C203.95 128 203.958 127.482 203.975 127.096C203.991 126.71 204.016 126.351 204.05 126.014C204.117 125.311 204.243 124.767 204.426 124.381C204.609 123.995 204.985 123.753 205.556 123.652C205.823 123.585 206.033 123.552 206.184 123.552H206.661C206.928 123.552 207.063 123.436 207.063 123.2C207.063 122.965 206.813 122.849 206.311 122.849C205.976 122.849 205.575 122.857 205.106 122.874C204.637 122.891 204.177 122.898 203.726 122.898C203.274 122.898 202.872 122.906 202.521 122.923C202.169 122.941 201.943 122.947 201.844 122.947C201.744 122.947 201.517 122.939 201.166 122.923C200.815 122.906 200.396 122.898 199.912 122.898C199.428 122.898 198.908 122.89 198.356 122.874C197.803 122.857 197.276 122.849 196.774 122.849C196.305 122.849 196.071 122.967 196.071 123.2C196.071 123.434 196.188 123.552 196.423 123.552C196.624 123.552 196.882 123.56 197.201 123.577C197.518 123.594 197.761 123.619 197.929 123.652C198.665 123.752 199.134 124.003 199.335 124.404C199.536 124.806 199.669 125.341 199.737 126.01C199.77 126.345 199.795 126.705 199.812 127.089C199.829 127.474 199.837 127.993 199.837 128.646V141.471C199.837 143.044 199.937 144.416 200.138 145.586C200.339 146.759 200.615 147.779 200.967 148.649C201.318 149.519 201.727 150.281 202.196 150.933C202.664 151.586 203.166 152.163 203.702 152.665C204.473 153.401 205.316 153.97 206.237 154.372C207.158 154.774 208.052 155.075 208.922 155.276C209.792 155.477 210.579 155.594 211.282 155.628C211.985 155.661 212.52 155.678 212.887 155.678C213.522 155.678 214.217 155.644 214.971 155.578C215.723 155.511 216.493 155.369 217.28 155.152C218.066 154.934 218.869 154.625 219.688 154.223C220.508 153.821 221.32 153.27 222.123 152.567C222.993 151.831 223.696 150.961 224.231 149.957C224.766 148.953 225.184 147.891 225.485 146.77C225.786 145.649 225.987 144.495 226.087 143.306C226.187 142.119 226.238 140.939 226.238 139.768V127.093C226.238 126.709 226.254 126.349 226.288 126.014C226.355 125.311 226.481 124.776 226.664 124.408C226.848 124.04 227.242 123.79 227.843 123.656C228.111 123.589 228.321 123.556 228.471 123.556H228.949C229.182 123.556 229.3 123.44 229.3 123.205C229.3 122.969 229.066 122.853 228.597 122.853V122.845Z" fill="#E6E6E6"/>
<path d="M180.011 146.035C179.873 146.041 179.725 146.046 179.569 146.054C179.606 146.047 179.645 146.042 179.68 146.035C179.542 146.041 179.394 146.046 179.238 146.054C179.275 146.047 179.314 146.042 179.349 146.035C179.211 146.041 179.063 146.046 178.907 146.054C178.944 146.047 178.983 146.042 179.018 146.035C178.88 146.041 178.732 146.046 178.576 146.054C178.613 146.047 178.652 146.042 178.687 146.035C178.549 146.041 178.401 146.046 178.245 146.054C178.282 146.047 178.321 146.042 178.356 146.035C178.218 146.041 178.07 146.046 177.914 146.054C177.951 146.047 177.99 146.042 178.025 146.035C177.887 146.041 177.739 146.046 177.583 146.054C177.62 146.047 177.658 146.042 177.694 146.035C177.556 146.041 177.408 146.046 177.252 146.054C177.289 146.047 177.327 146.042 177.363 146.035C177.225 146.041 177.077 146.046 176.921 146.054C176.958 146.047 176.996 146.042 177.032 146.035C176.894 146.041 176.746 146.046 176.59 146.054C176.627 146.047 176.665 146.042 176.701 146.035C176.563 146.041 176.415 146.046 176.259 146.054C176.296 146.047 176.334 146.042 176.37 146.035C176.232 146.041 176.084 146.046 175.928 146.054C175.965 146.047 176.003 146.042 176.039 146.035C175.407 146.06 174.562 146.103 173.58 146.191V122.861H171.105V122.886H166.81C166.519 122.886 166.374 122.972 166.374 123.143C166.374 123.314 166.58 123.412 166.992 123.437C167.55 123.486 168.205 123.56 168.958 123.657C169.71 123.756 170.365 123.939 170.923 124.207C171.003 124.54 171.063 124.968 171.105 125.489V146.48C170.26 146.601 169.374 146.757 168.473 146.954C165.085 147.696 162.054 149.4 161.243 149.891C159.621 150.931 158.871 151.307 156.509 152.48C155.787 152.839 154.988 153.228 154.169 153.618V122.848H150.067V122.864H149.642V122.889H145.347C145.056 122.889 144.911 122.975 144.911 123.146C144.911 123.317 145.118 123.415 145.529 123.44C146.087 123.489 146.743 123.563 147.495 123.66C148.247 123.759 148.902 123.942 149.461 124.21C149.54 124.542 149.6 124.97 149.642 125.492V155.677H152.117V155.66H154.167V155.598C157.278 155.379 160.091 154.063 163.062 152.913C165.441 151.992 166.998 151.084 168.003 150.378C168.817 149.846 169.71 149.262 171.104 148.634V155.676H173.578V147.679C176.077 146.843 178.58 146.336 180.353 146.038C180.215 146.043 180.067 146.049 179.911 146.057C179.948 146.05 179.987 146.045 180.022 146.038L180.011 146.035Z" fill="#E6E6E6"/>
<path d="M297.208 122.861C296.718 122.861 296.199 122.868 295.651 122.883C295.104 122.898 294.592 122.912 294.116 122.927C293.64 122.942 293.238 122.956 292.906 122.971C292.575 122.986 292.38 122.993 292.322 122.993C292.263 122.993 292.048 122.986 291.673 122.971C291.298 122.957 290.866 122.942 290.377 122.927C289.887 122.913 289.389 122.898 288.886 122.883C288.382 122.869 287.971 122.861 287.653 122.861C287.192 122.861 286.961 122.976 286.961 123.207C286.961 123.38 287.076 123.467 287.307 123.467C287.452 123.467 287.66 123.474 287.934 123.489C288.207 123.504 288.474 123.54 288.734 123.597C289.368 123.712 289.792 123.965 290.009 124.354C290.225 124.742 290.362 125.312 290.419 126.061C290.448 126.407 290.47 126.773 290.483 127.163C290.498 127.552 290.505 128.071 290.505 128.72V143.094C290.505 146.265 290.448 148.613 290.333 150.141C290.218 151.669 289.958 152.62 289.554 152.995C289.382 153.167 289.173 153.319 288.928 153.449C288.683 153.579 288.366 153.68 287.977 153.751C287.589 153.824 287.099 153.881 286.507 153.923C285.916 153.967 285.203 153.988 284.368 153.988C283.216 153.988 282.185 153.93 281.276 153.815C280.368 153.7 279.655 153.326 279.137 152.691C278.995 152.521 278.865 152.333 278.743 152.127C278.727 151.904 278.712 151.673 278.701 151.433C278.684 151.048 278.676 150.528 278.676 149.876V137.051C278.676 135.478 278.576 134.106 278.375 132.935C278.174 131.763 277.898 130.743 277.546 129.873C277.195 129.003 276.786 128.241 276.317 127.589C275.849 126.936 275.347 126.359 274.811 125.857C274.04 125.121 273.197 124.552 272.276 124.15C271.355 123.748 270.461 123.447 269.591 123.246C268.721 123.045 267.934 122.928 267.231 122.894C266.528 122.861 265.994 122.844 265.626 122.844C264.991 122.844 264.296 122.878 263.542 122.943C262.79 123.01 262.02 123.153 261.233 123.37C260.447 123.588 259.644 123.897 258.825 124.299C258.005 124.701 257.193 125.252 256.39 125.955C255.52 126.691 254.817 127.561 254.282 128.565C253.747 129.569 253.329 130.631 253.028 131.752C252.727 132.872 252.526 134.027 252.426 135.216C252.326 136.403 252.275 137.583 252.275 138.754V151.428C252.275 151.813 252.259 152.173 252.225 152.508C252.158 153.211 252.032 153.746 251.849 154.114C251.665 154.481 251.271 154.732 250.67 154.866C250.402 154.933 250.192 154.966 250.042 154.966H249.564C249.331 154.966 249.213 155.082 249.213 155.317C249.213 155.553 249.447 155.669 249.916 155.669C250.586 155.669 251.33 155.651 252.15 155.618C252.97 155.584 253.463 155.568 253.631 155.568C253.698 155.568 253.891 155.576 254.208 155.592C254.527 155.609 254.911 155.617 255.363 155.617C255.814 155.617 256.308 155.625 256.844 155.641C257.38 155.658 257.899 155.666 258.401 155.666C258.87 155.666 259.104 155.548 259.104 155.315C259.104 155.081 258.987 154.963 258.752 154.963C258.551 154.963 258.293 154.955 257.974 154.938C257.657 154.921 257.414 154.896 257.246 154.863C256.51 154.763 256.041 154.512 255.84 154.108C255.639 153.706 255.523 153.17 255.489 152.5C255.489 152.164 255.48 151.803 255.464 151.419C255.447 151.033 255.431 150.513 255.413 149.86C255.397 149.206 255.389 148.359 255.389 147.321V137.918C255.389 135.705 255.547 133.737 255.866 132.011C256.185 130.285 256.862 128.802 257.899 127.561C258.669 126.656 259.655 125.928 260.86 125.374C262.065 124.82 263.354 124.544 264.726 124.544C265.998 124.544 267.144 124.686 268.164 124.972C269.186 125.256 270.231 125.884 271.302 126.857C271.771 127.292 272.206 127.785 272.607 128.339C273.009 128.892 273.352 129.58 273.636 130.401C273.92 131.221 274.146 132.194 274.313 133.317C274.481 134.44 274.563 135.772 274.563 137.315V149.86C274.563 150.513 274.555 151.032 274.538 151.418C274.522 151.803 274.497 152.163 274.463 152.5C274.396 153.203 274.27 153.747 274.087 154.133C273.904 154.518 273.528 154.761 272.957 154.862C272.69 154.929 272.48 154.962 272.329 154.962H271.852C271.585 154.962 271.45 155.078 271.45 155.313C271.45 155.548 271.7 155.665 272.202 155.665C272.537 155.665 272.938 155.656 273.407 155.64C273.876 155.622 274.336 155.615 274.787 155.615C275.239 155.615 275.641 155.607 275.992 155.591C276.344 155.573 276.57 155.566 276.669 155.566C276.769 155.566 276.996 155.574 277.347 155.591C277.698 155.607 278.117 155.615 278.601 155.615C278.848 155.615 279.106 155.618 279.37 155.622C279.371 155.622 279.372 155.622 279.375 155.622C279.706 155.651 280.16 155.666 280.737 155.666C280.981 155.666 281.216 155.666 281.45 155.666C281.547 155.666 281.644 155.666 281.739 155.666C281.766 155.666 281.789 155.665 281.815 155.663C282.927 155.658 283.923 155.644 284.801 155.622C285.954 155.594 286.991 155.565 287.913 155.536C288.836 155.479 289.642 155.442 290.334 155.428C291.026 155.413 291.69 155.406 292.323 155.406C292.409 155.406 292.618 155.413 292.949 155.428C293.282 155.442 293.662 155.45 294.096 155.45C294.528 155.479 294.967 155.501 295.414 155.514C295.862 155.528 296.243 155.536 296.559 155.536C297.02 155.536 297.251 155.421 297.251 155.19C297.251 155.018 297.136 154.93 296.905 154.93C296.704 154.93 296.488 154.916 296.257 154.886C296.027 154.858 295.811 154.815 295.609 154.756C295.176 154.67 294.881 154.41 294.722 153.978C294.565 153.546 294.442 153.012 294.354 152.379C294.239 151.457 294.175 150.182 294.16 148.553C294.146 146.926 294.138 145.074 294.138 142.999V128.712C294.138 128.063 294.145 127.545 294.16 127.155C294.175 126.766 294.197 126.399 294.224 126.052C294.282 125.303 294.427 124.741 294.657 124.366C294.888 123.991 295.362 123.733 296.083 123.588C296.256 123.53 296.494 123.495 296.796 123.48C297.098 123.466 297.351 123.458 297.552 123.458C297.783 123.458 297.898 123.371 297.898 123.198C297.898 122.968 297.668 122.852 297.206 122.852L297.208 122.861Z" fill="#E6E6E6"/>
<path d="M217.837 161.757H217.429V161.782H213.132C212.84 161.782 212.695 161.868 212.695 162.039C212.695 162.21 212.902 162.308 213.315 162.333C213.873 162.382 214.528 162.456 215.282 162.553C216.034 162.652 216.689 162.835 217.249 163.103C217.328 163.435 217.39 163.863 217.432 164.385V166H221.976V161.756H217.84L217.837 161.757Z" fill="#E6E6E6"/>
<path d="M100.214 114.765H119.746V112.289H119.721V107.992C119.721 107.814 119.688 107.691 119.624 107.621C119.617 107.614 119.61 107.609 119.604 107.603H114.871V108.161C115.899 108.489 116.775 108.708 117.497 108.818V112.252C117.386 112.265 117.271 112.276 117.151 112.285C117.14 112.285 117.129 112.287 117.118 112.288H111.238V107.99C111.238 107.699 111.152 107.554 110.981 107.554C110.81 107.554 110.711 107.76 110.687 108.173C110.637 108.732 110.564 109.387 110.466 110.14C110.368 110.893 110.185 111.548 109.917 112.107C109.584 112.187 109.156 112.248 108.635 112.291H96.0713V114.766H100.214V114.765Z" fill="#E6E6E6"/>
<path d="M286.173 160.648C285.879 160.579 285.505 160.544 285.057 160.544H271.972C271.556 160.544 271.278 160.57 271.142 160.622C271.003 160.674 270.899 160.786 270.83 160.96L270.051 163.868C269.947 164.387 270.034 164.646 270.311 164.646C270.449 164.646 270.718 164.551 271.116 164.36C271.514 164.17 271.954 164.006 272.44 163.866C272.716 163.798 273.192 163.702 273.868 163.58C274.543 163.46 275.296 163.338 276.126 163.216C276.956 163.096 277.83 162.966 278.748 162.827C279.665 162.688 280.53 162.559 281.344 162.437C282.157 162.316 282.876 162.212 283.499 162.125C284.121 162.039 284.555 161.979 284.797 161.943C285.212 161.875 285.619 161.787 286.017 161.683C286.415 161.579 286.615 161.371 286.615 161.061C286.615 160.853 286.467 160.715 286.173 160.645V160.648Z" fill="#E6E6E6"/>
</g>
<defs>
<clipPath id="clip0_126_37981">
<rect width="204.898" height="72.0014" fill="white" transform="translate(93 94)"/>
</clipPath>
</defs>
</svg>
