<svg width="390" height="260" viewBox="0 0 390 260" fill="none" xmlns="http://www.w3.org/2000/svg">
<path d="M92.808 116.729C102.135 116.729 107.794 119.676 109.487 124.39C110.498 127.204 107.671 129.511 104.681 129.511C102.733 129.511 100.507 128.581 98.2957 127.656C96.2844 126.815 94.2851 125.979 92.5176 125.853C92.1569 125.827 91.778 125.814 91.3815 125.814C86.8384 125.814 85.3592 126.712 85.1479 127.98C84.9999 128.831 85.5269 129.449 87.6386 129.979C88.5393 130.205 89.7283 130.415 91.2761 130.62L95.9778 131.254C105.751 132.628 109.977 135.85 108.868 142.03C107.494 149.794 99.6226 154.442 86.2572 154.442C77.3555 154.442 71.3649 151.793 69.4519 147.123C69.1194 146.311 69.1027 145.534 69.3195 144.832C69.7124 143.561 70.8717 142.534 72.3074 141.987C73.0372 141.709 73.8383 141.554 74.6464 141.554C76.6247 141.554 78.7149 142.488 80.7922 143.416C82.5642 144.207 84.3268 144.995 86.0025 145.195C86.6063 145.267 87.2716 145.304 88.0005 145.304C92.702 145.304 94.6569 144.407 94.9212 142.98C95.1325 141.871 94.34 141.396 88.529 140.551L83.88 139.864C74.9521 138.491 70.5144 134.74 71.5181 128.772C71.6922 127.814 71.9707 126.906 72.3487 126.05C73.6911 123.011 76.2895 120.629 79.932 119.034C83.3587 117.533 87.7095 116.729 92.808 116.729Z" fill="#3939FF"/>
<path d="M196.02 117.099C199.772 117.099 202.615 120.485 201.966 124.18L197.939 147.097C197.23 151.131 193.726 154.072 189.63 154.072C187.032 154.072 184.579 152.876 182.98 150.828L170.136 134.379C170.105 134.34 170.059 134.318 170.01 134.318C169.933 134.318 169.866 134.373 169.853 134.449L167.27 149.085C166.761 151.969 164.254 154.072 161.324 154.072C157.572 154.072 154.729 150.686 155.378 146.991L159.406 124.074C159.508 123.49 159.669 122.93 159.882 122.397C160.743 120.244 162.453 118.557 164.569 117.706C165.546 117.313 166.609 117.099 167.715 117.099C170.312 117.099 172.766 118.295 174.364 120.343L187.209 136.792C187.239 136.831 187.285 136.853 187.335 136.853C187.412 136.853 187.478 136.798 187.491 136.722L190.074 122.086C190.14 121.715 190.238 121.356 190.367 121.014C190.982 119.372 192.281 118.092 193.893 117.485C194.557 117.235 195.275 117.099 196.02 117.099Z" fill="#3939FF"/>
<path d="M264.123 131.096C266.915 131.096 269.03 133.617 268.545 136.366C268.166 138.511 266.302 140.075 264.123 140.075H249.496C246.705 140.075 244.59 137.557 245.073 134.809C245.45 132.662 247.316 131.096 249.496 131.096H264.123Z" fill="#3939FF"/>
<path d="M300.626 131.096C303.418 131.096 305.533 133.617 305.048 136.366C304.669 138.511 302.804 140.075 300.626 140.075H285.999C283.208 140.075 281.093 137.557 281.576 134.809C281.618 134.57 281.678 134.339 281.755 134.116C282.013 133.371 282.458 132.721 283.03 132.217C283.827 131.515 284.871 131.096 285.999 131.096H300.626Z" fill="#3939FF"/>
<path d="M314.096 117.099C317.059 117.099 319.309 119.766 318.809 122.686C318.416 124.981 316.426 126.659 314.097 126.659H252.199C249.228 126.659 246.977 123.977 247.491 121.051C247.537 120.788 247.605 120.532 247.691 120.286C248.175 118.914 249.257 117.849 250.603 117.372C251.104 117.195 251.642 117.099 252.199 117.099H314.096Z" fill="#3939FF"/>
<path d="M121.181 135.853L121.182 136.913C121.192 139.232 121.27 140.515 121.892 141.572C122.604 142.781 123.885 143.454 126.447 144.798L128.829 146.048C130.369 146.856 131.342 147.366 132.197 147.579V136.337L121.481 130.977C121.181 132.052 121.181 133.462 121.181 135.714V135.853Z" fill="#F8F3EC"/>
<path d="M139.938 136.975C139.938 137.212 139.844 137.439 139.677 137.607L139.611 137.666C139.452 137.796 139.252 137.868 139.045 137.868C138.838 137.868 138.638 137.796 138.479 137.666L138.413 137.607C138.246 137.439 138.152 137.212 138.152 136.975V134.252L133.983 136.337V147.579C134.625 147.419 135.333 147.092 136.296 146.598L137.351 146.048L139.733 144.797L139.742 144.793C142.218 143.493 143.496 142.822 144.22 141.684L144.289 141.572C144.911 140.515 144.989 139.232 144.998 136.914L145 135.855V135.716C145 133.462 145 132.052 144.7 130.977L139.938 133.359V136.975Z" fill="#F8F3EC"/>
<path d="M126.447 126.771L126.446 126.772C124.336 127.878 123.094 128.53 122.325 129.402L122.324 129.403L133.09 134.785L137.153 132.754L126.57 126.707L126.447 126.771Z" fill="#F8F3EC"/>
<path fill-rule="evenodd" clip-rule="evenodd" d="M136.625 116.729C151.047 116.729 158.76 123.807 156.699 135.533C154.639 147.312 144.391 154.442 129.969 154.442C115.547 154.442 107.728 147.312 109.788 135.533C110.495 131.508 112.18 128.031 114.67 125.199C116.799 122.78 119.516 120.832 122.716 119.417C126.68 117.664 131.384 116.729 136.625 116.729ZM121.181 135.853L121.182 136.913C121.192 139.232 121.27 140.515 121.892 141.572C122.604 142.781 123.885 143.454 126.447 144.798L128.829 146.048C130.369 146.856 131.342 147.366 132.197 147.579V136.337L121.481 130.977C121.181 132.052 121.181 133.462 121.181 135.714V135.853ZM139.677 137.607C139.844 137.439 139.938 137.212 139.938 136.975V133.359L144.7 130.977C145 132.052 145 133.462 145 135.716V135.855L144.998 136.914C144.989 139.232 144.911 140.515 144.289 141.572L144.22 141.684C143.496 142.822 142.218 143.493 139.742 144.793L139.733 144.797L137.351 146.048L136.296 146.598C135.333 147.092 134.625 147.419 133.983 147.579V136.337L138.152 134.252V136.975C138.152 137.212 138.246 137.439 138.413 137.607L138.479 137.666C138.638 137.796 138.838 137.868 139.045 137.868C139.252 137.868 139.452 137.796 139.611 137.666L139.677 137.607ZM126.447 126.771L126.446 126.772C124.336 127.878 123.094 128.53 122.325 129.402L122.324 129.403L133.09 134.785L137.153 132.754L126.57 126.707L126.447 126.771ZM128.829 125.52C130.92 124.422 131.966 123.874 133.09 123.874C134.213 123.874 135.258 124.422 137.345 125.517L137.351 125.52L139.733 126.768C141.846 127.877 143.087 128.529 143.856 129.4L139.074 131.794L128.447 125.722L128.829 125.52Z" fill="#3939FF"/>
<path d="M133.09 123.874C131.966 123.874 130.92 124.422 128.829 125.52L128.447 125.722L139.074 131.794L143.856 129.4C143.087 128.529 141.846 127.877 139.733 126.768L137.351 125.52L137.345 125.517C135.258 124.422 134.213 123.874 133.09 123.874Z" fill="#F8F3EC"/>
<path d="M306.591 104.918C306.013 104.918 305.575 104.396 305.676 103.827C305.754 103.383 306.14 103.06 306.591 103.06H311.784C312.091 103.06 312.353 102.84 312.407 102.538C312.461 102.236 312.723 102.017 313.03 102.017H313.914C314.658 102.017 315.253 102.571 315.35 103.263C315.371 103.41 315.37 103.564 315.342 103.72C315.219 104.413 314.617 104.918 313.914 104.918H307.356H306.591Z" fill="#3939FF"/>
<path d="M312.74 113.95C312.637 113.95 312.537 113.941 312.441 113.923C311.58 113.764 310.974 112.933 311.131 112.035L311.51 109.877C311.58 109.502 311.559 109.167 311.429 108.895C311.235 108.489 310.798 108.223 310.056 108.171C310.007 108.168 309.956 108.165 309.904 108.164C309.864 108.162 309.823 108.162 309.781 108.162C308.609 108.162 307.666 108.633 307.451 109.834C307.251 110.977 307.451 111.649 309.095 111.649C309.305 111.649 309.473 111.836 309.435 112.043L309.095 113.921C309.095 113.921 309.085 113.923 309.066 113.925C309.057 113.926 309.045 113.927 309.032 113.929C309.02 113.93 309.007 113.932 308.993 113.933C308.973 113.935 308.949 113.938 308.923 113.941C308.78 113.956 308.558 113.976 308.303 113.99C308.126 114 307.932 114.007 307.737 114.007C307.651 114.007 307.566 114.006 307.483 114.004C307.463 114.003 307.443 114.003 307.424 114.002C307.401 114.001 307.378 114.001 307.356 114C307.063 113.988 306.788 113.963 306.531 113.923C306.307 113.888 306.098 113.842 305.902 113.785C305.868 113.775 305.834 113.764 305.801 113.754C305.615 113.694 305.443 113.623 305.285 113.541C304.176 112.967 303.734 111.832 304.064 109.977C304.067 109.96 304.07 109.943 304.073 109.926C304.075 109.918 304.076 109.911 304.078 109.903C304.08 109.893 304.081 109.883 304.083 109.873C304.235 109.089 304.525 108.411 304.938 107.843C305.579 106.96 306.516 106.339 307.685 105.988C308.196 105.834 308.753 105.732 309.349 105.682C309.549 105.665 309.755 105.654 309.964 105.65C310.05 105.648 310.137 105.647 310.224 105.647C312.456 105.647 314.01 106.299 314.62 107.6C314.822 108.031 314.921 108.534 314.906 109.107C314.9 109.351 314.874 109.607 314.826 109.877L314.348 112.599C314.229 113.28 313.697 113.801 313.037 113.923C312.94 113.941 312.841 113.95 312.74 113.95Z" fill="#3939FF"/>
<path fill-rule="evenodd" clip-rule="evenodd" d="M309.964 105.65C310.05 105.648 310.137 105.647 310.224 105.647L310.512 105.65C311.535 105.677 312.404 105.849 313.093 106.164C313.25 106.236 313.397 106.315 313.535 106.402L313.691 106.506C314.101 106.797 314.414 107.161 314.62 107.6C314.822 108.031 314.921 108.534 314.906 109.107C314.9 109.351 314.874 109.607 314.826 109.877L314.348 112.599C314.229 113.28 313.697 113.801 313.037 113.923C312.94 113.941 312.841 113.95 312.74 113.95C312.637 113.95 312.537 113.941 312.441 113.923C311.58 113.764 310.974 112.933 311.131 112.035L311.51 109.877C311.58 109.502 311.559 109.167 311.429 108.895C311.235 108.489 310.798 108.223 310.056 108.171C310.01 108.168 309.963 108.165 309.915 108.164L309.904 108.164L309.781 108.162C308.609 108.162 307.666 108.633 307.451 109.834C307.251 110.977 307.451 111.649 309.095 111.649C309.305 111.649 309.473 111.836 309.435 112.043L309.095 113.921L309.066 113.925L309.032 113.929L308.993 113.933L308.979 113.935C308.962 113.937 308.943 113.939 308.923 113.941C308.78 113.956 308.558 113.976 308.303 113.99C308.126 114 307.932 114.007 307.737 114.007L307.483 114.004L307.476 114.004C307.459 114.003 307.441 114.003 307.424 114.002C307.401 114.001 307.378 114.001 307.356 114C307.063 113.988 306.788 113.963 306.531 113.923C306.307 113.888 306.098 113.842 305.902 113.785C305.868 113.775 305.834 113.764 305.801 113.754C305.615 113.694 305.443 113.623 305.285 113.541C304.498 113.134 304.048 112.444 303.97 111.415C303.968 111.387 303.966 111.359 303.964 111.33C303.946 110.992 303.966 110.618 304.027 110.208L304.064 109.977C304.067 109.96 304.07 109.943 304.073 109.926C304.075 109.918 304.076 109.911 304.078 109.903C304.08 109.893 304.081 109.883 304.083 109.873C304.119 109.687 304.163 109.507 304.214 109.333C304.27 109.145 304.334 108.965 304.407 108.791C304.442 108.709 304.478 108.627 304.517 108.548C304.564 108.451 304.613 108.357 304.665 108.265C304.749 108.118 304.84 107.978 304.938 107.843C305.372 107.245 305.943 106.767 306.629 106.412C307.398 106.014 308.314 105.769 309.349 105.682C309.549 105.665 309.755 105.654 309.964 105.65ZM311.784 103.06C312.091 103.06 312.353 102.84 312.407 102.538C312.461 102.236 312.723 102.017 313.03 102.017H313.914C314.658 102.017 315.253 102.571 315.35 103.263C315.371 103.41 315.37 103.564 315.342 103.72C315.219 104.413 314.617 104.918 313.914 104.918H307.356H306.591C306.013 104.918 305.575 104.396 305.676 103.827C305.754 103.383 306.14 103.06 306.591 103.06H311.784Z" fill="#3939FF"/>
<path d="M290.331 103.08L290.369 102.872C290.503 102.129 291.15 101.588 291.905 101.588C292.878 101.588 293.614 102.468 293.442 103.426L293.404 103.633C293.27 104.377 292.623 104.918 291.868 104.918C290.895 104.918 290.159 104.037 290.331 103.08Z" fill="#3939FF"/>
<path fill-rule="evenodd" clip-rule="evenodd" d="M156.889 121.34C156.781 121.247 156.672 121.155 156.561 121.065C156.09 120.486 155.574 119.933 155.012 119.41C150.864 115.546 144.681 113.672 137.343 113.558L136.629 113.553C126.898 113.553 118.486 116.62 112.993 122.322C113.676 123.188 114.24 124.147 114.67 125.199C116.799 122.78 119.516 120.832 122.716 119.417C126.68 117.664 131.384 116.729 136.625 116.729C151.047 116.729 158.76 123.807 156.699 135.533C154.639 147.312 144.391 154.442 129.969 154.442C115.547 154.442 107.728 147.312 109.788 135.533C110.495 131.508 112.18 128.031 114.67 125.199C114.24 124.147 113.676 123.188 112.993 122.322C112.346 121.502 111.592 120.765 110.741 120.108C107.401 115.717 101.039 113.633 93.2643 113.555L92.8119 113.553C80.3247 113.553 70.203 118.275 68.3974 128.203L68.3935 128.224L68.39 128.245C67.7152 132.258 68.9146 135.805 71.8757 138.421C71.9807 138.514 72.0883 138.604 72.1971 138.694C70.676 139.09 69.2539 139.849 68.1477 140.923C66.3576 142.66 65.3134 145.388 66.5168 148.327L66.647 148.632C67.4932 150.546 68.7877 152.122 70.4295 153.389C73.9649 158.041 80.8395 160 88.6428 160L89.296 159.997C96.0118 159.923 101.688 158.712 105.997 156.301C108.295 155.014 110.191 153.388 111.616 151.458C112.273 152.407 113.041 153.294 113.921 154.112C118.225 158.115 124.697 160 132.354 160L133.077 159.994C141.82 159.856 149.403 157.2 154.701 152.369C155.587 156.456 159.223 159.63 163.71 159.63L163.919 159.628C168.299 159.53 172.018 156.352 172.783 152.019L174.189 144.056L182.863 155.165L183.073 155.425C185.275 158.084 188.552 159.63 192.016 159.63L192.279 159.627C196.603 159.53 200.414 157.053 202.327 153.36C204.877 157.113 209.179 159.63 214.156 159.63H219.881L220.586 159.625C227.851 159.514 234.357 157.679 239.431 154.132C240.275 153.542 241.074 152.907 241.828 152.229C242.105 156.287 245.487 159.63 249.767 159.63H311.644C315.503 159.63 318.807 156.86 319.479 153.059C320.341 148.186 316.592 143.718 311.644 143.718H308.08C309.347 142.602 310.249 141.066 310.561 139.3L310.597 139.08C310.992 136.399 309.948 133.866 308.081 132.217H316.482L316.664 132.215C320.461 132.129 323.681 129.365 324.325 125.604L324.361 125.376C324.816 122.177 323.3 119.189 320.788 117.567C319.973 116.306 318.808 115.282 317.419 114.644C317.473 114.487 317.515 114.325 317.545 114.157L318.029 111.399L318.029 111.398L318.029 111.396C318.238 110.213 318.139 109.088 317.676 108.127C317.595 107.959 317.712 107.752 317.899 107.752C318.015 107.752 318.115 107.669 318.135 107.554L318.545 105.244C318.819 103.696 317.875 102.255 316.463 101.813C315.926 100.987 314.995 100.429 313.914 100.429H311.7C311.393 100.429 311.131 100.649 311.077 100.95C311.023 101.252 310.761 101.472 310.454 101.472H305.744C305.013 101.472 304.387 101.997 304.26 102.717L303.962 104.397C303.916 104.658 303.618 104.789 303.379 104.673C301.996 104.007 300.264 103.988 298.966 104.076L297.74 104.16C297.73 104.161 297.722 104.168 297.721 104.178C297.717 104.2 297.686 104.202 297.679 104.181L297.664 104.138C297.66 104.125 297.647 104.116 297.633 104.116H296.794L297.001 102.966C297.163 102.07 296.474 101.246 295.564 101.246H295.371C295.268 100.553 294.671 100 293.925 100H291.401C290.169 100 289.114 100.882 288.896 102.094L288.604 103.712C288.569 103.904 288.409 104.049 288.214 104.063H288.21C285.264 104.283 282.374 105.585 281.47 108.423L280.843 110.394C280.827 110.443 280.864 110.493 280.915 110.493C280.97 110.493 281.007 110.548 280.987 110.599C280.917 110.784 280.86 110.978 280.816 111.183L280.792 111.31L280.791 111.313C280.674 111.968 280.684 112.64 280.909 113.275C280.992 113.51 281.1 113.726 281.228 113.923H252.203C248.401 113.923 245.139 116.611 244.4 120.324L244.367 120.502C244.307 120.841 244.27 121.179 244.254 121.513C244.176 121.447 244.097 121.382 244.017 121.318C243.459 120.624 242.834 119.971 242.139 119.361C237.833 115.577 231.426 113.923 223.996 113.923H214.366C210.375 113.923 206.716 115.571 204.098 118.272C203.942 118.148 203.781 118.03 203.617 117.917C202.015 115.591 199.365 114.013 196.291 113.927L196.023 113.923C191.623 113.923 187.847 117.032 186.989 121.329L186.951 121.534L185.641 128.951L179.253 120.77C178.609 119.945 177.864 119.221 177.043 118.608L176.871 118.388C174.739 115.658 171.504 114.027 168.053 113.927L167.719 113.923C162.851 113.923 158.59 116.941 156.889 121.34ZM274.094 139.08C274.49 136.399 273.445 133.866 271.578 132.217H279.115C278.83 132.8 278.616 133.427 278.484 134.088L278.452 134.259C277.967 137.019 279.017 139.643 280.933 141.336H273.396C273.705 140.705 273.931 140.021 274.058 139.3L274.094 139.08ZM109.487 124.39C107.794 119.676 102.135 116.729 92.808 116.729C87.7095 116.729 83.3587 117.533 79.932 119.034C76.2895 120.629 73.6911 123.011 72.3487 126.05C71.9707 126.906 71.6922 127.814 71.5181 128.772C70.5144 134.74 74.9521 138.491 83.88 139.864L88.529 140.551C94.34 141.396 95.1325 141.871 94.9212 142.98C94.6569 144.407 92.702 145.304 88.0005 145.304C87.2716 145.304 86.6063 145.267 86.0025 145.195C84.3268 144.995 82.5642 144.207 80.7922 143.416C78.7149 142.488 76.6247 141.554 74.6464 141.554C73.8383 141.554 73.0372 141.709 72.3074 141.987C70.8717 142.534 69.7124 143.561 69.3195 144.832C69.1027 145.534 69.1194 146.311 69.4519 147.123C71.3649 151.793 77.3555 154.442 86.2572 154.442C99.6226 154.442 107.494 149.794 108.868 142.03C109.977 135.85 105.751 132.628 95.9778 131.254L91.2761 130.62C89.7283 130.415 88.5393 130.205 87.6386 129.979C85.5269 129.449 84.9999 128.831 85.1479 127.98C85.3592 126.712 86.8384 125.814 91.3815 125.814C91.778 125.814 92.1569 125.827 92.5176 125.853C94.2851 125.979 96.2844 126.815 98.2957 127.656C100.507 128.581 102.733 129.511 104.681 129.511C107.671 129.511 110.498 127.204 109.487 124.39ZM201.966 124.18C202.615 120.485 199.772 117.099 196.02 117.099C195.275 117.099 194.557 117.235 193.893 117.485C192.281 118.092 190.982 119.372 190.367 121.014C190.238 121.356 190.14 121.715 190.074 122.086L187.491 136.722C187.478 136.798 187.412 136.853 187.335 136.853C187.285 136.853 187.239 136.831 187.209 136.792L174.364 120.343C172.766 118.295 170.312 117.099 167.715 117.099C166.609 117.099 165.546 117.313 164.569 117.706C162.453 118.557 160.743 120.244 159.882 122.397C159.669 122.93 159.508 123.49 159.406 124.074L155.378 146.991C154.729 150.686 157.572 154.072 161.324 154.072C164.254 154.072 166.761 151.969 167.27 149.085L169.853 134.449C169.866 134.373 169.933 134.318 170.01 134.318C170.059 134.318 170.105 134.34 170.136 134.379L182.98 150.828C184.579 152.876 187.032 154.072 189.63 154.072C193.726 154.072 197.23 151.131 197.939 147.097L201.966 124.18ZM243.962 135.269C246.022 123.437 238.098 117.099 223.993 117.099H214.362C212.85 117.099 211.4 117.403 210.075 117.957C208.61 118.57 207.297 119.489 206.223 120.641C204.8 122.169 203.795 124.109 203.412 126.29L200.821 141.033C199.625 147.837 204.861 154.072 211.77 154.072H217.495C231.6 154.072 241.848 147.206 243.962 135.269ZM313.966 150.125C314.484 147.197 312.231 144.512 309.258 144.512H247.382C245.061 144.512 243.075 146.179 242.673 148.465C242.159 151.391 244.41 154.072 247.382 154.072H309.258C311.577 154.072 313.562 152.408 313.966 150.125ZM268.545 136.366C269.03 133.617 266.915 131.096 264.123 131.096H249.496C247.316 131.096 245.45 132.662 245.073 134.809C244.59 137.557 246.705 140.075 249.496 140.075H264.123C266.302 140.075 268.166 138.511 268.545 136.366ZM305.048 136.366C305.533 133.617 303.418 131.096 300.626 131.096H285.999C284.871 131.096 283.827 131.515 283.03 132.217C282.458 132.721 282.013 133.371 281.755 134.116C281.678 134.339 281.618 134.57 281.576 134.809C281.093 137.557 283.208 140.075 285.999 140.075H300.626C302.804 140.075 304.669 138.511 305.048 136.366ZM318.809 122.686C319.309 119.766 317.059 117.099 314.096 117.099H252.199C251.642 117.099 251.104 117.195 250.603 117.372C249.257 117.849 248.175 118.914 247.691 120.286C247.605 120.532 247.537 120.788 247.491 121.051C246.977 123.977 249.228 126.659 252.199 126.659H314.097C316.426 126.659 318.416 124.981 318.809 122.686ZM311.784 103.06H306.591C306.14 103.06 305.754 103.383 305.676 103.827C305.575 104.396 306.013 104.918 306.591 104.918H307.356H313.914C314.617 104.918 315.219 104.413 315.342 103.72C315.37 103.564 315.371 103.41 315.35 103.263C315.253 102.571 314.658 102.017 313.914 102.017H313.03C312.723 102.017 312.461 102.236 312.407 102.538C312.353 102.84 312.091 103.06 311.784 103.06ZM311.131 112.035L311.51 109.877C311.58 109.502 311.559 109.167 311.429 108.895C311.235 108.489 310.798 108.223 310.056 108.171C310.007 108.168 309.956 108.165 309.904 108.164L309.781 108.162C308.609 108.162 307.666 108.633 307.451 109.834C307.251 110.977 307.451 111.649 309.095 111.649C309.305 111.649 309.473 111.836 309.435 112.043L309.095 113.921C309.095 113.921 309.085 113.923 309.066 113.925C309.057 113.926 309.045 113.927 309.032 113.929C309.02 113.93 309.007 113.932 308.993 113.933L308.979 113.935C308.962 113.937 308.943 113.939 308.923 113.941C308.78 113.956 308.558 113.976 308.303 113.99C308.126 114 307.932 114.007 307.737 114.007C307.651 114.007 307.566 114.006 307.483 114.004L307.476 114.004C307.459 114.003 307.441 114.003 307.424 114.002C307.401 114.001 307.378 114.001 307.356 114C307.063 113.988 306.788 113.963 306.531 113.923C306.307 113.888 306.098 113.842 305.902 113.785C305.868 113.775 305.834 113.764 305.801 113.754C305.615 113.694 305.443 113.623 305.285 113.541C304.176 112.967 303.734 111.832 304.064 109.977C304.067 109.96 304.07 109.943 304.073 109.926C304.075 109.918 304.076 109.911 304.078 109.903C304.08 109.893 304.081 109.883 304.083 109.873C304.199 109.274 304.395 108.738 304.665 108.265C304.749 108.118 304.84 107.978 304.938 107.843C305.579 106.96 306.516 106.339 307.685 105.988C308.196 105.834 308.753 105.732 309.349 105.682C309.549 105.665 309.755 105.654 309.964 105.65C310.05 105.648 310.137 105.647 310.224 105.647C312.456 105.647 314.01 106.299 314.62 107.6C314.822 108.031 314.921 108.534 314.906 109.107C314.9 109.351 314.874 109.607 314.826 109.877L314.348 112.599C314.229 113.28 313.697 113.801 313.037 113.923C312.94 113.941 312.841 113.95 312.74 113.95C312.637 113.95 312.537 113.941 312.441 113.923C311.58 113.764 310.974 112.933 311.131 112.035ZM297.172 107.656L298.555 111.766C298.576 111.828 298.661 111.805 298.718 111.773C298.769 111.745 298.818 111.716 298.867 111.687C299.469 111.322 299.917 110.858 300.223 110.397C300.344 110.216 300.442 110.035 300.52 109.861C300.586 109.713 300.636 109.571 300.672 109.436C300.678 109.417 300.683 109.398 300.687 109.379L300.717 109.234C300.738 109.117 300.745 109.011 300.74 108.915C300.68 107.806 299.303 107.121 299.084 106.135C299.024 105.861 299.27 105.646 299.55 105.636C300.598 105.598 301.682 105.677 302.524 106.03C302.737 106.119 302.934 106.225 303.112 106.352C303.286 106.476 303.441 106.619 303.572 106.783C303.573 106.784 303.574 106.785 303.575 106.786C303.576 106.788 303.578 106.79 303.579 106.792C303.641 106.87 303.698 106.953 303.749 107.042C303.761 107.063 303.773 107.084 303.785 107.106C304.047 107.598 304.139 108.241 303.99 109.076C303.979 109.141 303.967 109.205 303.953 109.27C303.911 109.471 303.856 109.674 303.789 109.875C303.762 109.956 303.734 110.036 303.703 110.116C303.674 110.191 303.644 110.266 303.612 110.34C303.156 111.396 302.345 112.412 301.129 113.221C301.053 113.272 300.976 113.321 300.898 113.37C300.745 113.464 300.586 113.556 300.421 113.644C300.385 113.663 300.349 113.682 300.312 113.7C300.219 113.749 300.123 113.796 300.026 113.842L300.024 113.843C299.946 113.879 299.868 113.915 299.788 113.95H296.216C296.198 113.95 296.183 113.939 296.177 113.923L294.436 109.184L294.315 108.856C294.009 108.023 294.206 107.162 294.712 106.551C295.496 105.603 296.78 106.489 297.172 107.656ZM290.369 102.872L290.331 103.08C290.159 104.037 290.895 104.918 291.868 104.918C292.623 104.918 293.27 104.377 293.404 103.633L293.442 103.426C293.614 102.468 292.878 101.588 291.905 101.588C291.15 101.588 290.503 102.129 290.369 102.872ZM287.895 111.059L287.285 111.092C286.413 111.134 285.899 111.163 285.856 111.435C285.827 111.635 286.056 111.692 286.727 111.692C286.91 111.692 287.06 111.688 287.176 111.683C287.256 111.679 287.32 111.675 287.368 111.672C287.423 111.668 287.456 111.665 287.467 111.664C287.469 111.663 287.471 111.663 287.471 111.663L287.085 113.864C287.085 113.864 287.04 113.871 286.959 113.882L286.944 113.884C286.864 113.895 286.752 113.909 286.614 113.923H284.222C282.966 113.732 282.155 113.124 282.328 111.761C282.335 111.706 282.344 111.649 282.354 111.592C282.64 110.005 284.241 109.362 286.928 109.234L289.773 109.091C289.78 109.091 289.786 109.085 289.786 109.078C289.786 109.077 289.786 109.076 289.786 109.075C289.899 108.462 289.242 108.162 288.157 108.162C287.614 108.162 287.168 108.237 286.82 108.378C286.308 108.584 285.795 108.905 285.243 108.905C284.125 108.905 283.387 107.783 284.249 107.071C285.237 106.256 286.663 105.771 288.328 105.647L292.642 105.335C293.469 105.276 294.113 106.062 293.515 106.637C293.086 107.05 292.516 107.315 291.888 107.359L291.672 107.374C291.645 107.376 291.662 107.408 291.689 107.415C291.804 107.442 291.914 107.476 292.016 107.515C292.498 107.702 292.827 108.025 292.969 108.482C292.974 108.499 292.979 108.516 292.984 108.533C292.987 108.544 292.99 108.554 292.993 108.565C293.013 108.647 293.028 108.732 293.038 108.822C293.057 109.011 293.051 109.218 293.016 109.443C293.012 109.473 293.007 109.503 293.001 109.534L292.465 112.6C292.347 113.281 291.816 113.801 291.157 113.923C291.06 113.941 290.961 113.95 290.86 113.95H290.383C289.617 113.95 289.037 113.258 289.171 112.504C289.31 111.723 288.686 111.017 287.895 111.059Z" fill="#F8F3EC"/>
<path d="M309.258 144.512C312.231 144.512 314.484 147.197 313.966 150.125C313.562 152.408 311.577 154.072 309.258 154.072H247.382C244.41 154.072 242.159 151.391 242.673 148.465C243.075 146.179 245.061 144.512 247.382 144.512H309.258Z" fill="#3939FF"/>
<path fill-rule="evenodd" clip-rule="evenodd" d="M225.316 142.789C225.879 142.561 226.373 142.298 226.802 142.005C227.827 141.306 228.645 140.339 229.185 138.964C229.771 137.893 230.192 136.663 230.438 135.269C231.441 129.617 227.532 126.659 220.348 126.659C217.75 126.659 215.527 128.522 215.072 131.079L213.472 140.091C213.063 142.397 214.836 144.512 217.178 144.512C220.454 144.512 223.186 143.948 225.316 142.789ZM223.036 132.218C224.934 132.244 226.349 132.509 227.365 132.881C227.445 133.325 227.448 133.866 227.344 134.535L227.315 134.714L227.314 134.717C226.887 137.135 225.858 138.644 224.421 139.623C223.236 140.43 221.567 141.016 219.303 141.238L220.585 134.017L220.605 133.92C220.827 132.929 221.708 132.217 222.733 132.217L223.036 132.218Z" fill="#F8F3EC"/>
<path fill-rule="evenodd" clip-rule="evenodd" d="M223.993 117.099C238.098 117.099 246.022 123.437 243.962 135.269C241.848 147.206 231.6 154.072 217.495 154.072H211.77C204.861 154.072 199.625 147.837 200.821 141.033L203.412 126.29C203.795 124.109 204.8 122.169 206.223 120.641C207.297 119.489 208.61 118.57 210.075 117.957C211.4 117.403 212.85 117.099 214.362 117.099H223.993ZM226.802 142.005C226.373 142.298 225.879 142.561 225.316 142.789C223.186 143.948 220.454 144.512 217.178 144.512C214.836 144.512 213.063 142.397 213.472 140.091L215.072 131.079C215.527 128.522 217.75 126.659 220.348 126.659C227.532 126.659 231.441 129.617 230.438 135.269C230.192 136.663 229.771 137.893 229.185 138.964C228.645 140.339 227.827 141.306 226.802 142.005Z" fill="#3939FF"/>
<path fill-rule="evenodd" clip-rule="evenodd" d="M306.591 103.06H311.784C312.091 103.06 312.353 102.84 312.407 102.538C312.461 102.236 312.723 102.017 313.03 102.017H313.914C314.658 102.017 315.253 102.571 315.35 103.263C315.371 103.41 315.37 103.564 315.342 103.72C315.219 104.413 314.617 104.918 313.914 104.918H307.356H306.591C306.013 104.918 305.575 104.396 305.676 103.827C305.754 103.383 306.14 103.06 306.591 103.06ZM311.51 109.877L311.131 112.035C310.974 112.933 311.58 113.764 312.441 113.923C312.537 113.941 312.637 113.95 312.74 113.95C312.841 113.95 312.94 113.941 313.037 113.923C313.697 113.801 314.229 113.28 314.348 112.599L314.826 109.877C314.874 109.607 314.9 109.351 314.906 109.107C314.921 108.534 314.822 108.031 314.62 107.6C314.01 106.299 312.456 105.647 310.224 105.647C310.137 105.647 310.05 105.648 309.964 105.65C309.755 105.654 309.549 105.665 309.349 105.682C308.753 105.732 308.196 105.834 307.685 105.988C306.516 106.339 305.579 106.96 304.938 107.843C304.525 108.411 304.235 109.089 304.083 109.873L304.078 109.903L304.073 109.926C304.07 109.943 304.067 109.96 304.064 109.977C303.734 111.832 304.176 112.967 305.285 113.541C305.443 113.623 305.615 113.694 305.801 113.754C305.834 113.764 305.868 113.775 305.902 113.785C306.098 113.842 306.307 113.888 306.531 113.923C306.788 113.963 307.063 113.988 307.356 114C307.378 114.001 307.401 114.001 307.424 114.002C307.441 114.003 307.459 114.003 307.476 114.004L307.483 114.004C307.566 114.006 307.651 114.007 307.737 114.007C307.932 114.007 308.126 114 308.303 113.99C308.558 113.976 308.78 113.956 308.923 113.941C308.943 113.939 308.962 113.937 308.979 113.935L308.993 113.933C309.007 113.932 309.02 113.93 309.032 113.929C309.045 113.927 309.057 113.926 309.066 113.925C309.085 113.923 309.095 113.921 309.095 113.921L309.435 112.043C309.473 111.836 309.305 111.649 309.095 111.649C307.451 111.649 307.251 110.977 307.451 109.834C307.666 108.633 308.609 108.162 309.781 108.162L309.904 108.164C309.956 108.165 310.007 108.168 310.056 108.171C310.798 108.223 311.235 108.489 311.429 108.895C311.559 109.167 311.58 109.502 311.51 109.877ZM299.788 113.95C299.868 113.915 299.946 113.879 300.024 113.843L300.026 113.842C300.123 113.796 300.219 113.749 300.312 113.7C300.218 113.749 300.122 113.796 300.024 113.843L299.848 113.923L299.788 113.95ZM300.717 109.234L300.687 109.379C300.683 109.398 300.678 109.417 300.672 109.436C300.678 109.417 300.682 109.399 300.687 109.38L300.687 109.379C300.699 109.329 300.709 109.281 300.717 109.234ZM303.572 106.783L303.575 106.786C303.576 106.788 303.578 106.79 303.579 106.792C303.608 106.828 303.636 106.866 303.662 106.904C303.693 106.949 303.722 106.994 303.749 107.042C303.761 107.063 303.773 107.084 303.785 107.106C303.725 106.993 303.656 106.889 303.579 106.792C303.577 106.789 303.575 106.786 303.572 106.783ZM303.612 110.34C303.156 111.396 302.345 112.412 301.129 113.221C301.657 112.869 302.108 112.478 302.488 112.062C302.982 111.521 303.354 110.937 303.612 110.34ZM290.331 103.08L290.369 102.872C290.503 102.129 291.15 101.588 291.905 101.588C292.878 101.588 293.614 102.468 293.442 103.426L293.404 103.633C293.27 104.377 292.623 104.918 291.868 104.918C290.895 104.918 290.159 104.037 290.331 103.08Z" fill="#3939FF"/>
<path fill-rule="evenodd" clip-rule="evenodd" d="M298.555 111.766L297.172 107.656C296.78 106.489 295.496 105.603 294.712 106.551C294.206 107.162 294.009 108.023 294.315 108.856L294.436 109.184L296.177 113.923C296.183 113.939 296.198 113.95 296.216 113.95H299.788L299.848 113.923L300.024 113.843C300.122 113.796 300.218 113.749 300.312 113.7C300.349 113.682 300.385 113.663 300.421 113.644C300.586 113.556 300.745 113.464 300.898 113.37C300.976 113.321 301.053 113.272 301.129 113.221C301.657 112.869 302.108 112.478 302.488 112.062C302.982 111.521 303.354 110.937 303.612 110.34C303.644 110.266 303.674 110.191 303.703 110.116C303.734 110.036 303.762 109.956 303.789 109.875C303.856 109.674 303.911 109.471 303.953 109.27C303.967 109.205 303.979 109.141 303.99 109.076C304.139 108.241 304.047 107.598 303.785 107.106C303.773 107.084 303.761 107.063 303.749 107.042C303.722 106.994 303.693 106.949 303.662 106.904C303.636 106.866 303.608 106.828 303.579 106.792C303.578 106.79 303.576 106.788 303.575 106.786L303.572 106.783C303.441 106.619 303.286 106.476 303.112 106.352C302.934 106.225 302.737 106.119 302.524 106.03C301.682 105.677 300.598 105.598 299.55 105.636C299.27 105.646 299.024 105.861 299.084 106.135C299.303 107.121 300.68 107.806 300.74 108.915C300.745 109.011 300.738 109.117 300.717 109.234C300.709 109.281 300.699 109.329 300.687 109.379L300.687 109.38C300.682 109.399 300.678 109.417 300.672 109.436C300.636 109.571 300.586 109.713 300.52 109.861C300.442 110.035 300.344 110.216 300.223 110.397C299.917 110.858 299.469 111.322 298.867 111.687C298.818 111.716 298.769 111.745 298.718 111.773C298.661 111.805 298.576 111.828 298.555 111.766Z" fill="#3939FF"/>
<path fill-rule="evenodd" clip-rule="evenodd" d="M92.808 116.729C102.135 116.729 107.794 119.676 109.487 124.39C110.498 127.204 107.671 129.511 104.681 129.511C102.733 129.511 100.507 128.581 98.2957 127.656C96.2844 126.815 94.2851 125.979 92.5176 125.853C92.1569 125.827 91.778 125.814 91.3815 125.814C86.8384 125.814 85.3592 126.712 85.1479 127.98C84.9999 128.831 85.5269 129.449 87.6386 129.979C88.5393 130.205 89.7283 130.415 91.2761 130.62L95.9778 131.254C105.751 132.628 109.977 135.85 108.868 142.03C107.494 149.794 99.6226 154.442 86.2572 154.442C77.3555 154.442 71.3649 151.793 69.4519 147.123C69.1194 146.311 69.1027 145.534 69.3195 144.832C69.7124 143.561 70.8717 142.534 72.3074 141.987C73.0372 141.709 73.8383 141.554 74.6464 141.554C76.6247 141.554 78.7149 142.488 80.7922 143.416C82.5642 144.207 84.3268 144.995 86.0025 145.195C86.6063 145.267 87.2716 145.304 88.0005 145.304C92.702 145.304 94.6569 144.407 94.9212 142.98C95.1325 141.871 94.34 141.396 88.529 140.551L83.88 139.864C74.9521 138.491 70.5144 134.74 71.5181 128.772C71.6922 127.814 71.9707 126.906 72.3487 126.05C73.6911 123.011 76.2895 120.629 79.932 119.034C83.3587 117.533 87.7095 116.729 92.808 116.729ZM196.02 117.099C199.772 117.099 202.615 120.485 201.966 124.18L197.939 147.097C197.23 151.131 193.726 154.072 189.63 154.072C187.032 154.072 184.579 152.876 182.98 150.828L170.136 134.379C170.105 134.34 170.059 134.318 170.01 134.318C169.933 134.318 169.866 134.373 169.853 134.449L167.27 149.085C166.761 151.969 164.254 154.072 161.324 154.072C157.572 154.072 154.729 150.686 155.378 146.991L159.406 124.074C159.508 123.49 159.669 122.93 159.882 122.397C160.743 120.244 162.453 118.557 164.569 117.706C165.546 117.313 166.609 117.099 167.715 117.099C170.312 117.099 172.766 118.295 174.364 120.343L187.209 136.792C187.239 136.831 187.285 136.853 187.335 136.853C187.412 136.853 187.478 136.798 187.491 136.722L190.074 122.086C190.14 121.715 190.238 121.356 190.367 121.014C190.982 119.372 192.281 118.092 193.893 117.485C194.557 117.235 195.275 117.099 196.02 117.099ZM264.123 131.096C266.915 131.096 269.03 133.617 268.545 136.366C268.166 138.511 266.302 140.075 264.123 140.075H249.496C246.705 140.075 244.59 137.557 245.073 134.809C245.45 132.662 247.316 131.096 249.496 131.096H264.123ZM300.626 131.096C303.418 131.096 305.533 133.617 305.048 136.366C304.669 138.511 302.804 140.075 300.626 140.075H285.999C283.208 140.075 281.093 137.557 281.576 134.809C281.618 134.57 281.678 134.339 281.755 134.116C282.013 133.371 282.458 132.721 283.03 132.217C283.827 131.515 284.871 131.096 285.999 131.096H300.626ZM314.096 117.099C317.059 117.099 319.309 119.766 318.809 122.686C318.416 124.981 316.426 126.659 314.097 126.659H252.199C249.228 126.659 246.977 123.977 247.491 121.051C247.537 120.788 247.605 120.532 247.691 120.286C248.175 118.914 249.257 117.849 250.603 117.372C251.104 117.195 251.642 117.099 252.199 117.099H314.096Z" fill="#3939FF"/>
<path d="M287.285 111.092L287.895 111.059C288.686 111.017 289.31 111.723 289.171 112.504C289.037 113.258 289.617 113.95 290.383 113.95H290.86C290.961 113.95 291.06 113.941 291.157 113.923C291.816 113.801 292.347 113.281 292.465 112.6L293.001 109.534C293.007 109.503 293.012 109.473 293.016 109.443C293.051 109.218 293.057 109.011 293.038 108.822C293.034 108.785 293.029 108.75 293.023 108.715C293.015 108.663 293.005 108.614 292.993 108.565C292.99 108.554 292.987 108.544 292.984 108.533C292.979 108.516 292.974 108.499 292.969 108.482C292.841 108.071 292.562 107.768 292.156 107.576C292.111 107.554 292.064 107.534 292.016 107.515C291.914 107.476 291.804 107.442 291.689 107.415C291.662 107.408 291.645 107.376 291.672 107.374L291.888 107.359C292.516 107.315 293.086 107.05 293.515 106.637C294.113 106.062 293.469 105.276 292.642 105.335L288.328 105.647C286.663 105.771 285.237 106.256 284.249 107.071C283.387 107.783 284.125 108.905 285.243 108.905C285.795 108.905 286.308 108.584 286.82 108.378C287.168 108.237 287.614 108.162 288.157 108.162C289.242 108.162 289.899 108.462 289.786 109.075C289.786 109.076 289.786 109.077 289.786 109.078C289.786 109.085 289.78 109.091 289.773 109.091L286.928 109.234C284.241 109.362 282.64 110.005 282.354 111.592L282.328 111.761C282.155 113.124 282.966 113.732 284.222 113.923H286.614C286.76 113.908 286.878 113.893 286.959 113.882C287.04 113.871 287.085 113.864 287.085 113.864L287.471 111.663L287.467 111.664C287.456 111.665 287.423 111.668 287.368 111.672C287.32 111.675 287.256 111.679 287.176 111.683C287.06 111.688 286.91 111.692 286.727 111.692C286.056 111.692 285.827 111.635 285.856 111.435C285.899 111.163 286.413 111.134 287.285 111.092Z" fill="#3939FF"/>
</svg>
