<svg width="269" height="171" viewBox="0 0 269 171" fill="none" xmlns="http://www.w3.org/2000/svg">
<path d="M2.88 1.264H22.592C27.7973 1.264 31.9573 2.62933 35.072 5.36C38.1867 8.09066 39.744 11.9093 39.744 16.816C39.744 21.8507 38.1867 25.7547 35.072 28.528C32 31.2587 27.84 32.624 22.592 32.624H14.208V46H2.88V1.264ZM20.8 23.088C23.0613 23.088 24.832 22.6187 26.112 21.68C27.4347 20.7413 28.096 19.12 28.096 16.816C28.096 14.512 27.456 12.9333 26.176 12.08C24.896 11.2267 23.104 10.8 20.8 10.8H14.208V23.088H20.8ZM43.5675 1.264H63.6635C68.9115 1.264 73.0075 2.58666 75.9515 5.232C78.9382 7.87733 80.4315 11.6747 80.4315 16.624C80.4315 19.952 79.7062 22.7893 78.2555 25.136C76.8048 27.4827 74.7568 29.232 72.1115 30.384L80.0475 46H68.3995L61.2955 31.984H54.8955V46H43.5675V1.264ZM61.6795 22.448C63.9408 22.448 65.6902 22.0213 66.9275 21.168C68.1648 20.272 68.7835 18.7573 68.7835 16.624C68.7835 14.4053 68.1648 12.8907 66.9275 12.08C65.7328 11.2267 63.9835 10.8 61.6795 10.8H54.8955V22.448H61.6795ZM106.789 46.96C102.266 46.96 98.1703 45.9787 94.501 44.016C90.8743 42.0533 87.9943 39.3227 85.861 35.824C83.7703 32.2827 82.725 28.2293 82.725 23.664C82.725 19.0987 83.7703 15.0453 85.861 11.504C87.9943 7.96266 90.8743 5.21066 94.501 3.248C98.1703 1.28533 102.266 0.303997 106.789 0.303997C111.269 0.303997 115.322 1.28533 118.949 3.248C122.618 5.21066 125.498 7.96266 127.589 11.504C129.68 15.0453 130.725 19.0987 130.725 23.664C130.725 28.2293 129.68 32.2827 127.589 35.824C125.498 39.3227 122.618 42.0533 118.949 44.016C115.322 45.9787 111.269 46.96 106.789 46.96ZM106.789 36.336C109.05 36.336 111.12 35.824 112.997 34.8C114.874 33.776 116.368 32.304 117.477 30.384C118.586 28.464 119.141 26.224 119.141 23.664C119.141 21.104 118.586 18.8853 117.477 17.008C116.41 15.088 114.938 13.616 113.061 12.592C111.184 11.5253 109.093 10.992 106.789 10.992C104.442 10.992 102.33 11.5253 100.453 12.592C98.5757 13.616 97.0823 15.088 95.973 17.008C94.9063 18.8853 94.373 21.104 94.373 23.664C94.373 26.224 94.9063 28.464 95.973 30.384C97.0823 32.304 98.5757 33.776 100.453 34.8C102.373 35.824 104.485 36.336 106.789 36.336ZM135.193 1.264H146.073L159.001 28.976L171.993 1.264H182.809V46H172.249V23.536L161.561 46H156.441L145.817 23.536V46H135.193V1.264ZM188.568 1.264H208.28C213.485 1.264 217.645 2.62933 220.76 5.36C223.874 8.09066 225.432 11.9093 225.432 16.816C225.432 21.8507 223.874 25.7547 220.76 28.528C217.688 31.2587 213.528 32.624 208.28 32.624H199.896V46H188.568V1.264ZM206.488 23.088C208.749 23.088 210.52 22.6187 211.8 21.68C213.122 20.7413 213.784 19.12 213.784 16.816C213.784 14.512 213.144 12.9333 211.864 12.08C210.584 11.2267 208.792 10.8 206.488 10.8H199.896V23.088H206.488ZM237.998 10.8H225.39V1.264H261.998V10.8H249.326V46H237.998V10.8Z" fill="#F8F3EC"/>
<path d="M2.08 55.04H13.84C17.0133 55.04 19.5467 55.88 21.44 57.56C23.3333 59.2133 24.28 61.52 24.28 64.48C24.28 67.52 23.3333 69.8533 21.44 71.48C19.5733 73.1067 17.04 73.92 13.84 73.92H8.16V83H2.08V55.04ZM12.96 68.84C16.4 68.84 18.12 67.3867 18.12 64.48C18.12 62.8533 17.6533 61.72 16.72 61.08C15.8133 60.44 14.56 60.12 12.96 60.12H8.16V68.84H12.96ZM27.08 55.04H39.2C42.3733 55.04 44.84 55.84 46.6 57.44C48.3867 59.0133 49.28 61.2933 49.28 64.28C49.28 66.36 48.8 68.1333 47.84 69.6C46.88 71.04 45.52 72.0933 43.76 72.76L49.08 83H42.84L37.92 73.52H33.16V83H27.08V55.04ZM38.12 68.44C39.6667 68.44 40.88 68.1067 41.76 67.44C42.6667 66.7733 43.12 65.72 43.12 64.28C43.12 62.76 42.68 61.6933 41.8 61.08C40.92 60.44 39.6933 60.12 38.12 60.12H33.16V68.44H38.12ZM66.24 83.6C63.44 83.6 60.8933 82.9867 58.6 81.76C56.3333 80.5333 54.5467 78.8267 53.24 76.64C51.9333 74.4267 51.28 71.8933 51.28 69.04C51.28 66.1867 51.9333 63.6533 53.24 61.44C54.5467 59.2267 56.3333 57.5067 58.6 56.28C60.8933 55.0533 63.44 54.44 66.24 54.44C69.04 54.44 71.56 55.0533 73.8 56.28C76.0667 57.5067 77.8533 59.2267 79.16 61.44C80.4667 63.6533 81.12 66.1867 81.12 69.04C81.12 71.8933 80.4667 74.4267 79.16 76.64C77.8533 78.8267 76.0667 80.5333 73.8 81.76C71.56 82.9867 69.04 83.6 66.24 83.6ZM66.24 78C67.84 78 69.2933 77.64 70.6 76.92C71.9333 76.1733 72.9867 75.1333 73.76 73.8C74.5333 72.44 74.92 70.8533 74.92 69.04C74.92 67.2533 74.5333 65.6933 73.76 64.36C73.0133 63 71.9733 61.96 70.64 61.24C69.3333 60.4933 67.8667 60.12 66.24 60.12C64.5867 60.12 63.0933 60.4933 61.76 61.24C60.4533 61.96 59.4133 63 58.64 64.36C57.8667 65.6933 57.48 67.2533 57.48 69.04C57.48 70.8533 57.8667 72.44 58.64 73.8C59.4133 75.1333 60.4667 76.1733 61.8 76.92C63.1333 77.64 64.6133 78 66.24 78ZM84.4628 55.04H90.4628L99.0628 73.76L107.703 55.04H113.663V83H107.863V67.12L100.463 83H97.6628L90.3028 67.12V83H84.4628V55.04ZM117.861 55.04H129.621C132.795 55.04 135.328 55.88 137.221 57.56C139.115 59.2133 140.061 61.52 140.061 64.48C140.061 67.52 139.115 69.8533 137.221 71.48C135.355 73.1067 132.821 73.92 129.621 73.92H123.941V83H117.861V55.04ZM128.741 68.84C132.181 68.84 133.901 67.3867 133.901 64.48C133.901 62.8533 133.435 61.72 132.501 61.08C131.595 60.44 130.341 60.12 128.741 60.12H123.941V68.84H128.741ZM148.526 60.12H140.366V55.04H162.766V60.12H154.606V83H148.526V60.12Z" fill="#F8F3EC"/>
<path d="M1.872 91.836H12.456C15.312 91.836 17.592 92.592 19.296 94.104C21 95.592 21.852 97.668 21.852 100.332C21.852 103.068 21 105.168 19.296 106.632C17.616 108.096 15.336 108.828 12.456 108.828H7.344V117H1.872V91.836ZM11.664 104.256C14.76 104.256 16.308 102.948 16.308 100.332C16.308 98.868 15.888 97.848 15.048 97.272C14.232 96.696 13.104 96.408 11.664 96.408H7.344V104.256H11.664ZM24.372 91.836H35.28C38.136 91.836 40.356 92.556 41.94 93.996C43.548 95.412 44.352 97.464 44.352 100.152C44.352 102.024 43.92 103.62 43.056 104.94C42.192 106.236 40.968 107.184 39.384 107.784L44.172 117H38.556L34.128 108.468H29.844V117H24.372V91.836ZM34.308 103.896C35.7 103.896 36.792 103.596 37.584 102.996C38.4 102.396 38.808 101.448 38.808 100.152C38.808 98.784 38.412 97.824 37.62 97.272C36.828 96.696 35.724 96.408 34.308 96.408H29.844V103.896H34.308ZM59.616 117.54C57.096 117.54 54.804 116.988 52.74 115.884C50.7 114.78 49.092 113.244 47.916 111.276C46.74 109.284 46.152 107.004 46.152 104.436C46.152 101.868 46.74 99.588 47.916 97.596C49.092 95.604 50.7 94.056 52.74 92.952C54.804 91.848 57.096 91.296 59.616 91.296C62.136 91.296 64.404 91.848 66.42 92.952C68.46 94.056 70.068 95.604 71.244 97.596C72.42 99.588 73.008 101.868 73.008 104.436C73.008 107.004 72.42 109.284 71.244 111.276C70.068 113.244 68.46 114.78 66.42 115.884C64.404 116.988 62.136 117.54 59.616 117.54ZM59.616 112.5C61.056 112.5 62.364 112.176 63.54 111.528C64.74 110.856 65.688 109.92 66.384 108.72C67.08 107.496 67.428 106.068 67.428 104.436C67.428 102.828 67.08 101.424 66.384 100.224C65.712 99 64.776 98.064 63.576 97.416C62.4 96.744 61.08 96.408 59.616 96.408C58.128 96.408 56.784 96.744 55.584 97.416C54.408 98.064 53.472 99 52.776 100.224C52.08 101.424 51.732 102.828 51.732 104.436C51.732 106.068 52.08 107.496 52.776 108.72C53.472 109.92 54.42 110.856 55.62 111.528C56.82 112.176 58.152 112.5 59.616 112.5ZM76.0165 91.836H81.4165L89.1565 108.684L96.9325 91.836H102.297V117H97.0765V102.708L90.4165 117H87.8965L81.2725 102.708V117H76.0165V91.836ZM106.075 91.836H116.659C119.515 91.836 121.795 92.592 123.499 94.104C125.203 95.592 126.055 97.668 126.055 100.332C126.055 103.068 125.203 105.168 123.499 106.632C121.819 108.096 119.539 108.828 116.659 108.828H111.547V117H106.075V91.836ZM115.867 104.256C118.963 104.256 120.511 102.948 120.511 100.332C120.511 98.868 120.091 97.848 119.251 97.272C118.435 96.696 117.307 96.408 115.867 96.408H111.547V104.256H115.867ZM133.673 96.408H126.329V91.836H146.489V96.408H139.145V117H133.673V96.408Z" fill="#F8F3EC"/>
<path d="M1.68 125.428H9.52C11.6667 125.428 13.384 125.997 14.672 127.136C15.9787 128.275 16.632 129.833 16.632 131.812C16.632 133.865 15.988 135.433 14.7 136.516C13.412 137.58 11.676 138.112 9.492 138.112H5.236V145H1.68V125.428ZM9.072 135.172C11.7413 135.172 13.076 134.052 13.076 131.812C13.076 129.516 11.7413 128.368 9.072 128.368H5.236V135.172H9.072ZM18.8792 125.428H27.0552C29.2206 125.428 30.8912 125.96 32.0672 127.024C33.2432 128.088 33.8312 129.628 33.8312 131.644C33.8312 133.081 33.4766 134.304 32.7672 135.312C32.0579 136.32 31.0499 137.039 29.7432 137.468L33.7192 145H30.0792L26.2992 137.832H22.4352V145H18.8792V125.428ZM26.4112 134.892C27.5686 134.892 28.5019 134.621 29.2112 134.08C29.9206 133.539 30.2752 132.727 30.2752 131.644C30.2752 129.46 28.9872 128.368 26.4112 128.368H22.4352V134.892H26.4112ZM46.0432 145.42C44.0832 145.42 42.3098 145 40.7232 144.16C39.1552 143.301 37.9138 142.097 36.9992 140.548C36.1032 138.999 35.6552 137.225 35.6552 135.228C35.6552 133.231 36.1032 131.457 36.9992 129.908C37.9138 128.359 39.1552 127.155 40.7232 126.296C42.3098 125.437 44.0832 125.008 46.0432 125.008C47.9845 125.008 49.7392 125.437 51.3072 126.296C52.8938 127.155 54.1352 128.359 55.0312 129.908C55.9458 131.457 56.4032 133.231 56.4032 135.228C56.4032 137.225 55.9458 138.999 55.0312 140.548C54.1352 142.079 52.8938 143.273 51.3072 144.132C49.7392 144.991 47.9845 145.42 46.0432 145.42ZM46.0432 142.2C47.2938 142.2 48.4325 141.92 49.4592 141.36C50.4858 140.781 51.2978 139.969 51.8952 138.924C52.5112 137.86 52.8192 136.628 52.8192 135.228C52.8192 133.847 52.5205 132.633 51.9232 131.588C51.3258 130.524 50.5138 129.703 49.4872 129.124C48.4605 128.545 47.3125 128.256 46.0432 128.256C44.7738 128.256 43.6165 128.545 42.5712 129.124C41.5445 129.703 40.7325 130.524 40.1352 131.588C39.5378 132.633 39.2392 133.847 39.2392 135.228C39.2392 136.628 39.5378 137.86 40.1352 138.924C40.7512 139.969 41.5725 140.781 42.5992 141.36C43.6445 141.92 44.7925 142.2 46.0432 142.2ZM59.2113 125.428H62.6833L69.2353 139.764L75.7873 125.428H79.2593V145H75.8993V132.288L70.0753 145H68.3953L62.5713 132.288V145H59.2113V125.428ZM82.6175 125.428H90.4575C92.6042 125.428 94.3215 125.997 95.6095 127.136C96.9162 128.275 97.5695 129.833 97.5695 131.812C97.5695 133.865 96.9255 135.433 95.6375 136.516C94.3495 137.58 92.6135 138.112 90.4295 138.112H86.1735V145H82.6175V125.428ZM90.0095 135.172C92.6788 135.172 94.0135 134.052 94.0135 131.812C94.0135 129.516 92.6788 128.368 90.0095 128.368H86.1735V135.172H90.0095ZM103.894 128.368H97.9858V125.428H113.358V128.368H107.45V145H103.894V128.368Z" fill="#F8F3EC"/>
<path d="M1.44 153.224H8.16C10 153.224 11.472 153.712 12.576 154.688C13.696 155.664 14.256 157 14.256 158.696C14.256 160.456 13.704 161.8 12.6 162.728C11.496 163.64 10.008 164.096 8.136 164.096H4.488V170H1.44V153.224ZM7.776 161.576C10.064 161.576 11.208 160.616 11.208 158.696C11.208 156.728 10.064 155.744 7.776 155.744H4.488V161.576H7.776ZM16.1822 153.224H23.1902C25.0462 153.224 26.4782 153.68 27.4862 154.592C28.4942 155.504 28.9982 156.824 28.9982 158.552C28.9982 159.784 28.6942 160.832 28.0862 161.696C27.4782 162.56 26.6142 163.176 25.4942 163.544L28.9022 170H25.7822L22.5422 163.856H19.2302V170H16.1822V153.224ZM22.6382 161.336C23.6302 161.336 24.4302 161.104 25.0382 160.64C25.6462 160.176 25.9502 159.48 25.9502 158.552C25.9502 156.68 24.8462 155.744 22.6382 155.744H19.2302V161.336H22.6382ZM39.4656 170.36C37.7856 170.36 36.2656 170 34.9056 169.28C33.5616 168.544 32.4976 167.512 31.7136 166.184C30.9456 164.856 30.5616 163.336 30.5616 161.624C30.5616 159.912 30.9456 158.392 31.7136 157.064C32.4976 155.736 33.5616 154.704 34.9056 153.968C36.2656 153.232 37.7856 152.864 39.4656 152.864C41.1296 152.864 42.6336 153.232 43.9776 153.968C45.3376 154.704 46.4016 155.736 47.1696 157.064C47.9536 158.392 48.3456 159.912 48.3456 161.624C48.3456 163.336 47.9536 164.856 47.1696 166.184C46.4016 167.496 45.3376 168.52 43.9776 169.256C42.6336 169.992 41.1296 170.36 39.4656 170.36ZM39.4656 167.6C40.5376 167.6 41.5136 167.36 42.3936 166.88C43.2736 166.384 43.9696 165.688 44.4816 164.792C45.0096 163.88 45.2736 162.824 45.2736 161.624C45.2736 160.44 45.0176 159.4 44.5056 158.504C43.9936 157.592 43.2976 156.888 42.4176 156.392C41.5376 155.896 40.5536 155.648 39.4656 155.648C38.3776 155.648 37.3856 155.896 36.4896 156.392C35.6096 156.888 34.9136 157.592 34.4016 158.504C33.8896 159.4 33.6336 160.44 33.6336 161.624C33.6336 162.824 33.8896 163.88 34.4016 164.792C34.9296 165.688 35.6336 166.384 36.5136 166.88C37.4096 167.36 38.3936 167.6 39.4656 167.6ZM50.7525 153.224H53.7285L59.3445 165.512L64.9605 153.224H67.9365V170H65.0565V159.104L60.0645 170H58.6245L53.6325 159.104V170H50.7525V153.224ZM70.815 153.224H77.535C79.375 153.224 80.847 153.712 81.951 154.688C83.071 155.664 83.631 157 83.631 158.696C83.631 160.456 83.079 161.8 81.975 162.728C80.871 163.64 79.383 164.096 77.511 164.096H73.863V170H70.815V153.224ZM77.151 161.576C79.439 161.576 80.583 160.616 80.583 158.696C80.583 156.728 79.439 155.744 77.151 155.744H73.863V161.576H77.151ZM89.0518 155.744H83.9878V153.224H97.1638V155.744H92.0998V170H89.0518V155.744Z" fill="#F8F3EC"/>
</svg>
