<svg width="269" height="30" viewBox="0 0 269 30" fill="none" xmlns="http://www.w3.org/2000/svg">
<path d="M23.12 9.72C23.12 11.2133 22.76 12.6133 22.04 13.92C21.3467 15.2267 20.24 16.28 18.72 17.08C17.2267 17.88 15.3333 18.28 13.04 18.28H8.36V29H2.76V1.08H13.04C15.2 1.08 17.04 1.45333 18.56 2.2C20.08 2.94667 21.2133 3.97333 21.96 5.28C22.7333 6.58667 23.12 8.06667 23.12 9.72ZM12.8 13.76C14.3467 13.76 15.4933 13.4133 16.24 12.72C16.9867 12 17.36 11 17.36 9.72C17.36 7 15.84 5.64 12.8 5.64H8.36V13.76H12.8ZM41.4959 29L35.3359 18.12H32.6959V29H27.0959V1.08H37.5759C39.7359 1.08 41.5759 1.46667 43.0959 2.24C44.6159 2.98667 45.7493 4.01333 46.4959 5.32C47.2693 6.6 47.6559 8.04 47.6559 9.64C47.6559 11.48 47.1226 13.1467 46.0559 14.64C44.9893 16.1067 43.4026 17.12 41.2959 17.68L47.9759 29H41.4959ZM32.6959 13.92H37.3759C38.8959 13.92 40.0293 13.56 40.7759 12.84C41.5226 12.0933 41.8959 11.0667 41.8959 9.76C41.8959 8.48 41.5226 7.49333 40.7759 6.8C40.0293 6.08 38.8959 5.72 37.3759 5.72H32.6959V13.92ZM65.6809 29.28C63.0676 29.28 60.6676 28.6667 58.4809 27.44C56.2943 26.2133 54.5609 24.52 53.2809 22.36C52.0009 20.1733 51.3609 17.7067 51.3609 14.96C51.3609 12.24 52.0009 9.8 53.2809 7.64C54.5609 5.45333 56.2943 3.74666 58.4809 2.52C60.6676 1.29333 63.0676 0.68 65.6809 0.68C68.3209 0.68 70.7209 1.29333 72.8809 2.52C75.0676 3.74666 76.7876 5.45333 78.0409 7.64C79.3209 9.8 79.9609 12.24 79.9609 14.96C79.9609 17.7067 79.3209 20.1733 78.0409 22.36C76.7876 24.52 75.0676 26.2133 72.8809 27.44C70.6943 28.6667 68.2943 29.28 65.6809 29.28ZM65.6809 24.28C67.3609 24.28 68.8409 23.9067 70.1209 23.16C71.4009 22.3867 72.4009 21.2933 73.1209 19.88C73.8409 18.4667 74.2009 16.8267 74.2009 14.96C74.2009 13.0933 73.8409 11.4667 73.1209 10.08C72.4009 8.66667 71.4009 7.58667 70.1209 6.84C68.8409 6.09333 67.3609 5.72 65.6809 5.72C64.0009 5.72 62.5076 6.09333 61.2009 6.84C59.9209 7.58667 58.9209 8.66667 58.2009 10.08C57.4809 11.4667 57.1209 13.0933 57.1209 14.96C57.1209 16.8267 57.4809 18.4667 58.2009 19.88C58.9209 21.2933 59.9209 22.3867 61.2009 23.16C62.5076 23.9067 64.0009 24.28 65.6809 24.28ZM114.567 1.08V29H108.967V10.84L101.487 29H97.2472L89.7272 10.84V29H84.1272V1.08H90.4872L99.3672 21.84L108.247 1.08H114.567ZM140.464 9.72C140.464 11.2133 140.104 12.6133 139.384 13.92C138.69 15.2267 137.584 16.28 136.064 17.08C134.57 17.88 132.677 18.28 130.384 18.28H125.704V29H120.104V1.08H130.384C132.544 1.08 134.384 1.45333 135.904 2.2C137.424 2.94667 138.557 3.97333 139.304 5.28C140.077 6.58667 140.464 8.06667 140.464 9.72ZM130.144 13.76C131.69 13.76 132.837 13.4133 133.584 12.72C134.33 12 134.704 11 134.704 9.72C134.704 7 133.184 5.64 130.144 5.64H125.704V13.76H130.144ZM163.44 1.08V5.6H156V29H150.4V5.6H142.96V1.08H163.44Z" fill="#F8F3EC"/>
</svg>
