<svg width="242" height="343" viewBox="0 0 242 343" fill="none" xmlns="http://www.w3.org/2000/svg">
<path d="M20.448 66.864C17.904 66.864 15.576 66.576 13.464 66C11.352 65.424 9.552 64.536 8.064 63.336C6.576 62.136 5.424 60.648 4.608 58.872C3.792 57.096 3.384 54.984 3.384 52.536C3.384 51.192 3.48 50.016 3.672 49.008C3.864 48 4.104 47.088 4.392 46.272C4.728 45.456 5.088 44.736 5.472 44.112C5.856 43.488 6.216 42.912 6.552 42.384C7.224 41.328 7.8 40.2 8.28 39C8.808 37.752 9.072 36.528 9.072 35.328V34.824H2.952V26.112H10.944C13.68 26.112 15.768 26.736 17.208 27.984C18.648 29.184 19.368 30.816 19.368 32.88V33.168C19.368 34.56 19.176 35.976 18.792 37.416C18.408 38.856 17.76 40.488 16.848 42.312C16.176 43.656 15.6 44.904 15.12 46.056C14.688 47.16 14.472 48.6 14.472 50.376V52.32C14.472 54.144 14.976 55.584 15.984 56.64C16.992 57.648 18.408 58.152 20.232 58.152C22.056 58.152 23.472 57.672 24.48 56.712C25.536 55.704 26.064 54.288 26.064 52.464V26.112H36.504V50.88C36.504 55.872 35.088 59.784 32.256 62.616C29.472 65.448 25.536 66.864 20.448 66.864ZM19.7162 12.216H24.2522V9.768C24.2522 8.952 24.0842 8.376 23.7482 8.04C23.3642 7.656 22.6202 7.464 21.5162 7.464H19.7162V0.119998H25.6922C28.0442 0.119998 29.8682 0.647997 31.1642 1.704C32.4602 2.712 33.1082 4.104 33.1082 5.88C33.1082 7.08 32.7482 8.208 32.0282 9.264C31.2602 10.272 30.2282 11.064 28.9322 11.64V12.216H42.3242V19.56H19.7162V12.216ZM58.1434 66.864C55.5994 66.864 53.2474 66.528 51.0874 65.856C48.9274 65.136 47.0554 64.176 45.4714 62.976C43.9354 61.728 42.7114 60.264 41.7994 58.584C40.9354 56.904 40.5034 55.056 40.5034 53.04V49.512C40.5034 47.544 41.0314 45.984 42.0874 44.832C43.1914 43.68 44.8234 43.104 46.9834 43.104H55.6234V50.952H50.0794V52.104C50.0794 54.264 50.7994 55.92 52.2394 57.072C53.6794 58.176 55.7674 58.728 58.5034 58.728C60.9514 58.728 62.8234 57.912 64.1194 56.28C65.4634 54.6 66.1354 52.32 66.1354 49.44V42.816C66.1354 39.936 65.3674 37.704 63.8314 36.12C62.2954 34.488 60.1354 33.672 57.3514 33.672C56.0074 33.672 54.7354 33.84 53.5354 34.176C52.3834 34.512 51.3274 34.944 50.3674 35.472C49.4554 36 48.6394 36.6 47.9194 37.272C47.2474 37.896 46.7194 38.496 46.3354 39.072L39.8554 33.312C41.3434 31.056 43.5754 29.16 46.5514 27.624C49.5754 26.04 53.3194 25.248 57.7834 25.248C60.8074 25.248 63.5194 25.728 65.9194 26.688C68.3674 27.6 70.4314 28.968 72.1114 30.792C73.7914 32.568 75.0634 34.752 75.9274 37.344C76.8394 39.888 77.2954 42.792 77.2954 46.056C77.2954 49.32 76.8634 52.248 75.9994 54.84C75.1354 57.384 73.8634 59.568 72.1834 61.392C70.5514 63.168 68.5354 64.536 66.1354 65.496C63.7834 66.408 61.1194 66.864 58.1434 66.864ZM83.1043 42.168C83.1043 39.576 83.5603 37.248 84.4723 35.184C85.3843 33.12 86.6803 31.344 88.3603 29.856C90.0403 28.368 92.0803 27.24 94.4803 26.472C96.9283 25.656 99.6643 25.248 102.688 25.248C105.712 25.248 108.424 25.656 110.824 26.472C113.272 27.24 115.336 28.368 117.016 29.856C118.696 31.344 119.992 33.12 120.904 35.184C121.816 37.248 122.272 39.576 122.272 42.168V66H111.616V42.672C111.616 39.792 110.824 37.584 109.24 36.048C107.656 34.464 105.472 33.672 102.688 33.672C99.9043 33.672 97.7203 34.464 96.1363 36.048C94.5523 37.584 93.7603 39.792 93.7603 42.672V51.24H94.1203C94.3123 50.184 94.6483 49.176 95.1283 48.216C95.6083 47.208 96.2323 46.32 97.0003 45.552C97.8163 44.784 98.7763 44.184 99.8803 43.752C100.984 43.272 102.28 43.032 103.768 43.032H105.64V52.968H102.976C99.8563 52.968 97.5283 53.376 95.9923 54.192C94.5043 55.008 93.7603 56.52 93.7603 58.728V66H83.1043V42.168ZM142.787 66.864C140.579 66.864 138.491 66.6 136.523 66.072C134.555 65.544 132.803 64.728 131.267 63.624L135.227 56.136C136.043 56.664 137.003 57.192 138.107 57.72C139.211 58.2 140.579 58.44 142.211 58.44C144.515 58.44 146.243 57.672 147.395 56.136C148.595 54.552 149.195 52.44 149.195 49.8V42.384C149.195 39.744 148.619 37.632 147.467 36.048C146.315 34.464 144.587 33.672 142.283 33.672C140.219 33.672 138.587 34.224 137.387 35.328C136.187 36.432 135.395 37.776 135.011 39.36L126.371 35.616C127.571 32.352 129.563 29.808 132.347 27.984C135.179 26.16 138.659 25.248 142.787 25.248C145.619 25.248 148.115 25.752 150.275 26.76C152.483 27.72 154.331 29.112 155.819 30.936C157.307 32.712 158.435 34.872 159.203 37.416C159.971 39.96 160.355 42.816 160.355 45.984C160.355 49.152 159.971 52.032 159.203 54.624C158.435 57.216 157.307 59.424 155.819 61.248C154.331 63.024 152.483 64.416 150.275 65.424C148.115 66.384 145.619 66.864 142.787 66.864ZM183.147 39.576C183.147 37.752 182.667 36.312 181.707 35.256C180.795 34.2 179.259 33.672 177.099 33.672C175.035 33.672 173.403 34.128 172.203 35.04C171.003 35.904 169.995 36.912 169.179 38.064L162.843 32.448C164.379 30.192 166.275 28.44 168.531 27.192C170.835 25.896 173.955 25.248 177.891 25.248C183.123 25.248 187.083 26.424 189.771 28.776C192.459 31.128 193.803 34.56 193.803 39.072V66H183.147V39.576ZM224.227 66.864C222.499 66.864 220.987 66.648 219.691 66.216C218.443 65.784 217.339 65.232 216.379 64.56C215.467 63.84 214.699 63.024 214.075 62.112C213.499 61.2 213.043 60.264 212.707 59.304H212.347V66H201.691V26.112H212.347V52.032C212.347 53.04 212.563 53.928 212.995 54.696C213.427 55.464 213.979 56.112 214.651 56.64C215.371 57.168 216.163 57.576 217.027 57.864C217.939 58.104 218.827 58.224 219.691 58.224C221.035 58.224 222.139 58.008 223.003 57.576C223.915 57.144 224.611 56.568 225.091 55.848C225.571 55.08 225.907 54.216 226.099 53.256C226.291 52.296 226.387 51.288 226.387 50.232V26.112H237.043V51.168C237.043 56.208 235.963 60.096 233.803 62.832C231.643 65.52 228.451 66.864 224.227 66.864Z" fill="#E2E0E0"/>
<path d="M17.04 126.72C14.92 126.72 12.98 126.48 11.22 126C9.46 125.52 7.96 124.78 6.72 123.78C5.48 122.78 4.52 121.54 3.84 120.06C3.16 118.58 2.82 116.82 2.82 114.78C2.82 113.66 2.9 112.68 3.06 111.84C3.22 111 3.42 110.24 3.66 109.56C3.94 108.88 4.24 108.28 4.56 107.76C4.88 107.24 5.18 106.76 5.46 106.32C6.02 105.44 6.5 104.5 6.9 103.5C7.34 102.46 7.56 101.44 7.56 100.44V100.02H2.46V92.76H9.12C11.4 92.76 13.14 93.28 14.34 94.32C15.54 95.32 16.14 96.68 16.14 98.4V98.64C16.14 99.8 15.98 100.98 15.66 102.18C15.34 103.38 14.8 104.74 14.04 106.26C13.48 107.38 13 108.42 12.6 109.38C12.24 110.3 12.06 111.5 12.06 112.98V114.6C12.06 116.12 12.48 117.32 13.32 118.2C14.16 119.04 15.34 119.46 16.86 119.46C18.38 119.46 19.56 119.06 20.4 118.26C21.28 117.42 21.72 116.24 21.72 114.72V92.76H30.42V113.4C30.42 117.56 29.24 120.82 26.88 123.18C24.56 125.54 21.28 126.72 17.04 126.72ZM16.4302 81.18H20.2102V79.14C20.2102 78.46 20.0702 77.98 19.7902 77.7C19.4702 77.38 18.8502 77.22 17.9302 77.22H16.4302V71.1H21.4102C23.3702 71.1 24.8902 71.54 25.9702 72.42C27.0502 73.26 27.5902 74.42 27.5902 75.9C27.5902 76.9 27.2902 77.84 26.6902 78.72C26.0502 79.56 25.1902 80.22 24.1102 80.7V81.18H35.2702V87.3H16.4302V81.18ZM48.4528 126.72C46.3328 126.72 44.3728 126.44 42.5728 125.88C40.7728 125.28 39.2128 124.48 37.8928 123.48C36.6128 122.44 35.5928 121.22 34.8328 119.82C34.1128 118.42 33.7528 116.88 33.7528 115.2V112.26C33.7528 110.62 34.1928 109.32 35.0728 108.36C35.9928 107.4 37.3528 106.92 39.1528 106.92H46.3528V113.46H41.7328V114.42C41.7328 116.22 42.3328 117.6 43.5328 118.56C44.7328 119.48 46.4728 119.94 48.7528 119.94C50.7928 119.94 52.3528 119.26 53.4328 117.9C54.5528 116.5 55.1128 114.6 55.1128 112.2V106.68C55.1128 104.28 54.4728 102.42 53.1928 101.1C51.9128 99.74 50.1128 99.06 47.7928 99.06C46.6728 99.06 45.6128 99.2 44.6128 99.48C43.6528 99.76 42.7728 100.12 41.9728 100.56C41.2128 101 40.5328 101.5 39.9328 102.06C39.3728 102.58 38.9328 103.08 38.6128 103.56L33.2128 98.76C34.4528 96.88 36.3128 95.3 38.7928 94.02C41.3128 92.7 44.4328 92.04 48.1528 92.04C50.6728 92.04 52.9328 92.44 54.9328 93.24C56.9728 94 58.6928 95.14 60.0928 96.66C61.4928 98.14 62.5528 99.96 63.2728 102.12C64.0328 104.24 64.4128 106.66 64.4128 109.38C64.4128 112.1 64.0528 114.54 63.3328 116.7C62.6128 118.82 61.5528 120.64 60.1528 122.16C58.7928 123.64 57.1128 124.78 55.1128 125.58C53.1528 126.34 50.9328 126.72 48.4528 126.72ZM69.2536 106.14C69.2536 103.98 69.6336 102.04 70.3936 100.32C71.1536 98.6 72.2336 97.12 73.6336 95.88C75.0336 94.64 76.7336 93.7 78.7336 93.06C80.7736 92.38 83.0536 92.04 85.5736 92.04C88.0936 92.04 90.3536 92.38 92.3536 93.06C94.3936 93.7 96.1136 94.64 97.5136 95.88C98.9136 97.12 99.9936 98.6 100.754 100.32C101.514 102.04 101.894 103.98 101.894 106.14V126H93.0136V106.56C93.0136 104.16 92.3536 102.32 91.0336 101.04C89.7136 99.72 87.8936 99.06 85.5736 99.06C83.2536 99.06 81.4336 99.72 80.1136 101.04C78.7936 102.32 78.1336 104.16 78.1336 106.56V113.7H78.4336C78.5936 112.82 78.8736 111.98 79.2736 111.18C79.6736 110.34 80.1936 109.6 80.8336 108.96C81.5136 108.32 82.3136 107.82 83.2336 107.46C84.1536 107.06 85.2336 106.86 86.4736 106.86H88.0336V115.14H85.8136C83.2136 115.14 81.2736 115.48 79.9936 116.16C78.7536 116.84 78.1336 118.1 78.1336 119.94V126H69.2536V106.14ZM118.989 126.72C117.149 126.72 115.409 126.5 113.769 126.06C112.129 125.62 110.669 124.94 109.389 124.02L112.689 117.78C113.369 118.22 114.169 118.66 115.089 119.1C116.009 119.5 117.149 119.7 118.509 119.7C120.429 119.7 121.869 119.06 122.829 117.78C123.829 116.46 124.329 114.7 124.329 112.5V106.32C124.329 104.12 123.849 102.36 122.889 101.04C121.929 99.72 120.489 99.06 118.569 99.06C116.849 99.06 115.489 99.52 114.489 100.44C113.489 101.36 112.829 102.48 112.509 103.8L105.309 100.68C106.309 97.96 107.969 95.84 110.289 94.32C112.649 92.8 115.549 92.04 118.989 92.04C121.349 92.04 123.429 92.46 125.229 93.3C127.069 94.1 128.609 95.26 129.849 96.78C131.089 98.26 132.029 100.06 132.669 102.18C133.309 104.3 133.629 106.68 133.629 109.32C133.629 111.96 133.309 114.36 132.669 116.52C132.029 118.68 131.089 120.52 129.849 122.04C128.609 123.52 127.069 124.68 125.229 125.52C123.429 126.32 121.349 126.72 118.989 126.72ZM152.622 103.98C152.622 102.46 152.222 101.26 151.422 100.38C150.662 99.5 149.382 99.06 147.582 99.06C145.862 99.06 144.502 99.44 143.502 100.2C142.502 100.92 141.662 101.76 140.982 102.72L135.702 98.04C136.982 96.16 138.562 94.7 140.442 93.66C142.362 92.58 144.962 92.04 148.242 92.04C152.602 92.04 155.902 93.02 158.142 94.98C160.382 96.94 161.502 99.8 161.502 103.56V126H152.622V103.98ZM186.855 126.72C185.415 126.72 184.155 126.54 183.075 126.18C182.035 125.82 181.115 125.36 180.315 124.8C179.555 124.2 178.915 123.52 178.395 122.76C177.915 122 177.535 121.22 177.255 120.42H176.955V126H168.075V92.76H176.955V114.36C176.955 115.2 177.135 115.94 177.495 116.58C177.855 117.22 178.315 117.76 178.875 118.2C179.475 118.64 180.135 118.98 180.855 119.22C181.615 119.42 182.355 119.52 183.075 119.52C184.195 119.52 185.115 119.34 185.835 118.98C186.595 118.62 187.175 118.14 187.575 117.54C187.975 116.9 188.255 116.18 188.415 115.38C188.575 114.58 188.655 113.74 188.655 112.86V92.76H197.535V113.64C197.535 117.84 196.635 121.08 194.835 123.36C193.035 125.6 190.375 126.72 186.855 126.72Z" fill="#E2E0E0"/>
<path d="M13.632 178.576C11.936 178.576 10.384 178.384 8.976 178C7.568 177.616 6.368 177.024 5.376 176.224C4.384 175.424 3.616 174.432 3.072 173.248C2.528 172.064 2.256 170.656 2.256 169.024C2.256 168.128 2.32 167.344 2.448 166.672C2.576 166 2.736 165.392 2.928 164.848C3.152 164.304 3.392 163.824 3.648 163.408C3.904 162.992 4.144 162.608 4.368 162.256C4.816 161.552 5.2 160.8 5.52 160C5.872 159.168 6.048 158.352 6.048 157.552V157.216H1.968V151.408H7.296C9.12 151.408 10.512 151.824 11.472 152.656C12.432 153.456 12.912 154.544 12.912 155.92V156.112C12.912 157.04 12.784 157.984 12.528 158.944C12.272 159.904 11.84 160.992 11.232 162.208C10.784 163.104 10.4 163.936 10.08 164.704C9.792 165.44 9.648 166.4 9.648 167.584V168.88C9.648 170.096 9.984 171.056 10.656 171.76C11.328 172.432 12.272 172.768 13.488 172.768C14.704 172.768 15.648 172.448 16.32 171.808C17.024 171.136 17.376 170.192 17.376 168.976V151.408H24.336V167.92C24.336 171.248 23.392 173.856 21.504 175.744C19.648 177.632 17.024 178.576 13.632 178.576ZM13.1441 142.144H16.1681V140.512C16.1681 139.968 16.0561 139.584 15.8321 139.36C15.5761 139.104 15.0801 138.976 14.3441 138.976H13.1441V134.08H17.1281C18.6961 134.08 19.9121 134.432 20.7761 135.136C21.6401 135.808 22.0721 136.736 22.0721 137.92C22.0721 138.72 21.8321 139.472 21.3521 140.176C20.8401 140.848 20.1521 141.376 19.2881 141.76V142.144H28.2161V147.04H13.1441V142.144ZM38.7623 178.576C37.0663 178.576 35.4983 178.352 34.0583 177.904C32.6183 177.424 31.3703 176.784 30.3143 175.984C29.2903 175.152 28.4743 174.176 27.8663 173.056C27.2903 171.936 27.0023 170.704 27.0023 169.36V167.008C27.0023 165.696 27.3543 164.656 28.0583 163.888C28.7943 163.12 29.8823 162.736 31.3223 162.736H37.0823V167.968H33.3863V168.736C33.3863 170.176 33.8663 171.28 34.8263 172.048C35.7863 172.784 37.1783 173.152 39.0023 173.152C40.6343 173.152 41.8823 172.608 42.7463 171.52C43.6423 170.4 44.0903 168.88 44.0903 166.96V162.544C44.0903 160.624 43.5783 159.136 42.5543 158.08C41.5303 156.992 40.0903 156.448 38.2343 156.448C37.3383 156.448 36.4903 156.56 35.6903 156.784C34.9223 157.008 34.2183 157.296 33.5783 157.648C32.9703 158 32.4263 158.4 31.9463 158.848C31.4983 159.264 31.1463 159.664 30.8903 160.048L26.5703 156.208C27.5623 154.704 29.0503 153.44 31.0343 152.416C33.0503 151.36 35.5463 150.832 38.5223 150.832C40.5383 150.832 42.3463 151.152 43.9463 151.792C45.5783 152.4 46.9543 153.312 48.0743 154.528C49.1943 155.712 50.0423 157.168 50.6183 158.896C51.2263 160.592 51.5303 162.528 51.5303 164.704C51.5303 166.88 51.2423 168.832 50.6663 170.56C50.0903 172.256 49.2423 173.712 48.1223 174.928C47.0343 176.112 45.6903 177.024 44.0903 177.664C42.5223 178.272 40.7463 178.576 38.7623 178.576ZM55.4029 162.112C55.4029 160.384 55.7069 158.832 56.3149 157.456C56.9229 156.08 57.7869 154.896 58.9069 153.904C60.0269 152.912 61.3869 152.16 62.9869 151.648C64.6189 151.104 66.4429 150.832 68.4589 150.832C70.4749 150.832 72.2829 151.104 73.8829 151.648C75.5149 152.16 76.8909 152.912 78.0109 153.904C79.1309 154.896 79.9949 156.08 80.6029 157.456C81.2109 158.832 81.5149 160.384 81.5149 162.112V178H74.4109V162.448C74.4109 160.528 73.8829 159.056 72.8269 158.032C71.7709 156.976 70.3149 156.448 68.4589 156.448C66.6029 156.448 65.1469 156.976 64.0909 158.032C63.0349 159.056 62.5069 160.528 62.5069 162.448V168.16H62.7469C62.8749 167.456 63.0989 166.784 63.4189 166.144C63.7389 165.472 64.1549 164.88 64.6669 164.368C65.2109 163.856 65.8509 163.456 66.5869 163.168C67.3229 162.848 68.1869 162.688 69.1789 162.688H70.4269V169.312H68.6509C66.5709 169.312 65.0189 169.584 63.9949 170.128C63.0029 170.672 62.5069 171.68 62.5069 173.152V178H55.4029V162.112ZM95.1911 178.576C93.7191 178.576 92.3271 178.4 91.0151 178.048C89.7031 177.696 88.5351 177.152 87.5111 176.416L90.1511 171.424C90.6951 171.776 91.3351 172.128 92.0711 172.48C92.8071 172.8 93.7191 172.96 94.8071 172.96C96.3431 172.96 97.4951 172.448 98.2631 171.424C99.0631 170.368 99.4631 168.96 99.4631 167.2V162.256C99.4631 160.496 99.0791 159.088 98.3111 158.032C97.5431 156.976 96.3911 156.448 94.8551 156.448C93.4791 156.448 92.3911 156.816 91.5911 157.552C90.7911 158.288 90.2631 159.184 90.0071 160.24L84.2471 157.744C85.0471 155.568 86.3751 153.872 88.2311 152.656C90.1191 151.44 92.4391 150.832 95.1911 150.832C97.0791 150.832 98.7431 151.168 100.183 151.84C101.655 152.48 102.887 153.408 103.879 154.624C104.871 155.808 105.623 157.248 106.135 158.944C106.647 160.64 106.903 162.544 106.903 164.656C106.903 166.768 106.647 168.688 106.135 170.416C105.623 172.144 104.871 173.616 103.879 174.832C102.887 176.016 101.655 176.944 100.183 177.616C98.7431 178.256 97.0791 178.576 95.1911 178.576ZM122.098 160.384C122.098 159.168 121.778 158.208 121.138 157.504C120.53 156.8 119.506 156.448 118.066 156.448C116.69 156.448 115.602 156.752 114.802 157.36C114.002 157.936 113.33 158.608 112.786 159.376L108.562 155.632C109.586 154.128 110.85 152.96 112.354 152.128C113.89 151.264 115.97 150.832 118.594 150.832C122.082 150.832 124.722 151.616 126.514 153.184C128.306 154.752 129.202 157.04 129.202 160.048V178H122.098V160.384ZM149.484 178.576C148.332 178.576 147.324 178.432 146.46 178.144C145.628 177.856 144.892 177.488 144.252 177.04C143.644 176.56 143.132 176.016 142.716 175.408C142.332 174.8 142.028 174.176 141.804 173.536H141.564V178H134.46V151.408H141.564V168.688C141.564 169.36 141.708 169.952 141.996 170.464C142.284 170.976 142.652 171.408 143.1 171.76C143.58 172.112 144.108 172.384 144.684 172.576C145.292 172.736 145.884 172.816 146.46 172.816C147.356 172.816 148.092 172.672 148.668 172.384C149.276 172.096 149.74 171.712 150.06 171.232C150.38 170.72 150.604 170.144 150.732 169.504C150.86 168.864 150.924 168.192 150.924 167.488V151.408H158.028V168.112C158.028 171.472 157.308 174.064 155.868 175.888C154.428 177.68 152.3 178.576 149.484 178.576Z" fill="#E2E0E0"/>
<path d="M9.088 218.384C7.95733 218.384 6.92267 218.256 5.984 218C5.04533 217.744 4.24533 217.349 3.584 216.816C2.92267 216.283 2.41067 215.621 2.048 214.832C1.68533 214.043 1.504 213.104 1.504 212.016C1.504 211.419 1.54667 210.896 1.632 210.448C1.71733 210 1.824 209.595 1.952 209.232C2.10133 208.869 2.26133 208.549 2.432 208.272C2.60267 207.995 2.76267 207.739 2.912 207.504C3.21067 207.035 3.46667 206.533 3.68 206C3.91467 205.445 4.032 204.901 4.032 204.368V204.144H1.312V200.272H4.864C6.08 200.272 7.008 200.549 7.648 201.104C8.288 201.637 8.608 202.363 8.608 203.28V203.408C8.608 204.027 8.52267 204.656 8.352 205.296C8.18133 205.936 7.89333 206.661 7.488 207.472C7.18933 208.069 6.93333 208.624 6.72 209.136C6.528 209.627 6.432 210.267 6.432 211.056V211.92C6.432 212.731 6.656 213.371 7.104 213.84C7.552 214.288 8.18133 214.512 8.992 214.512C9.80267 214.512 10.432 214.299 10.88 213.872C11.3493 213.424 11.584 212.795 11.584 211.984V200.272H16.224V211.28C16.224 213.499 15.5947 215.237 14.336 216.496C13.0987 217.755 11.3493 218.384 9.088 218.384ZM8.76275 194.096H10.7787V193.008C10.7787 192.645 10.7041 192.389 10.5547 192.24C10.3841 192.069 10.0534 191.984 9.56275 191.984H8.76275V188.72H11.4187C12.4641 188.72 13.2747 188.955 13.8507 189.424C14.4267 189.872 14.7147 190.491 14.7147 191.28C14.7147 191.813 14.5547 192.315 14.2347 192.784C13.8934 193.232 13.4347 193.584 12.8587 193.84V194.096H18.8107V197.36H8.76275V194.096ZM25.8415 218.384C24.7108 218.384 23.6655 218.235 22.7055 217.936C21.7455 217.616 20.9135 217.189 20.2095 216.656C19.5268 216.101 18.9828 215.451 18.5775 214.704C18.1935 213.957 18.0015 213.136 18.0015 212.24V210.672C18.0015 209.797 18.2362 209.104 18.7055 208.592C19.1962 208.08 19.9215 207.824 20.8815 207.824H24.7215V211.312H22.2575V211.824C22.2575 212.784 22.5775 213.52 23.2175 214.032C23.8575 214.523 24.7855 214.768 26.0015 214.768C27.0895 214.768 27.9215 214.405 28.4975 213.68C29.0948 212.933 29.3935 211.92 29.3935 210.64V207.696C29.3935 206.416 29.0522 205.424 28.3695 204.72C27.6868 203.995 26.7268 203.632 25.4895 203.632C24.8922 203.632 24.3268 203.707 23.7935 203.856C23.2815 204.005 22.8122 204.197 22.3855 204.432C21.9802 204.667 21.6175 204.933 21.2975 205.232C20.9988 205.509 20.7642 205.776 20.5935 206.032L17.7135 203.472C18.3748 202.469 19.3668 201.627 20.6895 200.944C22.0335 200.24 23.6975 199.888 25.6815 199.888C27.0255 199.888 28.2308 200.101 29.2975 200.528C30.3855 200.933 31.3028 201.541 32.0495 202.352C32.7962 203.141 33.3615 204.112 33.7455 205.264C34.1508 206.395 34.3535 207.685 34.3535 209.136C34.3535 210.587 34.1615 211.888 33.7775 213.04C33.3935 214.171 32.8282 215.141 32.0815 215.952C31.3562 216.741 30.4602 217.349 29.3935 217.776C28.3482 218.181 27.1642 218.384 25.8415 218.384ZM36.9353 207.408C36.9353 206.256 37.1379 205.221 37.5433 204.304C37.9486 203.387 38.5246 202.597 39.2713 201.936C40.0179 201.275 40.9246 200.773 41.9913 200.432C43.0793 200.069 44.2953 199.888 45.6393 199.888C46.9833 199.888 48.1886 200.069 49.2553 200.432C50.3433 200.773 51.2606 201.275 52.0073 201.936C52.7539 202.597 53.3299 203.387 53.7353 204.304C54.1406 205.221 54.3433 206.256 54.3433 207.408V218H49.6073V207.632C49.6073 206.352 49.2553 205.371 48.5513 204.688C47.8473 203.984 46.8766 203.632 45.6393 203.632C44.4019 203.632 43.4313 203.984 42.7273 204.688C42.0233 205.371 41.6713 206.352 41.6713 207.632V211.44H41.8313C41.9166 210.971 42.0659 210.523 42.2793 210.096C42.4926 209.648 42.7699 209.253 43.1113 208.912C43.4739 208.571 43.9006 208.304 44.3913 208.112C44.8819 207.899 45.4579 207.792 46.1193 207.792H46.9513V212.208H45.7673C44.3806 212.208 43.3459 212.389 42.6633 212.752C42.0019 213.115 41.6713 213.787 41.6713 214.768V218H36.9353V207.408ZM63.4607 218.384C62.4794 218.384 61.5514 218.267 60.6767 218.032C59.8021 217.797 59.0234 217.435 58.3407 216.944L60.1007 213.616C60.4634 213.851 60.8901 214.085 61.3807 214.32C61.8714 214.533 62.4794 214.64 63.2047 214.64C64.2287 214.64 64.9967 214.299 65.5087 213.616C66.0421 212.912 66.3087 211.973 66.3087 210.8V207.504C66.3087 206.331 66.0527 205.392 65.5407 204.688C65.0287 203.984 64.2607 203.632 63.2367 203.632C62.3194 203.632 61.5941 203.877 61.0607 204.368C60.5274 204.859 60.1754 205.456 60.0047 206.16L56.1647 204.496C56.6981 203.045 57.5834 201.915 58.8207 201.104C60.0794 200.293 61.6261 199.888 63.4607 199.888C64.7194 199.888 65.8287 200.112 66.7887 200.56C67.7701 200.987 68.5914 201.605 69.2527 202.416C69.9141 203.205 70.4154 204.165 70.7567 205.296C71.0981 206.427 71.2687 207.696 71.2687 209.104C71.2687 210.512 71.0981 211.792 70.7567 212.944C70.4154 214.096 69.9141 215.077 69.2527 215.888C68.5914 216.677 67.7701 217.296 66.7887 217.744C65.8287 218.171 64.7194 218.384 63.4607 218.384ZM81.3985 206.256C81.3985 205.445 81.1852 204.805 80.7585 204.336C80.3532 203.867 79.6705 203.632 78.7105 203.632C77.7932 203.632 77.0678 203.835 76.5345 204.24C76.0012 204.624 75.5532 205.072 75.1905 205.584L72.3745 203.088C73.0572 202.085 73.8998 201.307 74.9025 200.752C75.9265 200.176 77.3132 199.888 79.0625 199.888C81.3878 199.888 83.1478 200.411 84.3425 201.456C85.5372 202.501 86.1345 204.027 86.1345 206.032V218H81.3985V206.256ZM99.6563 218.384C98.8883 218.384 98.2163 218.288 97.6403 218.096C97.0856 217.904 96.5949 217.659 96.1683 217.36C95.7629 217.04 95.4216 216.677 95.1443 216.272C94.8883 215.867 94.6856 215.451 94.5363 215.024H94.3763V218H89.6403V200.272H94.3763V211.792C94.3763 212.24 94.4723 212.635 94.6643 212.976C94.8563 213.317 95.1016 213.605 95.4003 213.84C95.7203 214.075 96.0723 214.256 96.4563 214.384C96.8616 214.491 97.2563 214.544 97.6403 214.544C98.2376 214.544 98.7283 214.448 99.1123 214.256C99.5176 214.064 99.8269 213.808 100.04 213.488C100.254 213.147 100.403 212.763 100.488 212.336C100.574 211.909 100.616 211.461 100.616 210.992V200.272H105.352V211.408C105.352 213.648 104.872 215.376 103.912 216.592C102.952 217.787 101.534 218.384 99.6563 218.384Z" fill="#E2E0E0"/>
<path d="M6.792 253.288C5.976 253.288 5.232 253.192 4.56 253C3.888 252.808 3.312 252.52 2.832 252.136C2.352 251.736 1.976 251.24 1.704 250.648C1.448 250.04 1.32 249.336 1.32 248.536C1.32 248.088 1.352 247.696 1.416 247.36C1.496 247.008 1.584 246.696 1.68 246.424C1.792 246.152 1.912 245.904 2.04 245.68C2.184 245.456 2.328 245.24 2.472 245.032C2.712 244.664 2.936 244.272 3.144 243.856C3.352 243.44 3.456 243.024 3.456 242.608V242.296H1.152V239.752H3.864C4.68 239.752 5.304 239.944 5.736 240.328C6.168 240.712 6.384 241.224 6.384 241.864V241.984C6.384 242.48 6.304 242.968 6.144 243.448C5.984 243.928 5.736 244.48 5.4 245.104C5.144 245.584 4.936 246.032 4.776 246.448C4.616 246.848 4.536 247.328 4.536 247.888V248.584C4.536 249.304 4.728 249.848 5.112 250.216C5.512 250.568 6.048 250.744 6.72 250.744C7.44 250.744 7.992 250.544 8.376 250.144C8.776 249.744 8.976 249.176 8.976 248.44V239.752H12.048V248.128C12.048 249.728 11.584 250.992 10.656 251.92C9.744 252.832 8.456 253.288 6.792 253.288ZM6.83887 235.24H8.44687V234.4C8.44687 234.096 8.37487 233.88 8.23087 233.752C8.08687 233.608 7.82287 233.536 7.43888 233.536H6.83887V231.376H8.63888C9.40688 231.376 9.99888 231.552 10.4149 231.904C10.8309 232.24 11.0389 232.688 11.0389 233.248C11.0389 233.616 10.9349 233.976 10.7269 234.328C10.5029 234.664 10.1909 234.92 9.79088 235.096V235.24H14.1829V237.4H6.83887V235.24ZM19.4051 253.288C18.5731 253.288 17.8051 253.176 17.1011 252.952C16.3971 252.712 15.7891 252.392 15.2771 251.992C14.7651 251.576 14.3651 251.088 14.0771 250.528C13.7891 249.952 13.6451 249.32 13.6451 248.632V247.432C13.6451 246.824 13.7971 246.352 14.1011 246.016C14.4211 245.664 14.9251 245.488 15.6131 245.488H18.3971V247.816H16.4531V248.392C16.4531 249.224 16.7251 249.856 17.2691 250.288C17.8131 250.704 18.5651 250.912 19.5251 250.912C20.4531 250.912 21.1731 250.608 21.6851 250C22.1971 249.392 22.4531 248.552 22.4531 247.48V245.344C22.4531 244.272 22.1651 243.44 21.5891 242.848C21.0131 242.24 20.2051 241.936 19.1651 241.936C18.2371 241.936 17.4371 242.136 16.7651 242.536C16.1091 242.936 15.6211 243.376 15.3011 243.856L13.4291 242.176C13.8931 241.408 14.6131 240.768 15.5891 240.256C16.5811 239.728 17.8131 239.464 19.2851 239.464C20.2931 239.464 21.1891 239.624 21.9731 239.944C22.7571 240.248 23.4211 240.704 23.9651 241.312C24.5251 241.904 24.9491 242.632 25.2371 243.496C25.5251 244.344 25.6691 245.304 25.6691 246.376C25.6691 248.536 25.1251 250.232 24.0371 251.464C22.9491 252.68 21.4051 253.288 19.4051 253.288ZM27.8683 244.984C27.8683 244.152 28.0123 243.4 28.3003 242.728C28.5883 242.04 29.0043 241.456 29.5483 240.976C30.0923 240.496 30.7483 240.128 31.5163 239.872C32.3003 239.6 33.1803 239.464 34.1563 239.464C35.1163 239.464 35.9803 239.6 36.7483 239.872C37.5323 240.128 38.1963 240.496 38.7403 240.976C39.2843 241.456 39.7003 242.04 39.9883 242.728C40.2923 243.4 40.4443 244.152 40.4443 244.984V253H37.3723V245.152C37.3723 244.128 37.0843 243.336 36.5083 242.776C35.9483 242.216 35.1643 241.936 34.1563 241.936C33.1483 241.936 32.3563 242.216 31.7803 242.776C31.2203 243.336 30.9403 244.128 30.9403 245.152V248.08H31.0603C31.1403 247.744 31.2603 247.424 31.4203 247.12C31.5963 246.8 31.8203 246.52 32.0923 246.28C32.3643 246.04 32.6843 245.848 33.0523 245.704C33.4363 245.544 33.8763 245.464 34.3723 245.464H35.0443V248.368H34.0843C33.0603 248.368 32.2763 248.528 31.7323 248.848C31.2043 249.152 30.9403 249.664 30.9403 250.384V253H27.8683V244.984ZM47.4321 253.288C46.7281 253.288 46.0561 253.2 45.4161 253.024C44.7921 252.864 44.2401 252.616 43.7601 252.28L44.8881 250.096C45.1921 250.272 45.5361 250.44 45.9201 250.6C46.3041 250.744 46.7601 250.816 47.2881 250.816C48.1521 250.816 48.8081 250.528 49.2561 249.952C49.7201 249.36 49.9521 248.56 49.9521 247.552V245.224C49.9521 244.216 49.7281 243.416 49.2801 242.824C48.8321 242.232 48.1681 241.936 47.2881 241.936C46.5521 241.936 45.9601 242.12 45.5121 242.488C45.0641 242.856 44.7521 243.32 44.5761 243.88L42.0801 242.776C42.4801 241.752 43.1281 240.944 44.0241 240.352C44.9361 239.76 46.0721 239.464 47.4321 239.464C48.3601 239.464 49.1761 239.624 49.8801 239.944C50.6001 240.264 51.2001 240.728 51.6801 241.336C52.1761 241.928 52.5441 242.648 52.7841 243.496C53.0401 244.344 53.1681 245.296 53.1681 246.352C53.1681 247.424 53.0401 248.392 52.7841 249.256C52.5441 250.104 52.1761 250.832 51.6801 251.44C51.2001 252.032 50.6001 252.488 49.8801 252.808C49.1761 253.128 48.3601 253.288 47.4321 253.288ZM61.0043 244.144C61.0043 243.44 60.8203 242.896 60.4523 242.512C60.1003 242.128 59.5323 241.936 58.7483 241.936C58.0283 241.936 57.4523 242.088 57.0203 242.392C56.6043 242.696 56.2523 243.072 55.9643 243.52L54.1403 241.888C54.6043 241.152 55.2043 240.568 55.9403 240.136C56.6923 239.688 57.7003 239.464 58.9643 239.464C60.6443 239.464 61.9163 239.856 62.7803 240.64C63.6443 241.408 64.0763 242.52 64.0763 243.976V253H61.0043V244.144ZM73.9598 253.288C73.3998 253.288 72.9038 253.216 72.4718 253.072C72.0558 252.944 71.6878 252.768 71.3678 252.544C71.0638 252.304 70.8078 252.032 70.5998 251.728C70.4078 251.424 70.2558 251.112 70.1438 250.792H70.0238V253H66.9518V239.752H70.0238V248.536C70.0238 248.904 70.1038 249.232 70.2638 249.52C70.4238 249.792 70.6318 250.024 70.8878 250.216C71.1438 250.392 71.4318 250.528 71.7518 250.624C72.0718 250.72 72.3918 250.768 72.7118 250.768C73.1918 250.768 73.5918 250.696 73.9118 250.552C74.2318 250.392 74.4878 250.184 74.6798 249.928C74.8878 249.656 75.0318 249.344 75.1118 248.992C75.1918 248.624 75.2318 248.232 75.2318 247.816V239.752H78.3038V248.104C78.3038 249.768 77.9278 251.048 77.1758 251.944C76.4398 252.84 75.3678 253.288 73.9598 253.288Z" fill="#E2E0E0"/>
<path d="M5.66 285.24C4.98 285.24 4.36 285.16 3.8 285C3.24 284.84 2.76 284.6 2.36 284.28C1.96 283.947 1.64667 283.533 1.42 283.04C1.20667 282.533 1.1 281.947 1.1 281.28C1.1 280.907 1.12667 280.58 1.18 280.3C1.24667 280.007 1.32 279.747 1.4 279.52C1.49333 279.293 1.59333 279.087 1.7 278.9C1.82 278.713 1.94 278.533 2.06 278.36C2.26 278.053 2.44667 277.727 2.62 277.38C2.79333 277.033 2.88 276.687 2.88 276.34V276.08H0.96V273.96H3.22C3.9 273.96 4.42 274.12 4.78 274.44C5.14 274.76 5.32 275.187 5.32 275.72V275.82C5.32 276.233 5.25333 276.64 5.12 277.04C4.98667 277.44 4.78 277.9 4.5 278.42C4.28667 278.82 4.11333 279.193 3.98 279.54C3.84667 279.873 3.78 280.273 3.78 280.74V281.32C3.78 281.92 3.94 282.373 4.26 282.68C4.59333 282.973 5.04 283.12 5.6 283.12C6.2 283.12 6.66 282.953 6.98 282.62C7.31333 282.287 7.48 281.813 7.48 281.2V273.96H10.04V280.94C10.04 282.273 9.65333 283.327 8.88 284.1C8.12 284.86 7.04667 285.24 5.66 285.24ZM5.69906 270.2H7.03906V269.5C7.03906 269.247 6.97906 269.067 6.85906 268.96C6.73906 268.84 6.51906 268.78 6.19906 268.78H5.69906V266.98H7.19906C7.83906 266.98 8.3324 267.127 8.67906 267.42C9.02573 267.7 9.19906 268.073 9.19906 268.54C9.19906 268.847 9.1124 269.147 8.93906 269.44C8.7524 269.72 8.4924 269.933 8.15906 270.08V270.2H11.8191V272H5.69906V270.2ZM16.1709 285.24C15.4776 285.24 14.8376 285.147 14.2509 284.96C13.6643 284.76 13.1576 284.493 12.7309 284.16C12.3043 283.813 11.9709 283.407 11.7309 282.94C11.4909 282.46 11.3709 281.933 11.3709 281.36V280.36C11.3709 279.853 11.4976 279.46 11.7509 279.18C12.0176 278.887 12.4376 278.74 13.0109 278.74H15.3309V280.68H13.7109V281.16C13.7109 281.853 13.9376 282.38 14.3909 282.74C14.8443 283.087 15.4709 283.26 16.2709 283.26C17.0443 283.26 17.6443 283.007 18.0709 282.5C18.4976 281.993 18.7109 281.293 18.7109 280.4V278.62C18.7109 277.727 18.4709 277.033 17.9909 276.54C17.5109 276.033 16.8376 275.78 15.9709 275.78C15.1976 275.78 14.5309 275.947 13.9709 276.28C13.4243 276.613 13.0176 276.98 12.7509 277.38L11.1909 275.98C11.5776 275.34 12.1776 274.807 12.9909 274.38C13.8176 273.94 14.8443 273.72 16.0709 273.72C16.9109 273.72 17.6576 273.853 18.3109 274.12C18.9643 274.373 19.5176 274.753 19.9709 275.26C20.4376 275.753 20.7909 276.36 21.0309 277.08C21.2709 277.787 21.3909 278.587 21.3909 279.48C21.3909 281.28 20.9376 282.693 20.0309 283.72C19.1243 284.733 17.8376 285.24 16.1709 285.24ZM23.2236 278.32C23.2236 277.627 23.3436 277 23.5836 276.44C23.8236 275.867 24.1703 275.38 24.6236 274.98C25.0769 274.58 25.6236 274.273 26.2636 274.06C26.9169 273.833 27.6503 273.72 28.4636 273.72C29.2636 273.72 29.9836 273.833 30.6236 274.06C31.2769 274.273 31.8303 274.58 32.2836 274.98C32.7369 275.38 33.0836 275.867 33.3236 276.44C33.5769 277 33.7036 277.627 33.7036 278.32V285H31.1436V278.46C31.1436 277.607 30.9036 276.947 30.4236 276.48C29.9569 276.013 29.3036 275.78 28.4636 275.78C27.6236 275.78 26.9636 276.013 26.4836 276.48C26.0169 276.947 25.7836 277.607 25.7836 278.46V280.9H25.8836C25.9503 280.62 26.0503 280.353 26.1836 280.1C26.3303 279.833 26.5169 279.6 26.7436 279.4C26.9703 279.2 27.2369 279.04 27.5436 278.92C27.8636 278.787 28.2303 278.72 28.6436 278.72H29.2036V281.14H28.4036C27.5503 281.14 26.8969 281.273 26.4436 281.54C26.0036 281.793 25.7836 282.22 25.7836 282.82V285H23.2236V278.32ZM39.5267 285.24C38.9401 285.24 38.3801 285.167 37.8467 285.02C37.3267 284.887 36.8667 284.68 36.4667 284.4L37.4067 282.58C37.6601 282.727 37.9467 282.867 38.2667 283C38.5867 283.12 38.9667 283.18 39.4067 283.18C40.1267 283.18 40.6734 282.94 41.0467 282.46C41.4334 281.967 41.6267 281.3 41.6267 280.46V278.52C41.6267 277.68 41.4401 277.013 41.0667 276.52C40.6934 276.027 40.1401 275.78 39.4067 275.78C38.7934 275.78 38.3001 275.933 37.9267 276.24C37.5534 276.547 37.2934 276.933 37.1467 277.4L35.0667 276.48C35.4001 275.627 35.9401 274.953 36.6867 274.46C37.4467 273.967 38.3934 273.72 39.5267 273.72C40.3001 273.72 40.9801 273.853 41.5667 274.12C42.1667 274.387 42.6667 274.773 43.0667 275.28C43.4801 275.773 43.7867 276.373 43.9867 277.08C44.2001 277.787 44.3067 278.58 44.3067 279.46C44.3067 280.353 44.2001 281.16 43.9867 281.88C43.7867 282.587 43.4801 283.193 43.0667 283.7C42.6667 284.193 42.1667 284.573 41.5667 284.84C40.9801 285.107 40.3001 285.24 39.5267 285.24ZM50.8369 277.62C50.8369 277.033 50.6835 276.58 50.3769 276.26C50.0835 275.94 49.6102 275.78 48.9569 275.78C48.3569 275.78 47.8769 275.907 47.5169 276.16C47.1702 276.413 46.8769 276.727 46.6369 277.1L45.1169 275.74C45.5035 275.127 46.0035 274.64 46.6169 274.28C47.2435 273.907 48.0835 273.72 49.1369 273.72C50.5369 273.72 51.5969 274.047 52.3169 274.7C53.0369 275.34 53.3969 276.267 53.3969 277.48V285H50.8369V277.62ZM61.6331 285.24C61.1665 285.24 60.7531 285.18 60.3931 285.06C60.0465 284.953 59.7398 284.807 59.4731 284.62C59.2198 284.42 59.0065 284.193 58.8331 283.94C58.6731 283.687 58.5465 283.427 58.4531 283.16H58.3531V285H55.7931V273.96H58.3531V281.28C58.3531 281.587 58.4198 281.86 58.5531 282.1C58.6865 282.327 58.8598 282.52 59.0731 282.68C59.2865 282.827 59.5265 282.94 59.7931 283.02C60.0598 283.1 60.3265 283.14 60.5931 283.14C60.9931 283.14 61.3265 283.08 61.5931 282.96C61.8598 282.827 62.0731 282.653 62.2331 282.44C62.4065 282.213 62.5265 281.953 62.5931 281.66C62.6598 281.353 62.6931 281.027 62.6931 280.68V273.96H65.2531V280.92C65.2531 282.307 64.9398 283.373 64.3131 284.12C63.6998 284.867 62.8065 285.24 61.6331 285.24Z" fill="#E2E0E0"/>
<path d="M4.528 314.192C4.00533 314.192 3.52533 314.128 3.088 314C2.66133 313.872 2.288 313.68 1.968 313.424C1.65867 313.157 1.41867 312.832 1.248 312.448C1.07733 312.053 0.992 311.589 0.992 311.056C0.992 310.448 1.072 309.968 1.232 309.616C1.40267 309.253 1.59467 308.928 1.808 308.64C2 308.373 2.16 308.101 2.288 307.824C2.42667 307.547 2.496 307.264 2.496 306.976V306.672H0.88V305.216H2.704C3.184 305.216 3.552 305.333 3.808 305.568C4.07467 305.792 4.208 306.101 4.208 306.496V306.608C4.208 306.96 4.144 307.301 4.016 307.632C3.89867 307.952 3.71733 308.325 3.472 308.752C3.28 309.093 3.12533 309.408 3.008 309.696C2.90133 309.973 2.848 310.299 2.848 310.672V311.136C2.848 311.669 2.99733 312.075 3.296 312.352C3.59467 312.629 3.99467 312.768 4.496 312.768C5.02933 312.768 5.43467 312.608 5.712 312.288C6 311.957 6.144 311.504 6.144 310.928V305.216H7.888V310.864C7.888 311.899 7.6 312.715 7.024 313.312C6.448 313.899 5.616 314.192 4.528 314.192ZM4.65862 302.272H5.79462V301.712C5.79462 301.477 5.74662 301.312 5.65062 301.216C5.54396 301.109 5.35729 301.056 5.09062 301.056H4.65862V299.808H5.73062C6.24262 299.808 6.63196 299.92 6.89862 300.144C7.15462 300.357 7.28262 300.651 7.28262 301.024C7.28262 301.248 7.22396 301.472 7.10662 301.696C6.97862 301.909 6.79196 302.075 6.54662 302.192V302.272H9.42662V303.52H4.65862V302.272ZM12.8902 314.192C12.3569 314.192 11.8556 314.117 11.3862 313.968C10.9276 313.808 10.5276 313.595 10.1862 313.328C9.85558 313.051 9.59425 312.72 9.40225 312.336C9.21025 311.952 9.11425 311.525 9.11425 311.056V310.256C9.11425 309.883 9.19958 309.595 9.37025 309.392C9.54092 309.179 9.85025 309.072 10.2982 309.072H12.0902V310.448H10.7622V310.928C10.7622 311.568 10.9596 312.037 11.3542 312.336C11.7596 312.624 12.2982 312.768 12.9702 312.768C13.6636 312.768 14.1969 312.555 14.5703 312.128C14.9542 311.701 15.1462 311.099 15.1462 310.32V308.944C15.1462 308.155 14.9329 307.541 14.5062 307.104C14.0902 306.667 13.4982 306.448 12.7302 306.448C12.0902 306.448 11.5409 306.581 11.0822 306.848C10.6342 307.115 10.2929 307.435 10.0582 307.808L8.97025 306.832C9.27958 306.32 9.75425 305.893 10.3942 305.552C11.0342 305.2 11.8396 305.024 12.8102 305.024C14.1329 305.024 15.1623 305.429 15.8983 306.24C16.6342 307.04 17.0022 308.16 17.0022 309.6C17.0022 310.304 16.9116 310.944 16.7303 311.52C16.5489 312.085 16.2822 312.565 15.9302 312.96C15.5782 313.355 15.1462 313.659 14.6342 313.872C14.1222 314.085 13.5409 314.192 12.8902 314.192ZM18.6276 308.608C18.6276 308.064 18.7183 307.573 18.8996 307.136C19.0916 306.688 19.3636 306.309 19.7156 306C20.0676 305.68 20.489 305.44 20.9796 305.28C21.481 305.109 22.041 305.024 22.6596 305.024C23.2783 305.024 23.833 305.109 24.3236 305.28C24.825 305.44 25.2516 305.68 25.6036 306C25.9556 306.309 26.2223 306.688 26.4036 307.136C26.5956 307.573 26.6916 308.064 26.6916 308.608V314H24.9476V308.72C24.9476 307.984 24.745 307.424 24.3396 307.04C23.9343 306.645 23.3743 306.448 22.6596 306.448C21.945 306.448 21.385 306.645 20.9796 307.04C20.5743 307.424 20.3716 307.984 20.3716 308.72V310.736H20.4516C20.5156 310.523 20.6063 310.315 20.7236 310.112C20.841 309.909 20.9903 309.733 21.1716 309.584C21.353 309.424 21.5716 309.296 21.8276 309.2C22.0836 309.104 22.3823 309.056 22.7236 309.056H23.2036V310.736H22.5316C21.8383 310.736 21.305 310.853 20.9316 311.088C20.5583 311.312 20.3716 311.664 20.3716 312.144V314H18.6276V308.608ZM31.4499 314.192C31.0019 314.192 30.5752 314.139 30.1699 314.032C29.7645 313.925 29.4072 313.765 29.0979 313.552L29.7539 312.304C29.9672 312.432 30.2019 312.544 30.4579 312.64C30.7245 312.725 31.0285 312.768 31.3699 312.768C32.0099 312.768 32.5005 312.555 32.8419 312.128C33.1939 311.691 33.3699 311.093 33.3699 310.336V308.88C33.3699 308.133 33.1992 307.541 32.8579 307.104C32.5272 306.667 32.0365 306.448 31.3859 306.448C30.8632 306.448 30.4365 306.571 30.1059 306.816C29.7752 307.051 29.5352 307.371 29.3859 307.776L27.9619 307.104C28.2285 306.464 28.6552 305.957 29.2419 305.584C29.8285 305.211 30.5645 305.024 31.4499 305.024C32.0579 305.024 32.5965 305.131 33.0659 305.344C33.5352 305.557 33.9299 305.861 34.2499 306.256C34.5699 306.651 34.8099 307.131 34.9699 307.696C35.1405 308.261 35.2259 308.896 35.2259 309.6C35.2259 310.304 35.1405 310.944 34.9699 311.52C34.7992 312.085 34.5539 312.565 34.2339 312.96C33.9139 313.355 33.5192 313.659 33.0499 313.872C32.5805 314.085 32.0472 314.192 31.4499 314.192ZM40.6089 308.048C40.6089 307.536 40.4755 307.141 40.2089 306.864C39.9422 306.587 39.5209 306.448 38.9449 306.448C38.4542 306.448 38.0595 306.555 37.7609 306.768C37.4622 306.971 37.2062 307.237 36.9929 307.568L35.9369 306.64C36.2249 306.16 36.6142 305.771 37.1049 305.472C37.5955 305.173 38.2462 305.024 39.0569 305.024C40.1235 305.024 40.9395 305.275 41.5049 305.776C42.0702 306.277 42.3529 306.997 42.3529 307.936V314H40.6089V308.048ZM48.8013 314.192C48.4279 314.192 48.0973 314.144 47.8093 314.048C47.5319 313.963 47.2919 313.845 47.0893 313.696C46.8866 313.536 46.7159 313.36 46.5773 313.168C46.4386 312.965 46.3319 312.757 46.2573 312.544H46.1773V314H44.4333V305.216H46.1773V311.136C46.1773 311.403 46.2359 311.637 46.3533 311.84C46.4706 312.032 46.6199 312.192 46.8013 312.32C46.9826 312.448 47.1906 312.544 47.4253 312.608C47.6599 312.661 47.8999 312.688 48.1453 312.688C48.8173 312.688 49.2919 312.507 49.5693 312.144C49.8573 311.771 50.0013 311.253 50.0013 310.592V305.216H51.7453V310.784C51.7453 311.883 51.4893 312.725 50.9773 313.312C50.4653 313.899 49.7399 314.192 48.8013 314.192Z" fill="#E2E0E0"/>
<path d="M3.962 342.168C3.50467 342.168 3.08467 342.112 2.702 342C2.32867 341.888 2.002 341.72 1.722 341.496C1.45133 341.263 1.24133 340.978 1.092 340.642C0.942667 340.297 0.868 339.891 0.868 339.424C0.868 338.892 0.938 338.472 1.078 338.164C1.22733 337.847 1.39533 337.562 1.582 337.31C1.75 337.077 1.89 336.839 2.002 336.596C2.12333 336.353 2.184 336.106 2.184 335.854V335.588H0.77V334.314H2.366C2.786 334.314 3.108 334.417 3.332 334.622C3.56533 334.818 3.682 335.089 3.682 335.434V335.532C3.682 335.84 3.626 336.139 3.514 336.428C3.41133 336.708 3.25267 337.035 3.038 337.408C2.87 337.707 2.73467 337.982 2.632 338.234C2.53867 338.477 2.492 338.761 2.492 339.088V339.494C2.492 339.961 2.62267 340.315 2.884 340.558C3.14533 340.801 3.49533 340.922 3.934 340.922C4.40067 340.922 4.75533 340.782 4.998 340.502C5.25 340.213 5.376 339.816 5.376 339.312V334.314H6.902V339.256C6.902 340.161 6.65 340.875 6.146 341.398C5.642 341.911 4.914 342.168 3.962 342.168ZM4.0763 331.738H5.0703V331.248C5.0703 331.043 5.0283 330.898 4.9443 330.814C4.85096 330.721 4.68763 330.674 4.4543 330.674H4.0763V329.582H5.0143C5.4623 329.582 5.80296 329.68 6.0363 329.876C6.2603 330.063 6.3723 330.319 6.3723 330.646C6.3723 330.842 6.32096 331.038 6.2183 331.234C6.1063 331.421 5.94296 331.565 5.7283 331.668V331.738H8.2483V332.83H4.0763V331.738ZM11.279 342.168C10.8123 342.168 10.3736 342.103 9.96297 341.972C9.56164 341.832 9.21164 341.645 8.91297 341.412C8.62364 341.169 8.39497 340.88 8.22697 340.544C8.05897 340.208 7.97497 339.835 7.97497 339.424V338.724C7.97497 338.397 8.04964 338.145 8.19897 337.968C8.3483 337.781 8.61897 337.688 9.01097 337.688H10.579V338.892H9.41697V339.312C9.41697 339.872 9.58964 340.283 9.93497 340.544C10.2896 340.796 10.761 340.922 11.349 340.922C11.9556 340.922 12.4223 340.735 12.749 340.362C13.085 339.989 13.253 339.461 13.253 338.78V337.576C13.253 336.885 13.0663 336.349 12.693 335.966C12.329 335.583 11.811 335.392 11.139 335.392C10.579 335.392 10.0983 335.509 9.69697 335.742C9.30497 335.975 9.0063 336.255 8.80097 336.582L7.84897 335.728C8.11964 335.28 8.53497 334.907 9.09497 334.608C9.65497 334.3 10.3596 334.146 11.209 334.146C12.3663 334.146 13.267 334.501 13.911 335.21C14.555 335.91 14.877 336.89 14.877 338.15C14.877 338.766 14.7976 339.326 14.639 339.83C14.4803 340.325 14.247 340.745 13.939 341.09C13.631 341.435 13.253 341.701 12.805 341.888C12.357 342.075 11.8483 342.168 11.279 342.168ZM16.2992 337.282C16.2992 336.806 16.3785 336.377 16.5372 335.994C16.7052 335.602 16.9432 335.271 17.2512 335C17.5592 334.72 17.9278 334.51 18.3572 334.37C18.7958 334.221 19.2858 334.146 19.8272 334.146C20.3685 334.146 20.8538 334.221 21.2832 334.37C21.7218 334.51 22.0952 334.72 22.4032 335C22.7112 335.271 22.9445 335.602 23.1032 335.994C23.2712 336.377 23.3552 336.806 23.3552 337.282V342H21.8292V337.38C21.8292 336.736 21.6518 336.246 21.2972 335.91C20.9425 335.565 20.4525 335.392 19.8272 335.392C19.2018 335.392 18.7118 335.565 18.3572 335.91C18.0025 336.246 17.8252 336.736 17.8252 337.38V339.144H17.8952C17.9512 338.957 18.0305 338.775 18.1332 338.598C18.2358 338.421 18.3665 338.267 18.5252 338.136C18.6838 337.996 18.8752 337.884 19.0992 337.8C19.3232 337.716 19.5845 337.674 19.8832 337.674H20.3032V339.144H19.7152C19.1085 339.144 18.6418 339.247 18.3152 339.452C17.9885 339.648 17.8252 339.956 17.8252 340.376V342H16.2992V337.282ZM27.5186 342.168C27.1266 342.168 26.7533 342.121 26.3986 342.028C26.044 341.935 25.7313 341.795 25.4606 341.608L26.0346 340.516C26.2213 340.628 26.4266 340.726 26.6506 340.81C26.884 340.885 27.15 340.922 27.4486 340.922C28.0086 340.922 28.438 340.735 28.7366 340.362C29.0446 339.979 29.1986 339.457 29.1986 338.794V337.52C29.1986 336.867 29.0493 336.349 28.7506 335.966C28.4613 335.583 28.032 335.392 27.4626 335.392C27.0053 335.392 26.632 335.499 26.3426 335.714C26.0533 335.919 25.8433 336.199 25.7126 336.554L24.4666 335.966C24.7 335.406 25.0733 334.963 25.5866 334.636C26.1 334.309 26.744 334.146 27.5186 334.146C28.0506 334.146 28.522 334.239 28.9326 334.426C29.3433 334.613 29.6886 334.879 29.9686 335.224C30.2486 335.569 30.4586 335.989 30.5986 336.484C30.748 336.979 30.8226 337.534 30.8226 338.15C30.8226 338.766 30.748 339.326 30.5986 339.83C30.4493 340.325 30.2346 340.745 29.9546 341.09C29.6746 341.435 29.3293 341.701 28.9186 341.888C28.508 342.075 28.0413 342.168 27.5186 342.168ZM35.5328 336.792C35.5328 336.344 35.4161 335.999 35.1828 335.756C34.9494 335.513 34.5808 335.392 34.0768 335.392C33.6474 335.392 33.3021 335.485 33.0408 335.672C32.7794 335.849 32.5554 336.083 32.3688 336.372L31.4448 335.56C31.6968 335.14 32.0374 334.799 32.4668 334.538C32.8961 334.277 33.4654 334.146 34.1748 334.146C35.1081 334.146 35.8221 334.365 36.3168 334.804C36.8114 335.243 37.0588 335.873 37.0588 336.694V342H35.5328V336.792ZM42.7011 342.168C42.3744 342.168 42.0851 342.126 41.8331 342.042C41.5904 341.967 41.3804 341.865 41.2031 341.734C41.0258 341.594 40.8764 341.44 40.7551 341.272C40.6338 341.095 40.5404 340.913 40.4751 340.726H40.4051V342H38.8791V334.314H40.4051V339.494C40.4051 339.727 40.4564 339.933 40.5591 340.11C40.6618 340.278 40.7924 340.418 40.9511 340.53C41.1098 340.642 41.2918 340.726 41.4971 340.782C41.7024 340.829 41.9124 340.852 42.1271 340.852C42.7151 340.852 43.1304 340.693 43.3731 340.376C43.6251 340.049 43.7511 339.597 43.7511 339.018V334.314H45.2771V339.186C45.2771 340.147 45.0531 340.885 44.6051 341.398C44.1571 341.911 43.5224 342.168 42.7011 342.168Z" fill="#E2E0E0"/>
</svg>
