<svg width="102" height="126" viewBox="0 0 102 126" fill="none" xmlns="http://www.w3.org/2000/svg">
<path d="M1.44 9.224H8.16C10 9.224 11.472 9.712 12.576 10.688C13.696 11.664 14.256 13 14.256 14.696C14.256 16.456 13.704 17.8 12.6 18.728C11.496 19.64 10.008 20.096 8.136 20.096H4.488V26H1.44V9.224ZM7.776 17.576C10.064 17.576 11.208 16.616 11.208 14.696C11.208 12.728 10.064 11.744 7.776 11.744H4.488V17.576H7.776ZM16.1822 9.224H23.1902C25.0462 9.224 26.4782 9.68 27.4862 10.592C28.4942 11.504 28.9982 12.824 28.9982 14.552C28.9982 15.784 28.6942 16.832 28.0862 17.696C27.4782 18.56 26.6142 19.176 25.4942 19.544L28.9022 26H25.7822L22.5422 19.856H19.2302V26H16.1822V9.224ZM22.6382 17.336C23.6302 17.336 24.4302 17.104 25.0382 16.64C25.6462 16.176 25.9502 15.48 25.9502 14.552C25.9502 12.68 24.8462 11.744 22.6382 11.744H19.2302V17.336H22.6382ZM39.4656 26.36C37.7856 26.36 36.2656 26 34.9056 25.28C33.5616 24.544 32.4976 23.512 31.7136 22.184C30.9456 20.856 30.5616 19.336 30.5616 17.624C30.5616 15.912 30.9456 14.392 31.7136 13.064C32.4976 11.736 33.5616 10.704 34.9056 9.968C36.2656 9.232 37.7856 8.864 39.4656 8.864C41.1296 8.864 42.6336 9.232 43.9776 9.968C45.3376 10.704 46.4016 11.736 47.1696 13.064C47.9536 14.392 48.3456 15.912 48.3456 17.624C48.3456 19.336 47.9536 20.856 47.1696 22.184C46.4016 23.496 45.3376 24.52 43.9776 25.256C42.6336 25.992 41.1296 26.36 39.4656 26.36ZM39.4656 23.6C40.5376 23.6 41.5136 23.36 42.3936 22.88C43.2736 22.384 43.9696 21.688 44.4816 20.792C45.0096 19.88 45.2736 18.824 45.2736 17.624C45.2736 16.44 45.0176 15.4 44.5056 14.504C43.9936 13.592 43.2976 12.888 42.4176 12.392C41.5376 11.896 40.5536 11.648 39.4656 11.648C38.3776 11.648 37.3856 11.896 36.4896 12.392C35.6096 12.888 34.9136 13.592 34.4016 14.504C33.8896 15.4 33.6336 16.44 33.6336 17.624C33.6336 18.824 33.8896 19.88 34.4016 20.792C34.9296 21.688 35.6336 22.384 36.5136 22.88C37.4096 23.36 38.3936 23.6 39.4656 23.6ZM50.7525 9.224H53.7285L59.3445 21.512L64.9605 9.224H67.9365V26H65.0565V15.104L60.0645 26H58.6245L53.6325 15.104V26H50.7525V9.224ZM70.815 9.224H77.535C79.375 9.224 80.847 9.712 81.951 10.688C83.071 11.664 83.631 13 83.631 14.696C83.631 16.456 83.079 17.8 81.975 18.728C80.871 19.64 79.383 20.096 77.511 20.096H73.863V26H70.815V9.224ZM77.151 17.576C79.439 17.576 80.583 16.616 80.583 14.696C80.583 12.728 79.439 11.744 77.151 11.744H73.863V17.576H77.151ZM89.0518 11.744H83.9878V9.224H97.1638V11.744H92.0998V26H89.0518V11.744Z" fill="#E2E0E0"/>
<path d="M0.96 53.816H5.44C6.66667 53.816 7.648 54.1413 8.384 54.792C9.13067 55.4427 9.504 56.3333 9.504 57.464C9.504 58.6373 9.136 59.5333 8.4 60.152C7.664 60.76 6.672 61.064 5.424 61.064H2.992V65H0.96V53.816ZM5.184 59.384C6.70933 59.384 7.472 58.744 7.472 57.464C7.472 56.152 6.70933 55.496 5.184 55.496H2.992V59.384H5.184ZM10.7881 53.816H15.4601C16.6975 53.816 17.6521 54.12 18.3241 54.728C18.9961 55.336 19.3321 56.216 19.3321 57.368C19.3321 58.1893 19.1295 58.888 18.7241 59.464C18.3188 60.04 17.7428 60.4507 16.9961 60.696L19.2681 65H17.1881L15.0281 60.904H12.8201V65H10.7881V53.816ZM15.0921 59.224C15.7535 59.224 16.2868 59.0693 16.6921 58.76C17.0975 58.4507 17.3001 57.9867 17.3001 57.368C17.3001 56.12 16.5641 55.496 15.0921 55.496H12.8201V59.224H15.0921ZM26.3104 65.24C25.1904 65.24 24.177 65 23.2704 64.52C22.3744 64.0293 21.665 63.3413 21.1424 62.456C20.6304 61.5707 20.3744 60.5573 20.3744 59.416C20.3744 58.2747 20.6304 57.2613 21.1424 56.376C21.665 55.4907 22.3744 54.8027 23.2704 54.312C24.177 53.8213 25.1904 53.576 26.3104 53.576C27.4197 53.576 28.4224 53.8213 29.3184 54.312C30.225 54.8027 30.9344 55.4907 31.4464 56.376C31.969 57.2613 32.2304 58.2747 32.2304 59.416C32.2304 60.5573 31.969 61.5707 31.4464 62.456C30.9344 63.3307 30.225 64.0133 29.3184 64.504C28.4224 64.9947 27.4197 65.24 26.3104 65.24ZM26.3104 63.4C27.025 63.4 27.6757 63.24 28.2624 62.92C28.849 62.5893 29.313 62.1253 29.6544 61.528C30.0064 60.92 30.1824 60.216 30.1824 59.416C30.1824 58.6267 30.0117 57.9333 29.6704 57.336C29.329 56.728 28.865 56.2587 28.2784 55.928C27.6917 55.5973 27.0357 55.432 26.3104 55.432C25.585 55.432 24.9237 55.5973 24.3264 55.928C23.7397 56.2587 23.2757 56.728 22.9344 57.336C22.593 57.9333 22.4224 58.6267 22.4224 59.416C22.4224 60.216 22.593 60.92 22.9344 61.528C23.2864 62.1253 23.7557 62.5893 24.3424 62.92C24.9397 63.24 25.5957 63.4 26.3104 63.4ZM33.835 53.816H35.819L39.563 62.008L43.307 53.816H45.291V65H43.371V57.736L40.043 65H39.083L35.755 57.736V65H33.835V53.816ZM47.21 53.816H51.69C52.9167 53.816 53.898 54.1413 54.634 54.792C55.3807 55.4427 55.754 56.3333 55.754 57.464C55.754 58.6373 55.386 59.5333 54.65 60.152C53.914 60.76 52.922 61.064 51.674 61.064H49.242V65H47.21V53.816ZM51.434 59.384C52.9593 59.384 53.722 58.744 53.722 57.464C53.722 56.152 52.9593 55.496 51.434 55.496H49.242V59.384H51.434ZM59.3679 55.496H55.9919V53.816H64.7759V55.496H61.3999V65H59.3679V55.496Z" fill="#E2E0E0"/>
<path d="M0.72 88.612H4.08C5 88.612 5.736 88.856 6.288 89.344C6.848 89.832 7.128 90.5 7.128 91.348C7.128 92.228 6.852 92.9 6.3 93.364C5.748 93.82 5.004 94.048 4.068 94.048H2.244V97H0.72V88.612ZM3.888 92.788C5.032 92.788 5.604 92.308 5.604 91.348C5.604 90.364 5.032 89.872 3.888 89.872H2.244V92.788H3.888ZM8.09109 88.612H11.5951C12.5231 88.612 13.2391 88.84 13.7431 89.296C14.2471 89.752 14.4991 90.412 14.4991 91.276C14.4991 91.892 14.3471 92.416 14.0431 92.848C13.7391 93.28 13.3071 93.588 12.7471 93.772L14.4511 97H12.8911L11.2711 93.928H9.61509V97H8.09109V88.612ZM11.3191 92.668C11.8151 92.668 12.2151 92.552 12.5191 92.32C12.8231 92.088 12.9751 91.74 12.9751 91.276C12.9751 90.34 12.4231 89.872 11.3191 89.872H9.61509V92.668H11.3191ZM19.7328 97.18C18.8928 97.18 18.1328 97 17.4528 96.64C16.7808 96.272 16.2488 95.756 15.8568 95.092C15.4728 94.428 15.2808 93.668 15.2808 92.812C15.2808 91.956 15.4728 91.196 15.8568 90.532C16.2488 89.868 16.7808 89.352 17.4528 88.984C18.1328 88.616 18.8928 88.432 19.7328 88.432C20.5648 88.432 21.3168 88.616 21.9888 88.984C22.6688 89.352 23.2008 89.868 23.5848 90.532C23.9768 91.196 24.1728 91.956 24.1728 92.812C24.1728 93.668 23.9768 94.428 23.5848 95.092C23.2008 95.748 22.6688 96.26 21.9888 96.628C21.3168 96.996 20.5648 97.18 19.7328 97.18ZM19.7328 95.8C20.2688 95.8 20.7568 95.68 21.1968 95.44C21.6368 95.192 21.9848 94.844 22.2408 94.396C22.5048 93.94 22.6368 93.412 22.6368 92.812C22.6368 92.22 22.5088 91.7 22.2528 91.252C21.9968 90.796 21.6488 90.444 21.2088 90.196C20.7688 89.948 20.2768 89.824 19.7328 89.824C19.1888 89.824 18.6928 89.948 18.2448 90.196C17.8048 90.444 17.4568 90.796 17.2008 91.252C16.9448 91.7 16.8168 92.22 16.8168 92.812C16.8168 93.412 16.9448 93.94 17.2008 94.396C17.4648 94.844 17.8168 95.192 18.2568 95.44C18.7048 95.68 19.1968 95.8 19.7328 95.8ZM25.3763 88.612H26.8643L29.6723 94.756L32.4803 88.612H33.9683V97H32.5283V91.552L30.0323 97H29.3123L26.8163 91.552V97H25.3763V88.612ZM35.4075 88.612H38.7675C39.6875 88.612 40.4235 88.856 40.9755 89.344C41.5355 89.832 41.8155 90.5 41.8155 91.348C41.8155 92.228 41.5395 92.9 40.9875 93.364C40.4355 93.82 39.6915 94.048 38.7555 94.048H36.9315V97H35.4075V88.612ZM38.5755 92.788C39.7195 92.788 40.2915 92.308 40.2915 91.348C40.2915 90.364 39.7195 89.872 38.5755 89.872H36.9315V92.788H38.5755ZM44.5259 89.872H41.9939V88.612H48.5819V89.872H46.0499V97H44.5259V89.872Z" fill="#E2E0E0"/>
<path d="M0.48 117.408H2.72C3.33333 117.408 3.824 117.571 4.192 117.896C4.56533 118.221 4.752 118.667 4.752 119.232C4.752 119.819 4.568 120.267 4.2 120.576C3.832 120.88 3.336 121.032 2.712 121.032H1.496V123H0.48V117.408ZM2.592 120.192C3.35467 120.192 3.736 119.872 3.736 119.232C3.736 118.576 3.35467 118.248 2.592 118.248H1.496V120.192H2.592ZM5.39406 117.408H7.73006C8.34873 117.408 8.82606 117.56 9.16206 117.864C9.49806 118.168 9.66606 118.608 9.66606 119.184C9.66606 119.595 9.56473 119.944 9.36206 120.232C9.1594 120.52 8.8714 120.725 8.49806 120.848L9.63406 123H8.59406L7.51406 120.952H6.41006V123H5.39406V117.408ZM7.54606 120.112C7.87673 120.112 8.1434 120.035 8.34606 119.88C8.54873 119.725 8.65006 119.493 8.65006 119.184C8.65006 118.56 8.28206 118.248 7.54606 118.248H6.41006V120.112H7.54606ZM13.1552 123.12C12.5952 123.12 12.0885 123 11.6352 122.76C11.1872 122.515 10.8325 122.171 10.5712 121.728C10.3152 121.285 10.1872 120.779 10.1872 120.208C10.1872 119.637 10.3152 119.131 10.5712 118.688C10.8325 118.245 11.1872 117.901 11.6352 117.656C12.0885 117.411 12.5952 117.288 13.1552 117.288C13.7099 117.288 14.2112 117.411 14.6592 117.656C15.1125 117.901 15.4672 118.245 15.7232 118.688C15.9845 119.131 16.1152 119.637 16.1152 120.208C16.1152 120.779 15.9845 121.285 15.7232 121.728C15.4672 122.165 15.1125 122.507 14.6592 122.752C14.2112 122.997 13.7099 123.12 13.1552 123.12ZM13.1552 122.2C13.5125 122.2 13.8379 122.12 14.1312 121.96C14.4245 121.795 14.6565 121.563 14.8272 121.264C15.0032 120.96 15.0912 120.608 15.0912 120.208C15.0912 119.813 15.0059 119.467 14.8352 119.168C14.6645 118.864 14.4325 118.629 14.1392 118.464C13.8459 118.299 13.5179 118.216 13.1552 118.216C12.7925 118.216 12.4619 118.299 12.1632 118.464C11.8699 118.629 11.6379 118.864 11.4672 119.168C11.2965 119.467 11.2112 119.813 11.2112 120.208C11.2112 120.608 11.2965 120.96 11.4672 121.264C11.6432 121.563 11.8779 121.795 12.1712 121.96C12.4699 122.12 12.7979 122.2 13.1552 122.2ZM16.9175 117.408H17.9095L19.7815 121.504L21.6535 117.408H22.6455V123H21.6855V119.368L20.0215 123H19.5415L17.8775 119.368V123H16.9175V117.408ZM23.605 117.408H25.845C26.4583 117.408 26.949 117.571 27.317 117.896C27.6903 118.221 27.877 118.667 27.877 119.232C27.877 119.819 27.693 120.267 27.325 120.576C26.957 120.88 26.461 121.032 25.837 121.032H24.621V123H23.605V117.408ZM25.717 120.192C26.4797 120.192 26.861 119.872 26.861 119.232C26.861 118.576 26.4797 118.248 25.717 118.248H24.621V120.192H25.717ZM29.6839 118.248H27.9959V117.408H32.3879V118.248H30.6999V123H29.6839V118.248Z" fill="#E2E0E0"/>
</svg>
