<svg width="269" height="180" viewBox="0 0 269 180" fill="none" xmlns="http://www.w3.org/2000/svg">
<path d="M1.62 0.835998H12.708C15.636 0.835998 17.976 1.604 19.728 3.14C21.48 4.676 22.356 6.824 22.356 9.584C22.356 12.416 21.48 14.612 19.728 16.172C18 17.708 15.66 18.476 12.708 18.476H7.992V26H1.62V0.835998ZM11.7 13.112C12.972 13.112 13.968 12.848 14.688 12.32C15.432 11.792 15.804 10.88 15.804 9.584C15.804 8.288 15.444 7.4 14.724 6.92C14.004 6.44 12.996 6.2 11.7 6.2H7.992V13.112H11.7ZM24.5067 0.835998H35.8107C38.7627 0.835998 41.0667 1.58 42.7227 3.068C44.4027 4.556 45.2427 6.692 45.2427 9.476C45.2427 11.348 44.8347 12.944 44.0187 14.264C43.2027 15.584 42.0507 16.568 40.5627 17.216L45.0267 26H38.4747L34.4787 18.116H30.8787V26H24.5067V0.835998ZM34.6947 12.752C35.9667 12.752 36.9507 12.512 37.6467 12.032C38.3427 11.528 38.6907 10.676 38.6907 9.476C38.6907 8.228 38.3427 7.376 37.6467 6.92C36.9747 6.44 35.9907 6.2 34.6947 6.2H30.8787V12.752H34.6947ZM60.0688 26.54C57.5248 26.54 55.2208 25.988 53.1568 24.884C51.1168 23.78 49.4968 22.244 48.2968 20.276C47.1208 18.284 46.5328 16.004 46.5328 13.436C46.5328 10.868 47.1208 8.588 48.2968 6.596C49.4968 4.604 51.1168 3.056 53.1568 1.952C55.2208 0.847998 57.5248 0.295998 60.0688 0.295998C62.5888 0.295998 64.8688 0.847998 66.9088 1.952C68.9728 3.056 70.5928 4.604 71.7688 6.596C72.9448 8.588 73.5328 10.868 73.5328 13.436C73.5328 16.004 72.9448 18.284 71.7688 20.276C70.5928 22.244 68.9728 23.78 66.9088 24.884C64.8688 25.988 62.5888 26.54 60.0688 26.54ZM60.0688 20.564C61.3408 20.564 62.5048 20.276 63.5608 19.7C64.6168 19.124 65.4568 18.296 66.0808 17.216C66.7048 16.136 67.0168 14.876 67.0168 13.436C67.0168 11.996 66.7048 10.748 66.0808 9.692C65.4808 8.612 64.6528 7.784 63.5968 7.208C62.5408 6.608 61.3648 6.308 60.0688 6.308C58.7488 6.308 57.5608 6.608 56.5048 7.208C55.4488 7.784 54.6088 8.612 53.9848 9.692C53.3848 10.748 53.0848 11.996 53.0848 13.436C53.0848 14.876 53.3848 16.136 53.9848 17.216C54.6088 18.296 55.4488 19.124 56.5048 19.7C57.5848 20.276 58.7728 20.564 60.0688 20.564ZM76.0458 0.835998H82.1658L89.4378 16.424L96.7458 0.835998H102.83V26H96.8898V13.364L90.8778 26H87.9978L82.0218 13.364V26H76.0458V0.835998ZM106.069 0.835998H117.157C120.085 0.835998 122.425 1.604 124.177 3.14C125.929 4.676 126.805 6.824 126.805 9.584C126.805 12.416 125.929 14.612 124.177 16.172C122.449 17.708 120.109 18.476 117.157 18.476H112.441V26H106.069V0.835998ZM116.149 13.112C117.421 13.112 118.417 12.848 119.137 12.32C119.881 11.792 120.253 10.88 120.253 9.584C120.253 8.288 119.893 7.4 119.173 6.92C118.453 6.44 117.445 6.2 116.149 6.2H112.441V13.112H116.149ZM133.874 6.2H126.782V0.835998H147.374V6.2H140.246V26H133.874V6.2Z" fill="#F8F3EC"/>
<path d="M1.664 42.632H11.072C13.6107 42.632 15.6373 43.304 17.152 44.648C18.6667 45.9707 19.424 47.816 19.424 50.184C19.424 52.616 18.6667 54.4827 17.152 55.784C15.6587 57.0853 13.632 57.736 11.072 57.736H6.528V65H1.664V42.632ZM10.368 53.672C13.12 53.672 14.496 52.5093 14.496 50.184C14.496 48.8827 14.1227 47.976 13.376 47.464C12.6507 46.952 11.648 46.696 10.368 46.696H6.528V53.672H10.368ZM21.664 42.632H31.36C33.8987 42.632 35.872 43.272 37.28 44.552C38.7093 45.8107 39.424 47.6347 39.424 50.024C39.424 51.688 39.04 53.1067 38.272 54.28C37.504 55.432 36.416 56.2747 35.008 56.808L39.264 65H34.272L30.336 57.416H26.528V65H21.664V42.632ZM30.496 53.352C31.7333 53.352 32.704 53.0853 33.408 52.552C34.1333 52.0187 34.496 51.176 34.496 50.024C34.496 48.808 34.144 47.9547 33.44 47.464C32.736 46.952 31.7547 46.696 30.496 46.696H26.528V53.352H30.496ZM52.992 65.48C50.752 65.48 48.7147 64.9893 46.88 64.008C45.0667 63.0267 43.6373 61.6613 42.592 59.912C41.5467 58.1413 41.024 56.1147 41.024 53.832C41.024 51.5493 41.5467 49.5227 42.592 47.752C43.6373 45.9813 45.0667 44.6053 46.88 43.624C48.7147 42.6427 50.752 42.152 52.992 42.152C55.232 42.152 57.248 42.6427 59.04 43.624C60.8533 44.6053 62.2827 45.9813 63.328 47.752C64.3733 49.5227 64.896 51.5493 64.896 53.832C64.896 56.1147 64.3733 58.1413 63.328 59.912C62.2827 61.6613 60.8533 63.0267 59.04 64.008C57.248 64.9893 55.232 65.48 52.992 65.48ZM52.992 61C54.272 61 55.4347 60.712 56.48 60.136C57.5467 59.5387 58.3893 58.7067 59.008 57.64C59.6267 56.552 59.936 55.2827 59.936 53.832C59.936 52.4027 59.6267 51.1547 59.008 50.088C58.4107 49 57.5787 48.168 56.512 47.592C55.4667 46.9947 54.2933 46.696 52.992 46.696C51.6693 46.696 50.4747 46.9947 49.408 47.592C48.3627 48.168 47.5307 49 46.912 50.088C46.2933 51.1547 45.984 52.4027 45.984 53.832C45.984 55.2827 46.2933 56.552 46.912 57.64C47.5307 58.7067 48.3733 59.5387 49.44 60.136C50.5067 60.712 51.6907 61 52.992 61ZM67.5703 42.632H72.3703L79.2503 57.608L86.1623 42.632H90.9303V65H86.2903V52.296L80.3703 65H78.1303L72.2423 52.296V65H67.5703V42.632ZM94.289 42.632H103.697C106.236 42.632 108.262 43.304 109.777 44.648C111.292 45.9707 112.049 47.816 112.049 50.184C112.049 52.616 111.292 54.4827 109.777 55.784C108.284 57.0853 106.257 57.736 103.697 57.736H99.153V65H94.289V42.632ZM102.993 53.672C105.745 53.672 107.121 52.5093 107.121 50.184C107.121 48.8827 106.748 47.976 106.001 47.464C105.276 46.952 104.273 46.696 102.993 46.696H99.153V53.672H102.993ZM118.821 46.696H112.293V42.632H130.213V46.696H123.685V65H118.821V46.696Z" fill="#F8F3EC"/>
<path d="M1.248 81.224H8.304C10.208 81.224 11.728 81.728 12.864 82.736C14 83.728 14.568 85.112 14.568 86.888C14.568 88.712 14 90.112 12.864 91.088C11.744 92.064 10.224 92.552 8.304 92.552H4.896V98H1.248V81.224ZM7.776 89.504C9.84 89.504 10.872 88.632 10.872 86.888C10.872 85.912 10.592 85.232 10.032 84.848C9.488 84.464 8.736 84.272 7.776 84.272H4.896V89.504H7.776ZM16.248 81.224H23.52C25.424 81.224 26.904 81.704 27.96 82.664C29.032 83.608 29.568 84.976 29.568 86.768C29.568 88.016 29.28 89.08 28.704 89.96C28.128 90.824 27.312 91.456 26.256 91.856L29.448 98H25.704L22.752 92.312H19.896V98H16.248V81.224ZM22.872 89.264C23.8 89.264 24.528 89.064 25.056 88.664C25.6 88.264 25.872 87.632 25.872 86.768C25.872 85.856 25.608 85.216 25.08 84.848C24.552 84.464 23.816 84.272 22.872 84.272H19.896V89.264H22.872ZM39.744 98.36C38.064 98.36 36.536 97.992 35.16 97.256C33.8 96.52 32.728 95.496 31.944 94.184C31.16 92.856 30.768 91.336 30.768 89.624C30.768 87.912 31.16 86.392 31.944 85.064C32.728 83.736 33.8 82.704 35.16 81.968C36.536 81.232 38.064 80.864 39.744 80.864C41.424 80.864 42.936 81.232 44.28 81.968C45.64 82.704 46.712 83.736 47.496 85.064C48.28 86.392 48.672 87.912 48.672 89.624C48.672 91.336 48.28 92.856 47.496 94.184C46.712 95.496 45.64 96.52 44.28 97.256C42.936 97.992 41.424 98.36 39.744 98.36ZM39.744 95C40.704 95 41.576 94.784 42.36 94.352C43.16 93.904 43.792 93.28 44.256 92.48C44.72 91.664 44.952 90.712 44.952 89.624C44.952 88.552 44.72 87.616 44.256 86.816C43.808 86 43.184 85.376 42.384 84.944C41.6 84.496 40.72 84.272 39.744 84.272C38.752 84.272 37.856 84.496 37.056 84.944C36.272 85.376 35.648 86 35.184 86.816C34.72 87.616 34.488 88.552 34.488 89.624C34.488 90.712 34.72 91.664 35.184 92.48C35.648 93.28 36.28 93.904 37.08 94.352C37.88 94.784 38.768 95 39.744 95ZM50.6777 81.224H54.2777L59.4377 92.456L64.6217 81.224H68.1977V98H64.7177V88.472L60.2777 98H58.5977L54.1817 88.472V98H50.6777V81.224ZM70.7168 81.224H77.7728C79.6768 81.224 81.1968 81.728 82.3328 82.736C83.4688 83.728 84.0368 85.112 84.0368 86.888C84.0368 88.712 83.4688 90.112 82.3328 91.088C81.2128 92.064 79.6928 92.552 77.7728 92.552H74.3648V98H70.7168V81.224ZM77.2448 89.504C79.3088 89.504 80.3408 88.632 80.3408 86.888C80.3408 85.912 80.0608 85.232 79.5008 84.848C78.9568 84.464 78.2048 84.272 77.2448 84.272H74.3648V89.504H77.2448ZM89.1154 84.272H84.2194V81.224H97.6594V84.272H92.7634V98H89.1154V84.272Z" fill="#F8F3EC"/>
<path d="M1.2 114.02H6.8C8.33333 114.02 9.56 114.427 10.48 115.24C11.4133 116.053 11.88 117.167 11.88 118.58C11.88 120.047 11.42 121.167 10.5 121.94C9.58 122.7 8.34 123.08 6.78 123.08H3.74V128H1.2V114.02ZM6.48 120.98C8.38667 120.98 9.34 120.18 9.34 118.58C9.34 116.94 8.38667 116.12 6.48 116.12H3.74V120.98H6.48ZM13.4852 114.02H19.3252C20.8718 114.02 22.0652 114.4 22.9052 115.16C23.7452 115.92 24.1652 117.02 24.1652 118.46C24.1652 119.487 23.9118 120.36 23.4052 121.08C22.8985 121.8 22.1785 122.313 21.2452 122.62L24.0852 128H21.4852L18.7852 122.88H16.0252V128H13.4852V114.02ZM18.8652 120.78C19.6918 120.78 20.3585 120.587 20.8652 120.2C21.3718 119.813 21.6252 119.233 21.6252 118.46C21.6252 116.9 20.7052 116.12 18.8652 116.12H16.0252V120.78H18.8652ZM32.888 128.3C31.488 128.3 30.2213 128 29.088 127.4C27.968 126.787 27.0813 125.927 26.428 124.82C25.788 123.713 25.468 122.447 25.468 121.02C25.468 119.593 25.788 118.327 26.428 117.22C27.0813 116.113 27.968 115.253 29.088 114.64C30.2213 114.027 31.488 113.72 32.888 113.72C34.2746 113.72 35.528 114.027 36.648 114.64C37.7813 115.253 38.668 116.113 39.308 117.22C39.9613 118.327 40.288 119.593 40.288 121.02C40.288 122.447 39.9613 123.713 39.308 124.82C38.668 125.913 37.7813 126.767 36.648 127.38C35.528 127.993 34.2746 128.3 32.888 128.3ZM32.888 126C33.7813 126 34.5946 125.8 35.328 125.4C36.0613 124.987 36.6413 124.407 37.068 123.66C37.508 122.9 37.728 122.02 37.728 121.02C37.728 120.033 37.5146 119.167 37.088 118.42C36.6613 117.66 36.0813 117.073 35.348 116.66C34.6146 116.247 33.7946 116.04 32.888 116.04C31.9813 116.04 31.1546 116.247 30.408 116.66C29.6746 117.073 29.0946 117.66 28.668 118.42C28.2413 119.167 28.028 120.033 28.028 121.02C28.028 122.02 28.2413 122.9 28.668 123.66C29.108 124.407 29.6946 124.987 30.428 125.4C31.1746 125.8 31.9946 126 32.888 126ZM42.2938 114.02H44.7738L49.4538 124.26L54.1338 114.02H56.6138V128H54.2138V118.92L50.0538 128H48.8538L44.6938 118.92V128H42.2938V114.02ZM59.0125 114.02H64.6125C66.1458 114.02 67.3725 114.427 68.2925 115.24C69.2258 116.053 69.6925 117.167 69.6925 118.58C69.6925 120.047 69.2325 121.167 68.3125 121.94C67.3925 122.7 66.1525 123.08 64.5925 123.08H61.5525V128H59.0125V114.02ZM64.2925 120.98C66.1992 120.98 67.1525 120.18 67.1525 118.58C67.1525 116.94 66.1992 116.12 64.2925 116.12H61.5525V120.98H64.2925ZM74.2098 116.12H69.9898V114.02H80.9698V116.12H76.7498V128H74.2098V116.12Z" fill="#F8F3EC"/>
<path d="M0.84 144.214H4.76C5.83333 144.214 6.692 144.499 7.336 145.068C7.98933 145.637 8.316 146.417 8.316 147.406C8.316 148.433 7.994 149.217 7.35 149.758C6.706 150.29 5.838 150.556 4.746 150.556H2.618V154H0.84V144.214ZM4.536 149.086C5.87067 149.086 6.538 148.526 6.538 147.406C6.538 146.258 5.87067 145.684 4.536 145.684H2.618V149.086H4.536ZM9.43961 144.214H13.5276C14.6103 144.214 15.4456 144.48 16.0336 145.012C16.6216 145.544 16.9156 146.314 16.9156 147.322C16.9156 148.041 16.7383 148.652 16.3836 149.156C16.0289 149.66 15.5249 150.019 14.8716 150.234L16.8596 154H15.0396L13.1496 150.416H11.2176V154H9.43961V144.214ZM13.2056 148.946C13.7843 148.946 14.2509 148.811 14.6056 148.54C14.9603 148.269 15.1376 147.863 15.1376 147.322C15.1376 146.23 14.4936 145.684 13.2056 145.684H11.2176V148.946H13.2056ZM23.0216 154.21C22.0416 154.21 21.1549 154 20.3616 153.58C19.5776 153.151 18.9569 152.549 18.4996 151.774C18.0516 150.999 17.8276 150.113 17.8276 149.114C17.8276 148.115 18.0516 147.229 18.4996 146.454C18.9569 145.679 19.5776 145.077 20.3616 144.648C21.1549 144.219 22.0416 144.004 23.0216 144.004C23.9922 144.004 24.8696 144.219 25.6536 144.648C26.4469 145.077 27.0676 145.679 27.5156 146.454C27.9729 147.229 28.2016 148.115 28.2016 149.114C28.2016 150.113 27.9729 150.999 27.5156 151.774C27.0676 152.539 26.4469 153.137 25.6536 153.566C24.8696 153.995 23.9922 154.21 23.0216 154.21ZM23.0216 152.6C23.6469 152.6 24.2162 152.46 24.7296 152.18C25.2429 151.891 25.6489 151.485 25.9476 150.962C26.2556 150.43 26.4096 149.814 26.4096 149.114C26.4096 148.423 26.2602 147.817 25.9616 147.294C25.6629 146.762 25.2569 146.351 24.7436 146.062C24.2302 145.773 23.6562 145.628 23.0216 145.628C22.3869 145.628 21.8082 145.773 21.2856 146.062C20.7722 146.351 20.3662 146.762 20.0676 147.294C19.7689 147.817 19.6196 148.423 19.6196 149.114C19.6196 149.814 19.7689 150.43 20.0676 150.962C20.3756 151.485 20.7862 151.891 21.2996 152.18C21.8222 152.46 22.3962 152.6 23.0216 152.6ZM29.6056 144.214H31.3416L34.6176 151.382L37.8936 144.214H39.6296V154H37.9496V147.644L35.0376 154H34.1976L31.2856 147.644V154H29.6056V144.214ZM41.3088 144.214H45.2288C46.3021 144.214 47.1608 144.499 47.8048 145.068C48.4581 145.637 48.7848 146.417 48.7848 147.406C48.7848 148.433 48.4628 149.217 47.8188 149.758C47.1748 150.29 46.3068 150.556 45.2148 150.556H43.0868V154H41.3088V144.214ZM45.0048 149.086C46.3394 149.086 47.0068 148.526 47.0068 147.406C47.0068 146.258 46.3394 145.684 45.0048 145.684H43.0868V149.086H45.0048ZM51.9469 145.684H48.9929V144.214H56.6789V145.684H53.7249V154H51.9469V145.684Z" fill="#F8F3EC"/>
<path d="M0.72 170.612H4.08C5 170.612 5.736 170.856 6.288 171.344C6.848 171.832 7.128 172.5 7.128 173.348C7.128 174.228 6.852 174.9 6.3 175.364C5.748 175.82 5.004 176.048 4.068 176.048H2.244V179H0.72V170.612ZM3.888 174.788C5.032 174.788 5.604 174.308 5.604 173.348C5.604 172.364 5.032 171.872 3.888 171.872H2.244V174.788H3.888ZM8.09109 170.612H11.5951C12.5231 170.612 13.2391 170.84 13.7431 171.296C14.2471 171.752 14.4991 172.412 14.4991 173.276C14.4991 173.892 14.3471 174.416 14.0431 174.848C13.7391 175.28 13.3071 175.588 12.7471 175.772L14.4511 179H12.8911L11.2711 175.928H9.61509V179H8.09109V170.612ZM11.3191 174.668C11.8151 174.668 12.2151 174.552 12.5191 174.32C12.8231 174.088 12.9751 173.74 12.9751 173.276C12.9751 172.34 12.4231 171.872 11.3191 171.872H9.61509V174.668H11.3191ZM19.7328 179.18C18.8928 179.18 18.1328 179 17.4528 178.64C16.7808 178.272 16.2488 177.756 15.8568 177.092C15.4728 176.428 15.2808 175.668 15.2808 174.812C15.2808 173.956 15.4728 173.196 15.8568 172.532C16.2488 171.868 16.7808 171.352 17.4528 170.984C18.1328 170.616 18.8928 170.432 19.7328 170.432C20.5648 170.432 21.3168 170.616 21.9888 170.984C22.6688 171.352 23.2008 171.868 23.5848 172.532C23.9768 173.196 24.1728 173.956 24.1728 174.812C24.1728 175.668 23.9768 176.428 23.5848 177.092C23.2008 177.748 22.6688 178.26 21.9888 178.628C21.3168 178.996 20.5648 179.18 19.7328 179.18ZM19.7328 177.8C20.2688 177.8 20.7568 177.68 21.1968 177.44C21.6368 177.192 21.9848 176.844 22.2408 176.396C22.5048 175.94 22.6368 175.412 22.6368 174.812C22.6368 174.22 22.5088 173.7 22.2528 173.252C21.9968 172.796 21.6488 172.444 21.2088 172.196C20.7688 171.948 20.2768 171.824 19.7328 171.824C19.1888 171.824 18.6928 171.948 18.2448 172.196C17.8048 172.444 17.4568 172.796 17.2008 173.252C16.9448 173.7 16.8168 174.22 16.8168 174.812C16.8168 175.412 16.9448 175.94 17.2008 176.396C17.4648 176.844 17.8168 177.192 18.2568 177.44C18.7048 177.68 19.1968 177.8 19.7328 177.8ZM25.3763 170.612H26.8643L29.6723 176.756L32.4803 170.612H33.9683V179H32.5283V173.552L30.0323 179H29.3123L26.8163 173.552V179H25.3763V170.612ZM35.4075 170.612H38.7675C39.6875 170.612 40.4235 170.856 40.9755 171.344C41.5355 171.832 41.8155 172.5 41.8155 173.348C41.8155 174.228 41.5395 174.9 40.9875 175.364C40.4355 175.82 39.6915 176.048 38.7555 176.048H36.9315V179H35.4075V170.612ZM38.5755 174.788C39.7195 174.788 40.2915 174.308 40.2915 173.348C40.2915 172.364 39.7195 171.872 38.5755 171.872H36.9315V174.788H38.5755ZM44.5259 171.872H41.9939V170.612H48.5819V171.872H46.0499V179H44.5259V171.872Z" fill="#F8F3EC"/>
</svg>
