<svg width="60" height="60" viewBox="0 0 60 60" fill="none" xmlns="http://www.w3.org/2000/svg">
<path fill-rule="evenodd" clip-rule="evenodd" d="M12.5 2.5C9.84784 2.5 7.3043 3.55357 5.42893 5.42893C3.55357 7.3043 2.5 9.84784 2.5 12.5V47.5C2.5 50.1522 3.55357 52.6957 5.42893 54.5711C7.3043 56.4464 9.84784 57.5 12.5 57.5H47.5C50.1522 57.5 52.6957 56.4464 54.5711 54.5711C56.4464 52.6957 57.5 50.1522 57.5 47.5V12.5C57.5 9.84784 56.4464 7.3043 54.5711 5.42893C52.6957 3.55357 50.1522 2.5 47.5 2.5H12.5ZM43.925 16.25H48.925V40.725C47.5125 41.215 44.04 42.2 41.455 42.2C38.2225 42.2 32.5 40.5375 32.5 32.785C32.5 26.0675 38.0925 23.535 43.925 23.535V16.25ZM43.925 27.81V37.81C41.85 37.81 37.675 37.2775 37.675 32.81C37.675 28.3425 41.85 27.81 43.925 27.81ZM16.25 19.7H11.25L17.5 30.95L11.25 42.2H16.25L21.25 33.45L26.25 42.2H31.25L25 30.95L31.25 19.7H26.25L21.25 28.45L16.25 19.7Z" fill="#F8F3EC"/>
</svg>
