<svg width="120" height="120" viewBox="0 0 120 120" fill="none" xmlns="http://www.w3.org/2000/svg">
<g clip-path="url(#clip0_227_2)">
<path d="M60.0008 96.0008C52.8807 96.0008 45.9205 93.8895 40.0003 89.9337C34.0801 85.978 29.4659 80.3556 26.7412 73.7774C24.0164 67.1993 23.3035 59.9609 24.6925 52.9776C26.0816 45.9943 29.5103 39.5797 34.545 34.545C39.5797 29.5103 45.9943 26.0816 52.9776 24.6925C59.9609 23.3035 67.1993 24.0164 73.7774 26.7412C80.3556 29.4659 85.978 34.0801 89.9337 40.0003C93.8895 45.9205 96.0008 52.8807 96.0008 60.0008C96.0008 69.5486 92.208 78.7054 85.4567 85.4567C78.7054 92.208 69.5486 96.0008 60.0008 96.0008ZM60.0008 15.0008C54.0813 14.965 48.2136 16.1045 42.7378 18.3532C37.2619 20.602 32.2869 23.9153 28.1011 28.1011C23.9153 32.2869 20.602 37.2619 18.3532 42.7378C16.1045 48.2136 14.965 54.0813 15.0008 60.0008C14.965 65.9203 16.1045 71.7881 18.3532 77.2639C20.602 82.7397 23.9153 87.7147 28.1011 91.9005C32.2869 96.0863 37.2619 99.3996 42.7378 101.648C48.2136 103.897 54.0813 105.037 60.0008 105.001C65.9203 105.037 71.7881 103.897 77.2639 101.648C82.7397 99.3996 87.7147 96.0863 91.9005 91.9005C96.0863 87.7147 99.3996 82.7397 101.648 77.2639C103.897 71.7881 105.037 65.9203 105.001 60.0008C105.037 54.0813 103.897 48.2136 101.648 42.7378C99.3996 37.2619 96.0863 32.2869 91.9005 28.1011C87.7147 23.9153 82.7397 20.602 77.2639 18.3532C71.7881 16.1045 65.9203 14.965 60.0008 15.0008Z" fill="#F8F3EC"/>
<path d="M75.7051 67.5151C71.2051 67.5151 69.2701 64.9501 69.2701 59.8201C69.2701 54.6901 71.2051 52.1251 75.7051 52.1251C78.2701 52.1251 79.5751 53.4301 80.8351 55.9951L86.6401 52.8001C85.4308 50.6759 83.6298 48.9493 81.4565 47.8307C79.2832 46.7121 76.8315 46.2498 74.4001 46.5001C72.6156 46.4522 70.8402 46.7709 69.1838 47.4366C67.5274 48.1022 66.0252 49.1006 64.7701 50.3701C63.4539 51.5898 62.4243 53.086 61.7551 54.7511C61.086 56.4161 60.794 58.2087 60.9001 60.0001C60.7851 61.8932 61.0703 63.7894 61.7371 65.5649C62.4039 67.3405 63.4373 68.9556 64.7701 70.3051C66.0252 71.5745 67.5274 72.5729 69.1838 73.2386C70.8402 73.9042 72.6156 74.223 74.4001 74.1751C76.8643 74.1242 79.2753 73.4495 81.408 72.214C83.5406 70.9784 85.3252 69.2225 86.5951 67.1101L80.8351 64.5001C80.2981 65.4043 79.552 66.1665 78.6593 66.7224C77.7666 67.2784 76.7535 67.612 75.7051 67.6951V67.5151ZM48.7051 67.5151C44.2051 67.5151 42.2701 64.9501 42.2701 59.8201C42.2701 54.6901 44.2051 52.1251 48.7051 52.1251C51.2701 52.1251 52.5751 53.4301 53.8351 55.9951L59.6401 52.8001C58.4308 50.6759 56.6298 48.9493 54.4565 47.8307C52.2832 46.7121 49.8315 46.2498 47.4001 46.5001C45.6156 46.4522 43.8402 46.7709 42.1838 47.4366C40.5274 48.1022 39.0252 49.1006 37.7701 50.3701C36.4539 51.5898 35.4243 53.086 34.7551 54.7511C34.086 56.4161 33.794 58.2087 33.9001 60.0001C33.7851 61.8932 34.0703 63.7894 34.7371 65.5649C35.4039 67.3405 36.4373 68.9556 37.7701 70.3051C39.0252 71.5745 40.5274 72.5729 42.1838 73.2386C43.8402 73.9042 45.6156 74.223 47.4001 74.1751C49.8643 74.1242 52.2753 73.4495 54.408 72.214C56.5406 70.9784 58.3252 69.2225 59.5951 67.1101L53.8351 64.5001C53.2981 65.4043 52.552 66.1665 51.6593 66.7224C50.7666 67.2784 49.7535 67.612 48.7051 67.6951V67.5151Z" fill="#F8F3EC"/>
</g>
<defs>
<clipPath id="clip0_227_2">
<rect width="90" height="90" fill="white" transform="translate(15 15)"/>
</clipPath>
</defs>
</svg>
