<svg width="120" height="120" viewBox="0 0 120 120" fill="none" xmlns="http://www.w3.org/2000/svg">
<g clip-path="url(#clip0_227_2)">
<path d="M60.0001 70.9125C63.9784 70.9125 67.7937 69.3322 70.6067 66.5191C73.4198 63.7061 75.0001 59.8908 75.0001 55.9125C74.8968 52.7445 74.0076 49.6518 72.4126 46.9125C69.9001 41.775 67.3126 36.4875 73.8001 20.6625C74.2056 19.8926 74.3307 19.0057 74.1541 18.1537C73.9774 17.3016 73.5099 16.5376 72.8318 15.9924C72.1536 15.4472 71.3069 15.1548 70.4368 15.1653C69.5668 15.1758 68.7274 15.4886 68.0626 16.05C61.6876 20.8125 42.1876 35.2875 45.0001 56.25C45.2633 60.1097 46.9377 63.7374 49.7041 66.4416C52.4706 69.1458 56.1355 70.7373 60.0001 70.9125Z" fill="#F8F3EC"/>
<path d="M99.375 55.9126H84.375C83.4182 55.9109 82.497 56.2749 81.7998 56.9302C81.1027 57.5856 80.6824 58.4825 80.625 59.4376C80.625 64.9077 78.452 70.1537 74.5841 74.0217C70.7161 77.8896 65.4701 80.0626 60 80.0626C54.5299 80.0626 49.2839 77.8896 45.4159 74.0217C41.548 70.1537 39.375 64.9077 39.375 59.4376C39.3176 58.4825 38.8973 57.5856 38.2002 56.9302C37.503 56.2749 36.5818 55.9109 35.625 55.9126H20.625C19.1332 55.9126 17.7024 56.5052 16.6475 57.5601C15.5926 58.615 15 60.0458 15 61.5376V99.0376C15 100.529 15.5926 101.96 16.6475 103.015C17.7024 104.07 19.1332 104.663 20.625 104.663H99.375C100.867 104.663 102.298 104.07 103.352 103.015C104.407 101.96 105 100.529 105 99.0376V61.5376C105 60.0458 104.407 58.615 103.352 57.5601C102.298 56.5052 100.867 55.9126 99.375 55.9126ZM20.625 72.7876C20.625 71.793 21.0201 70.8392 21.7233 70.136C22.4266 69.4327 23.3804 69.0376 24.375 69.0376C25.3696 69.0376 26.3234 69.4327 27.0267 70.136C27.7299 70.8392 28.125 71.793 28.125 72.7876C28.125 73.7822 27.7299 74.736 27.0267 75.4393C26.3234 76.1425 25.3696 76.5376 24.375 76.5376C23.3804 76.5376 22.4266 76.1425 21.7233 75.4393C21.0201 74.736 20.625 73.7822 20.625 72.7876ZM28.125 99.0376C27.1304 99.0376 26.1766 98.6425 25.4733 97.9393C24.7701 97.236 24.375 96.2822 24.375 95.2876C24.375 94.293 24.7701 93.3392 25.4733 92.636C26.1766 91.9327 27.1304 91.5376 28.125 91.5376C29.1196 91.5376 30.0734 91.9327 30.7766 92.636C31.4799 93.3392 31.875 94.293 31.875 95.2876C31.875 96.2822 31.4799 97.236 30.7766 97.9393C30.0734 98.6425 29.1196 99.0376 28.125 99.0376ZM41.25 85.8751C40.2554 85.8751 39.3016 85.48 38.5984 84.7768C37.8951 84.0735 37.5 83.1197 37.5 82.1251C37.5 81.1305 37.8951 80.1767 38.5984 79.4735C39.3016 78.7702 40.2554 78.3751 41.25 78.3751C42.2446 78.3751 43.1984 78.7702 43.9016 79.4735C44.6049 80.1767 45 81.1305 45 82.1251C45 83.1197 44.6049 84.0735 43.9016 84.7768C43.1984 85.48 42.2446 85.8751 41.25 85.8751ZM48.75 99.0376C47.7554 99.0376 46.8016 98.6425 46.0984 97.9393C45.3951 97.236 45 96.2822 45 95.2876C45 94.293 45.3951 93.3392 46.0984 92.636C46.8016 91.9327 47.7554 91.5376 48.75 91.5376C49.7446 91.5376 50.6984 91.9327 51.4016 92.636C52.1049 93.3392 52.5 94.293 52.5 95.2876C52.5 96.2822 52.1049 97.236 51.4016 97.9393C50.6984 98.6425 49.7446 99.0376 48.75 99.0376ZM69.375 99.0376C68.3804 99.0376 67.4266 98.6425 66.7234 97.9393C66.0201 97.236 65.625 96.2822 65.625 95.2876C65.625 94.293 66.0201 93.3392 66.7234 92.636C67.4266 91.9327 68.3804 91.5376 69.375 91.5376C70.3696 91.5376 71.3234 91.9327 72.0266 92.636C72.7299 93.3392 73.125 94.293 73.125 95.2876C73.125 96.2822 72.7299 97.236 72.0266 97.9393C71.3234 98.6425 70.3696 99.0376 69.375 99.0376ZM78.75 85.8751C77.7554 85.8751 76.8016 85.48 76.0983 84.7768C75.3951 84.0735 75 83.1197 75 82.1251C75 81.1305 75.3951 80.1767 76.0983 79.4735C76.8016 78.7702 77.7554 78.3751 78.75 78.3751C79.7446 78.3751 80.6984 78.7702 81.4017 79.4735C82.1049 80.1767 82.5 81.1305 82.5 82.1251C82.5 83.1197 82.1049 84.0735 81.4017 84.7768C80.6984 85.48 79.7446 85.8751 78.75 85.8751ZM90 99.0376C89.0054 99.0376 88.0516 98.6425 87.3483 97.9393C86.6451 97.236 86.25 96.2822 86.25 95.2876C86.25 94.293 86.6451 93.3392 87.3483 92.636C88.0516 91.9327 89.0054 91.5376 90 91.5376C90.9946 91.5376 91.9484 91.9327 92.6517 92.636C93.3549 93.3392 93.75 94.293 93.75 95.2876C93.75 96.2822 93.3549 97.236 92.6517 97.9393C91.9484 98.6425 90.9946 99.0376 90 99.0376ZM95.625 76.5376C94.6304 76.5376 93.6766 76.1425 92.9733 75.4393C92.2701 74.736 91.875 73.7822 91.875 72.7876C91.875 71.793 92.2701 70.8392 92.9733 70.136C93.6766 69.4327 94.6304 69.0376 95.625 69.0376C96.6196 69.0376 97.5734 69.4327 98.2767 70.136C98.9799 70.8392 99.375 71.793 99.375 72.7876C99.375 73.7822 98.9799 74.736 98.2767 75.4393C97.5734 76.1425 96.6196 76.5376 95.625 76.5376Z" fill="#F8F3EC"/>
</g>
<defs>
<clipPath id="clip0_227_2">
<rect width="90" height="90" fill="white" transform="translate(15 15)"/>
</clipPath>
</defs>
</svg>
